<mxfile host="app.diagrams.net" modified="2023-10-08T22:31:18.247Z" agent="Mozilla/5.0 (Windows NT 10.0; Win64; x64) AppleWebKit/537.36 (KHTML, like Gecko) Chrome/117.0.0.0 Safari/537.36" etag="1KVPCd7M4GSN3KrQrBIZ" version="21.6.9" type="github">
  <diagram name="Page-1" id="oelpLLZQ5CpzUOGoIRx6">
    <mxGraphModel dx="1730" dy="470" grid="1" gridSize="10" guides="1" tooltips="1" connect="1" arrows="1" fold="1" page="1" pageScale="1" pageWidth="850" pageHeight="1100" math="0" shadow="0">
      <root>
        <mxCell id="0" />
        <mxCell id="1" parent="0" />
        <mxCell id="EXpLw-7ZhNTg4ZC5dxBc-5" style="edgeStyle=orthogonalEdgeStyle;rounded=0;orthogonalLoop=1;jettySize=auto;html=1;" parent="1" source="EXpLw-7ZhNTg4ZC5dxBc-3" target="EXpLw-7ZhNTg4ZC5dxBc-39" edge="1">
          <mxGeometry relative="1" as="geometry">
            <mxPoint x="890" y="350" as="targetPoint" />
          </mxGeometry>
        </mxCell>
        <mxCell id="EXpLw-7ZhNTg4ZC5dxBc-3" value="&lt;font style=&quot;font-size: 18px;&quot;&gt;Cliente&lt;/font&gt;" style="whiteSpace=wrap;html=1;aspect=fixed;" parent="1" vertex="1">
          <mxGeometry x="730" y="380" width="80" height="80" as="geometry" />
        </mxCell>
        <mxCell id="SBNdTW3bbpPaULmrXrV8-5" style="edgeStyle=orthogonalEdgeStyle;rounded=0;orthogonalLoop=1;jettySize=auto;html=1;entryX=1;entryY=0.5;entryDx=0;entryDy=0;exitX=0.25;exitY=0;exitDx=0;exitDy=0;" parent="1" source="EXpLw-7ZhNTg4ZC5dxBc-19" target="SBNdTW3bbpPaULmrXrV8-4" edge="1">
          <mxGeometry relative="1" as="geometry" />
        </mxCell>
        <mxCell id="9nxXd0zsK4Rgzzkij1yP-5" style="edgeStyle=orthogonalEdgeStyle;rounded=0;orthogonalLoop=1;jettySize=auto;html=1;entryX=1;entryY=0.5;entryDx=0;entryDy=0;" parent="1" source="EXpLw-7ZhNTg4ZC5dxBc-19" target="SBNdTW3bbpPaULmrXrV8-1" edge="1">
          <mxGeometry relative="1" as="geometry" />
        </mxCell>
        <mxCell id="EXpLw-7ZhNTg4ZC5dxBc-19" value="&lt;font style=&quot;font-size: 14px;&quot;&gt;API RESTful&lt;/font&gt;" style="swimlane;fontStyle=0;childLayout=stackLayout;horizontal=1;startSize=30;horizontalStack=0;resizeParent=1;resizeParentMax=0;resizeLast=0;collapsible=1;marginBottom=0;whiteSpace=wrap;html=1;" parent="1" vertex="1">
          <mxGeometry x="285" y="305" width="140" height="90" as="geometry" />
        </mxCell>
        <mxCell id="EXpLw-7ZhNTg4ZC5dxBc-20" value="Business Logic" style="text;strokeColor=none;fillColor=none;align=left;verticalAlign=middle;spacingLeft=4;spacingRight=4;overflow=hidden;points=[[0,0.5],[1,0.5]];portConstraint=eastwest;rotatable=0;whiteSpace=wrap;html=1;" parent="EXpLw-7ZhNTg4ZC5dxBc-19" vertex="1">
          <mxGeometry y="30" width="140" height="30" as="geometry" />
        </mxCell>
        <mxCell id="EXpLw-7ZhNTg4ZC5dxBc-21" value="Data Access" style="text;strokeColor=none;fillColor=none;align=left;verticalAlign=middle;spacingLeft=4;spacingRight=4;overflow=hidden;points=[[0,0.5],[1,0.5]];portConstraint=eastwest;rotatable=0;whiteSpace=wrap;html=1;" parent="EXpLw-7ZhNTg4ZC5dxBc-19" vertex="1">
          <mxGeometry y="60" width="140" height="30" as="geometry" />
        </mxCell>
        <mxCell id="EXpLw-7ZhNTg4ZC5dxBc-30" value="" style="swimlane;startSize=0;" parent="1" vertex="1">
          <mxGeometry x="30" y="80" width="640" height="650" as="geometry" />
        </mxCell>
        <mxCell id="EXpLw-7ZhNTg4ZC5dxBc-8" value="&lt;font style=&quot;font-size: 14px;&quot;&gt;Banco de Dados&lt;/font&gt;" style="shape=cylinder3;whiteSpace=wrap;html=1;boundedLbl=1;backgroundOutline=1;size=15;" parent="EXpLw-7ZhNTg4ZC5dxBc-30" vertex="1">
          <mxGeometry x="285" y="520" width="80" height="90" as="geometry" />
        </mxCell>
        <mxCell id="9nxXd0zsK4Rgzzkij1yP-1" value="" style="shape=image;verticalLabelPosition=bottom;labelBackgroundColor=default;verticalAlign=top;aspect=fixed;imageAspect=0;image=data:image/png,iVBORw0KGgoAAAANSUhEUgAAA/8AAAFxCAYAAAAlJxjXAAAABHNCSVQICAgIfAhkiAAAAAlwSFlzAAAI2gAACNoBH+sbpwAAABl0RVh0U29mdHdhcmUAd3d3Lmlua3NjYXBlLm9yZ5vuPBoAACAASURBVHic7N15fF1Vuf/xz9onU1um0gEEtVAQmVFkEkFARLkozlSUsQKmSdpiK22SVn8eB5qTFlotzUkjlElEDSqKV1RwxOmKF68MIjKUSUSgBSy0SZqc/fz+SJk7JXudrHP2+b5fr1LaJs/6tk2T8+w1gYiIiIiIiIiIiIiIiIiIiIiIiIiIiIiIiIiIiIiIiIiIiIiIiIiIiIiIiIiIiIiIiIiIiIiIiIiIiIiIiIiIiIiIiIiIiIiIiIiIiIiIiIiIiIiIiIiIiIiIiIiIiIiIiIiIiIiIiIiIiIiIiIiIiIiIiIiIiIiIiIiIiIiIiIiIiIiIiIiIiIiIiIiIiIiIiIiIiIiIiIiIiIiIiIiIiIiIiIiIiIiIiIiIiIiIiIiIiIiIiIiIiIiIiIiIiIiIiIiIiIiIiIiIiIiIiIiIiIiIiIiIiIiIiIiIiIiIiIiIiIiIiIiIiIiIiIiIiIiIiIiIiIiIiIiIiIiIiIiIiIiIiIiIiIiIiIiIiIiIiIiIiIiIiIiIiIiIiIiIiIiIiIiIiIiIiIiIiIiIiIiIiIiIiIiIiIiIiIiIiIiIiIiIiIiIiIiIiIiIiIiIiIiIiIiIiIiIiIiIiIiIiIiIiIiIiIiIiIiIiIiIiIiIiIiIiIiIiIiIiIiIiIiIiIiIiIiIiIiIiIiIiIiIiIiIiIiIiIiIiIiIiIiIiIiIiIiIiIiIiIiIiIiIiIiIiIiIiIiIiIiIiIiIiIiIiIiIiIiIiIiIiIiIiIiIiIiIiIiIiIiIiIiIiIiIiIiIiIiIiIiIiIiIiIiIiIiIiIiIiIiIiIiIiIiIiIiIiIiIiIiIiIiIiIiIiIiIiIiIiIiIiIiIiIiIiIiIiIiIiIiIiIiIiIiIiIiIiIiIiIiIiIiIiIiIiIiIiIiIiIiIiIiIiIiIiIiIiIiIiIiIiIiIiIiIiIiIiIiIiIiIiIiIiIiIiIiIiIiIiIiIiIiIiIiIiIiIiIiIiIiIiIiIiIiIiIiIiIiIiIiIiIiIiIiIiIiIiIiIiIiIiIiIiIiIiIiIiIiIiIiIiIiIiIiIiIiIiIiIiIiIiIiIiIiIiIiIiIiIiIiIiIiIiIiIiIiIiIiIiIiIiIiIiIiIiIiIiIiIiIiIiIiIiIiIiIiIiIiIiIiIiIiIiIiIiIiIiIiIiIiIiIiIiIiIiIiIiIiIiIiIiIiIiIiIiIiIiIiIiIiIiIiIiIiIiIiIiIiIiIiIiIiIiIiIiIiIiIiIiIiIiIiIiIiIiIiIiIiIiIiIiIiIiIiIiIiIiIiIiIiIiIiIiIiIiIiIiIiIiIiIiIiIiIiIiIiIiIiIiIiISLq40AFEvOnuzvDso3vQv34ykZuEuUkQvx7cjjgmEDMe57YBwGwMjhqwAkRrBn+OHiJbDawmtlU49zjwEMZDuMzDDNT+g5kz+8L9BkVERERERIZHzb+Up+7uDKse3g/iIzE7GMeBYPuAG1XEUQdw3Etsd+HcX4jjPxJv8xc9EBARERERkVKn5l/Kx4r2N9NrJxK5d2P2dmC70JHA+iC6DeznmP2Mp/puI5uNQ6cSERERERF5OTX/UrrMHB1thxFVfQziDwK7hY60Ze4piG+kEH+XmvG/pL6+P3QiERERERERNf9SeroW7sGATcXZqcAbQ8cZPrca7HrMrqCp9c+h04iIiIiISOVS8y+lIZutYmLth8GdC3YsuLR9bN6BYwU17hrOaX4udBgREREREaksaWuwpNysaN+WPjsbOJ+ynuXfamswu5qaaDHnNf8zdBgREREREakMav4ljK7c9lh0PnE8A9g+dJwRZ6zHcTV11W186rOPho4jIiIiIiLppuZfRtaiRWMYE88EPgM2NnSc8KwPYwVkcjTN/XfoNCIiIiKJLVo0hu0K4yhkdgDbHot3IHI7YLYDsD3mdsDZDuAGb24yq8Kx7Yb3zvDKG50KwJoN/98Hbh1YH47VGKtwrAZ7EsusIjPwBH3bPKhrmEU2Ts2/jAwzx/LcRzDXTmUs7x+qtTi3mLqeRUzN9oYOU1G6szWsGvWl0DHKh/sxjXN/GzqFiMhr5NumQbTbsN8/tj8yveWH/gKl1LIF43DRPkRud2LeSGSTMPcGsNfhGIcxDhgVMGEM9ijO3Y+5ByC+H+fuwOxWGlufCZir+Dpzp2LuLcmKxM/Q2NruJ5CUGjX/UnxLcwdRxTLg8NBRSp6xEotnM33ejaGjVIxFi8YwpvB86Bhlw9kFNLReHDqGiMgr5Nsmg7uXwVnj4fo3o3p310P4l1m2YC8ymcMxOxTYD9gfmBg41XAZcD9mtxJFt1Jwv6Npzv/hnIUO5k1H2zU4d1rCKg/R2LK7lzxScqpCB5AUuyJbR++oOcTWDNSEjlMWHJNx0Q/I576Hy5xPw5wnQ0cSEZGttOyiSVSt348d9/wZU6YUQsepKI7PYokaf4Cd6a07C+jyEamsdbS9B+euBcZhqemNHfAmnHsTZqcRGXS2/4t8+424+EbivptpymoyQFJNzb8UR/4rR7Cu6nKc7an1JcPyUSw+lnzbTBpbrwsdRkREXqZz0UQY2B+i/cH2J3b742w/GNiOOIK1d49icJ+yjIRLL9yJfjfVSy3jArq7L6v4hzfOjQfGhY4xAnYBOxdz5+Lq1tOZ+wkxK5gw+caK/xiQVFLzL351d2dY9cBsIIujOnSc8mbjwH2TfO4j9NU2MGvWs6ETiYhUlK7c9li8L7E7ANz+DC57PgArTBicRNwwI5qiVcNlqT8zE397zPdk9cqPAt2e6kn5qMH4II4Psmrlv8jnrgRbQWPrytDBRHxR8y/+dC7eldUrrwX39tBRknOPg70udIoNPkpN38EsbTuVma3/FzqMiEiq5XMzMHciLt6PApMgCp1INmdF+7b0WaPXmsZc1PxXul2AeeCaybddS5T5MtPm3hc6lEhS+oomfnTkjsL6/4iRgsYfwBaGTvAKjt2p4hY62z4VOoqISMpNwdlJ4CaFDiJboS+eBuzguerbWN5+gueaUp4y4M4gjv9OPncVHW17hg4kkoSaf0kun5uB4yawnUNH8cP9D3W1Pwmd4rVcLeaW09F2CdmsVu2IiEhlW7q0FtxnilLbrLkodaVcZYAzce5u8u25wY89kfKj5l+Gr7s7Qz63BLiYNG0hKcTZ0BE2y7l6Jo76EV257UNHERERCSaz7kwGl2f7ZxzPsgW6olherRqsmap1d9HRflzoMCJDpeZfhmfRojGsWvldoCl0FK8ctzCj9ZehY2yZHU/ML+lcvGvoJCIiIiMum41wfLaoY0SZ4taXcrYnzn5OZ24xXV064FrKhpp/Gbqu3PaMiX8MvC90FO8KfCl0hK1mHEC8/hYuW6z9ZyIiUlkmjPoI8ObiDmIfZfnCNxV3DCljEcYsCs/8kq4LS+WQaJHNUvMvQ5NvG0vsfgx2ZOgo3jl3M9NbbgkdY0gcb2B9/y/52qL9Q0cREREZMc7mjsAoEbFdMALjSHk7ikLmf1m+ICWHXkuaqfmXrXfZ4h3B3YzZYaGjFEV//xdDRxge25nq+Gcsv2jf0ElERESKbln78cChIzOYncUl7cU5V0DSZBfi6BcbPjZFSpaaf9k6S7Pb0d//38CBoaMUyY+Z+blbQ4cYPptAPHATX794r9BJREREisqN6En8tWSYOYLjSfkaRWQ36CBAKWXpOaFdiqcrO5q47oeYHRI6SnGYYXGZzvq/wkQG+m/k0vZjOa/5n6HDiIiIeLc8dxAxJ4zsoDaNFe0Xck7zcyM7bqo8D6zBWINjDbAG3DMv/bL1gVv3ynfZ8HPOHOZ2wFkN5sZgjMFZDTAW2BaYBJTK1XujcXYDnQtOpGHe70OHEXk1Nf+yedlsRKH2SuAdoaMU0fU0zf9r6BCevJF+fsySJccwa9azocNUFvdTiH8dOkXRxZTXuRgiki7GZwKMuj3rmQosDTB2eYviI/n3+j+RzcZFG8PMsWzh64hsNxy7AYPfx7wVx0HASJ/Gvw0WXc/S9oOZqckYKS1q/mXzJoxaCPah0DGKKKZQe2HoEH7ZPtT2XUd39n1Mya4PnaaC3EJja3voECIiqXXphTvRzyeCjG02k+7uDqZMKQQZv1wNRGuK2vgDOGfAvzZ8+8Mrfu2KbB19NW8ljk4EPgC8pahZXjKBKvsW2exxZLMDIzSmyBap+ZdN68zVY5byfW7WzYzZd4ZOUQTHsKruq0Bj6CAiIiJe9GcaCbe8ew9WPXgy8INA48twTM32An/c8O0L5NsmY+48HOcAE4o8+lFMHPUVoKXI44hsNR34JxuX/8oRxFwcOkZxWYGqmq+ETlFE59LZ9qnQIURERBK7IlsHTAuawdmsoONLco2tK2lqaWVg9BvA6oHHizugzdUVgFJK1PzLa1164U5Y9bdx1ISOUmTX8OnP3hs6RFEZX+OSr6T0oEYREakY60adBkwMmsF4J8sWHhw0g/gxc2Yfja1fZ23mTcAXgJ4ijeQoZC7GzBWpvsiQqPmXV8pmIwYy38BZyu+0tX5cXcr2+m+MqyWq+hZdue1DJxERERkWM0dk5yesshofDV4Ua/Y/TebMWUtjy5eIooOAXxVlDGdvZ3n7x4tSW2SI1PzLK02om41xbOgYxeeuoGHWQ6FTjAjHJAosDx1DRERkWDpzx2MckLQKcK2HNFO4pD3lEyQVaNrc+2hoPp7BVQDmvb5ZjqVLS+U6Qqlgav7lJR0XvgXIho5RfNZHtcuFTjHCPsryhWFOSBYREUnCoqSz7X1Y1AEZH1f11ZCxJg91pNQ4ZzS2fAmz0wDPtyW5SWTWfsRvTZGhU/Mvg7LZKlzm6xWwzx9wX+e8Crx3NY6XskKzFSIiUkaWLdgLZycmqmF8k6a5/6Zxzh34Wdo9jUWLxnioI6WoqfVbmJ0J+L2i0LlPe60nMgxq/mXQxLq5jNzdpwFZD5nai0KnCGR7+izlNziIiEiqRJlZJHu9asR89aUfOh+z/zuyTeF0D3WkVDW1fgdncz1XPYZ8+5s91xQZEjX/Al+/eC8q5Q5Sy+Spn1Xka11K2kfpyJ0cOoSIiMgWXbZ4R7AzE1a5mRktd774o/G7/wh4MGFNMM7XCe4p19B6MfATjxUdcI7HeiJDpuZfYKB/MVAXOsYIeJ7ILQkdIjz3Nbqyo0OnEBER2az1/fVAsq9X9qoVb1OmFIBliWoO2od87r0e6kgpK7hzgWf8FbST/NUSGTo1/5Wuc+H7gfeEjjEizC2lYc6ToWME5+z1xKN0VZGIiJSurq5qSHqwnruLxpabX/PTfbWXA88nqw04p6+laTej+V9gbR4r7kvXha/zWE9kSNT8V7LubA1xvDB0jBHyLC7+WugQJcPsAh3+JyIiJWvg6Y8Buyaq4eIlOPfaa9tmzXoWuCpR7UHvofPC/T3UkVK2tioP+Jo8chQyx3uqJTJkVaEDSECr687BsWfoGCPkqzS2ely2VfbG0Bd/HmgIHURkqy1ZsgN1616PZd4AjMXcDsBYHNsC2/PiA+14FM4VMLceZ2sxtx7secw9TeQewdwj1GT+ybmznw73mykzyy6aRBS/ESvsAm5nHBNxjMLchhPPbRtwz+PiASx6Dot7wT1GFD1OzD+p6X+c8+Y/EfY3IWXFuemJ3t94glF9125mgEvAGhnchz18cVQPzEhUQ0rbnDlryee+Blzop6C9G7jGTy2RoVHzX6muyNbRg+9TTEuUW81Aj4/9fWlzJpcvWcSnZq0MHUTkRdlsFTtV7w2Z/TH2A/bZ8G0S9I3BMi+97UYm9Db8AhiAvfT9C29vG/5/fQHyuWcx/ozjz8TcSibzR20NYkOjXzgW7GjgAGAfGNgWAPeyPunlf7Yv/IS5we9feDuLB1ur/gzkc73AIzgexdwDOO7E3J1QuEMPZ+UVli08GOIjE9Vw5Jma7d3krzc2/4N8+88g4TWCzp3FivZ5nNP8XKI6UuLs2+A8Nf/uID91RIZOzX+lWldXj0u4nK5cmF3MzOya0DFKj6ump3c+OnlWQunuzrD6vn2wqreBvQ1zh+DsICzhAV9bbwccJwAnEAFWiMm3/R5z36PgvsfM5n+OUI7wli04nEz0cYwPwsDkIo1SB+yFsRfY8S89PHCQb38U7A7gdnB/gvi3Zf1AoK/mXeTb1oeOAYBFj9HU/PfQMYYkE89gU8/2tk4PA3HnFt/K4q/hXLLmH7ZlPWfh5xBBKVWNrSvJ5/6Kn2ux34SZ2+iWFJEiU/NfiZYurcX1zCbhV9ayYO4J1kVbfgFQqRyfpHPJl2mY9VDoKFIh8m2TIfoA2ImsWnk0ZEa/YmY+rAjc0TiOpsqWkM/9AlwH43f/0YYTwtOlK7c9Bfs0uGnA5LBfEuwNwBuA9214IBCTz90B3Egc38Cq9X8mm41DJhySOPpx6AgvclwGnBc6xlZbumACxqnJirhvMHPeU1t8s8aWn9HZ/g8g2d3rsTVh1qFmLvVuxE/zP4ZLFu4KVM4DZikZOvCvElX1nApWGSeNOlvInDlrQ8coXS5D3DszdAqpAJe070K+7RZw94MtAd5L0iu8issB7wa7nlUPPEBH7vzB08dT4LLFO5LPLaLAI+AWAsWa6U8iYvBF9jyi6H+YWPcYHTmfJ25LqarKnEuy64eNTGHrrvUdbNYvSTDWhjrsTdfCdyeuI6XN7A5vtTK8yVstkSFQ81+RrFIOpnmc3prLQocoec59imULxoWOISlnhX5wR5P0cK0g3CQcX6XwzF0brkctT9lsFfncDNavvw+4ANgudKQh2Jmks7NS+rLZKpIfRPtT6ufds9Vvbb1XAcm3BlrSawml5Jm7y1stx27eaokMgZr/SnNJ27uAA0PHGBGOBcye3RM6RhkYjYumhg4hKTe4BPfZ0DES2guLf0Q+dz35trGhwwzJ8oVvYkLdH4GlwI6h4wyLsz+FjiBFNmHUhzZsAUnALR/Smzdln8f4VrIxAeP9dLbtlriOlK7qsfcCfrYfDd5SIzLi1PxXmohzQ0cYIY8wrveK0CHKyLmYleGMrJQV4/7QETz5ELjbyLe9LXSQrZLPnU4c34bjkNBRErHo1tARpMiixCsTH2H87kM/b8HZpQnHBciA0/W5aVZf3w8876VWrOZfwlDzX0m6LhqP4+TQMUaG+zJTsqVx0nI5cEymo/3o0DEk5Vxqmn+A3cH9no5c6X5ONXPkcxcC34Cyf6EZU8f/hg4hRbQ8dxDGOxPVcO6yYR3O2dh6G46/JBobwDiHxYtHJa4jpczTlY62jZ86IkOj5r+SxP1ngKsNHaPojPt5sueboWOUncg+FTqCpJzZfaEjeFaL4zqWLzgpdJDXGNzf/w1gXugonvxd96inXOymJ6zQzwArhv3e5mX2fxx1/QlvKpAS5+nqaDX/Eoaa/0pi7uOhI4yITPRlstmB0DHKj/uAZiykuFyaZv5fUEscfY+O9uNCB3mRmWNCXRfOnRY6ikda8p9mly3eEeyTCavcwIzmfw37vQf6rgWS3w7kLOlDDCll5unQ2kg9mIShD7xKcemi3cHeGjpG8bm/8+913wmdokxtw6i+E0OHkFRLY/MPUIez68i3lcaVeZ3tX8GRspU8puY/zdb3nUPiqz9taAf9vdrM7BqM5K8fjIPpyB2ZuI6UpghPM/bOz9kBIkOk5r9SDBROAZf+A92ML5LN+jmJtRLFnBI6gqRYIU7bsv+XG4dzP6AjG3YpZz73X0Br0AzF4NBJ/2nV3Z0B15iwyn00tPwicRbnfCz9hyjxFgYpVabmX8qbmv+K4T4QOkHROe7iqZ4fhI5R1px7L93ZmtAxJKUGr/v7T+gYRWMcALVtwca/9MKdMK4AT8tSS0cP0Y7+7teW0rLqwfdBwjvPnXXhnCXO0tj8PzjuTFzH7KN0LpqYuI6Ulu7uDHhq/s3XwYEiQ1MVOoCMgMsW78j6vrel7/Xgqxif16x/YtuyqubtwG9CB5GUMu7zeOXcc+CeBet/6ccMMHiyfTUwFtjB01hbx7lGOtu/QUPzyC9TX59ZgGOn4g9kD2PR33D8E2fPgnseizfcruJqwY0GqwXGAxOAnYE3ADsObzz3lw1XbEkq2bSEBXop2JU+kgBgXAosTVilhrhwNrAweSApGasemATOU+8Ua+ZfglDzXwn6178HXCZ0jCK7jYbmG2lsCZ0jBareg5p/KZbB6/62pvnvA/4O3A38A9zDED+GRY9RlXmKx59/dqsO9uzKjiaungzRm8EdjXEscCDFexoaYbacbPaQEX0YuSy3H46zilT9IcxuwPEjBvpuZWZ2eKddd100noGBvXG2P7h3gB0NbtIW389pv39qdS3cg0L83mRF7Dqmz1vtJxCAXQOuHUh2AK7j05gt8rIiQUpDZHsTe/rSYdHTfgqJDI2a/0oQ2wmp3+5v9gV9gfUlPgGYHzqFpNbGDv3rB+4A92fgVtzAn3mi/x4vt3bUZ9cBd2349j0AuhbsTSGqBz4FbJd4jNd6KxNHfQAYuW1Ijv8H+HzIa8CNxCxkesstXirWX7AK+N2Gb4OHs3W27YZxIriTgHcBYzbynuXY/P8fUCIr0ezh0Ak2KY4/TdItqOaSHfT3ao2tz5Bv+y64MxJW2oOuhe8GbvYRS0pAwb3Z22PjaOBeT5VEhkTNf0Vw7widoLjcH2hquSl0ihQ5kK7c9tS3pHdvtoQzuOwfYCXmrse5HzJq3Z+Zmu0dsQz18+4BZpFv+xK42cAsNt50Dp8xl5Fq/i+9cCf6+bDHij+hQDMzWpLvfd6ShtaHGHwQsJylS2vJrD0G5z4AnAqMA8DKcOZ/VO+RI/oxXY6WLq3F1iW8lcLuoKn1D34CvUzsLiMiafMPZp9GzX96OPdOT5UK1PWn9fYbKXFq/tNu8EVhaVw/VSyFOBs6QspEDNjhgB6oiH+x+zmReytNc/8aOgqNrc8An6ej7SqcuwI4ylttZ2+nc8E7aJj3e281N6U/OpvBMw6S6gXXSGPzFR5qDd3MmX0Mft65ie7sbJ6q/Si4qTS1rgySR4qrat0pDJ4LMXzO86z/C5qaf0u+/R4ceyeqY3yQjoU70zT3356SSSjd2RpWcbynag/r4aCEotP+066QOSJ0hKJy/JIZrb8OHSN1oujtoSNISs1o/ldJNP4v19R6P0/2HofDzzVfL7DoNK/1Nj3OBz1UWQ98JFjj/2pTsutpav0WTS3vCR1FiqYh4fs/T3/vN70keTXnjMgu81CpGhcnXN0gJeHpUccweJisD//wVEdkyNT8p13MwaEjFFXMV0JHSCVL+ceNyKtlswM0tHwax9c8Vv3whquhimdpdjucHZq8kP0/Glt+kryOyFZYnjsIODJhleuGffjk1ui3qxl8KJbUuWSzer1d7ga3cPjh7C/eaokMkZb9p53ZASk+7O+nNLX8rjil436MB4tTewNnrwfnY6luEdiBoROIBDFu8mdZtXJP4H0equ3MqoeOopi3Z1TVHU3yr+Uryey42Eccka0Su2mDZ0omqcGVXrJsysx5T9GZuwHjYwkr7c6E2vcAP/URSwLIt03GPJ6rUnDaVinBqPlPO+fS28SZfblotT/12UeBNxet/uVLJtPbd1fR6ie3K8sWjPN7fZJIGZgypcCyBWcRRXcxeD99QvG7KerVmbZv8lsL7evU1/d7iSOyJUuz24El3RLzAE3Nv2V6ka/3jW0FziVt/sG5etT8lzE3D3+3qayheuwfPdUSGTItQ0qzFe3bgr0hdIzisBtoav1z6BTD1tM7n1J/+OaifUJHEAli+rzVmJvhqZq/QwQ3ynl4SFml5f4ycqrqziDp3mnnrhqR630n7HEzuEc9VHo/l7Tv4qGOjLTOtmMZvBbWD+MXetgqIZV28yHJrKvejcz6FK75N4OqL4VOMWyDs/6fCB1jixy7MXgft2wVayKf+2joFH7YOhpbfV1pVJ4a536PzvY/A0n30x9Gd7aGKVkfe4c3JultLgNktvu7lyQiWyXxkv+YQuZqX2k2a8qUAh1tV+Lc5xNWqqKKc4DirVgU/zqy22DuUpIvr3qJM60AkaDU/KdZ1cCkpFvqSpP7Lo1z7gidYth6eufjXOn/23Nu99ARysyuG76lgHsudILgnDM629ow9/2ElUbz5Oj9gWId8LRdwvd/TrNQMmLyC4+GeP9ENRy/YvoFD3tKtGVx1RVkCvNJulrW7Fy6uxcwZUrBTzApqmy2Clf3bWBPj1V7gOs81hMZMi37TzXbLXQC/6xApqp8n5xfvmQyzpX+rD+A2aTQEUSCinb8b4wnkteJ9/WQZlO2Sfj+JXroqKSSs6TX+4EV+aC/V5sx50Hglx4qvZFVK0/0UEeKzcwxcdQl+Dn49eV1v09j6zNea4oMkZr/NDP3utARvDO+Tf0F94SOMWzlsNf/JdqfKJVtcEb8B4nrONs7eZhNsbqEBbahI5v0AYLIlnUumohZ0q1Ra8j0Jl2NM3SOFZ4q1XuqI8XSna2hs/1qsGneazuWeK8pMkRq/tPM4gmhI/hlBTKZBaFTDFs5zfoPGh86gEhwkd2cuIa54h2eaa4ncY2q0Tt5SCKyeXHhTKAmYZXrqM+u8xFnSOp6fwA87aHSSSxtf72HOlIMHQt3ZlXdz4DTvdc2bqax9TbvdUWGSM1/mjnGhY7g2ZVMm3tf6BDDVl6z/mCp+/gRGboo/oOHKsV7se9Ym7jGgL3VQxKRLTkncYWRXvL/gqnZXsyu8VApQzVTPdQR3/K503Hx34Bji1C9QIY5RagrMmRq/tPMsWPoCP5YH5nRbaFTDFvXwj3KbNY/ZR8/IsNUP/9xEs/4WTFn1tckruDsZA85RDatc8E7cCTd/nIfjc2/95JnODLuci91LD6HbFavv0tFfuEx5HO/AL4BRXrd46yLaS23F6W2yBDpk0+6jQ4dwBvjcurPfyR0jGEbKMyjnGb9AbDRmKXwqkiRIbs7lhE1qwAAIABJREFU2bu7Yjb/Kz3U+BidX0nJTRVSkizyMOvvrsK5cHcYTWu5HeN/kxdyk5hQ+57kdWTYrsjW0dH2cfJtt0D8a+BdRRxtNdW1Sa+KFPGmzJoRGRJzNQnv0i0VvUS1C0OHGLbLl0ymt6+8Zv0BcI7rvlgNFOt+cpHyYPwNx1EJKtSxon1bzmn2f4Wica+HG6hHY9WXYXZS0OZK0mlF+7b02SkJq8TQf7WXPEk4WwHukOR13HmA7nsfSVdk61hX+06c+xA9nIpj7IiMa8zm3Nk+zosQ8ULNf6pZ0oN1SoRbTsPsx0KnGLae3vk4V57/1p6iBjX/Uumcezjxg9T10SjAf/PvuNNPITuR/MIGIO+nnsgGffHHwSW7UcL4BU2fe9RTouHLuG9R4GKSr6w8mY6FO9M0998+YslGLM1uR2bU23DxYVj0TnrsWNwIr4g1umhqCf/QSuRlyrMhka2Vhvub1+Kii0KHGLauhXtQiMtw1n+D2u1S8gBJJAlLvq8+KiS9km/jrPe3uLp+fHy+d7aUfO5ZGluuTR5M5AUu+ZL/yF3lIUhy9S3/IZ/7LnBmwkrVRPHZQC55qArUlR3N+lE7kInGYwM749xEHK/H3CRgN7DJwJ5gETgIs6DpVgqjzw8xsMjmqPlPt/7QATxYRsOcJ0OHGLaBwryynfUH6FujWX8R+E/iCv1xcZr/puzzdOb+iPFOD9UywNV05Ko0WyVeLMvtBxyRsMpzRD3X+4jjhbkrcZa0+QfjHMzaU7/VJqKbfG64V5Juz+D5ZNsx+PlpG6CaApAxoABuw74ne/E/peBxbOBjzJzZFzqIyKuVb1MiW8GtL6FPhMOxhpqaJaFDDFvZ7vV/mQla8i8Cbk3yz6VR8VZimX0DnI/mHyCD4yo6cycz4M5nRvO/PNWVSpThnOQvQ+z71GfX+YjjxVM9v2Fi3UPAbgkr7cny3HHALxNnKm37hg4wohz/pBAfz/QS2KYishE67T/NnJV34+bc18r6kJSe3vmU9QM2M075QhpWj4gkFCdvPDKF4t2ckem7FnjWa03jY2TsbvLtn+GKbHFWLUi6dWdrME5PXCeOvuEhjT/ZbAz4WRlj7jwvdaRE2MOYHcP0efeGTiKyKWr+08xYGzrCsBlPE9nS0DGGrWvhHjhX3rP+uHWpX44okgaDs6LF+Hy5PdgSeuoeIJ+boYcAMiRPjfoAMCFhlcdY1fMrH3G8ykRX42dp5Yfpumi8hzoS3t3E1cfQ2Orj+lWRoinjWUnZMnsaD3dABeHcEuqbk++zDaXc9/oPWh06QHlx82hsbgudouJks1VMGD2eqH88ROOBcZgbBbbhVOdoNMTrsKiAYzVR4QnWZx6ldocnqK9Pz8oW612EqzsPeF0Rqu8CLKWnroV8rpPqwqWcN/+JIowjaeJIftAf7toNM+2lpX7uA3TmfuvhrI1aCgNnAot9xJJgrmZtppE5F5TvpJtUjHJvTmTzyrV5W0VtGV83lYa9/gCubD9+JI0WLRrD6MJBRO5gjP02nOa8B/BGiKuxzKve4YUHn8YrTnuOI6gyKDxj5HNPAI8CdwC34+xvUHVXWR4y2pR9no62WTj37SKOsgvwZfoznyef+y5GB00tfyjieFKuunJvpGDvSVynYKW15P8V7CovZ20Y52G2RCvtytI6cNNpbL4idBCRraXmP9Uyq6D0HphvkbNFnNPi/z7skdLTOz8Fs/5gav4loCVLdqB2/bFYfDzOHQeFvYEM5u31sQN23vDtUADMAQXI51aD3QXuDuBWsPJY7t7U+h062k7GudOKPFIN8EkcnySf+zvYVRSib+hwQHlRgbNJvrX0dma03OkhTXHURNfRZ0uBMYnqOPamc9FRwG+95JIR4n5KpjCL+nn3hE4iMhTl36DIpjl7vPwO+3ePE/V2hU4xbGmZ9QfAHgudQCrMZYt3ZH3fx4BPQt9RQObFa5xG1jhwxwDHDP6wjLZPFfoaqa47EOOAERpxH3A5MnYh+dxNYFcwvu+HTMmW94GzMnzZbARMTVzHuCZ5mCI6p/k58m3fB3dG8mKF81DzXx6Me8jEn2XavBtDRxEZDh34l2ruodAJhsxZrqSu9Bmqsj/h/+Xcw6ETSIXoyB1FPvc91q9/HFzXhsb71ev4ZWvMzK4hHngfMNKz8Bngv8B1s6ruUTpz7XS07TnCGaQUTKx9F8mvwSsQu2s9pCkux5WeCn2MJUt28FNLiuR+HI1UjT1Qjb+Us5Q0KbJRA1UPkymjyRfjUQZGXx46xrClatYfgIdCB5CUy7d/CKwFODx0lFRp+tyjLFtwHJG7CdykAAkmYszFuTl05n4JfJ1xvT/QaoAKYZydeLGM8cuy2EbyRN+vmVj7sId/Z6Oo6/sE0OkjlnjkuAVzS3iy54aSPHxSZIg0859m0ZoH8bhBtvjcAmbO7AudYthSNesPFOIHQ0eQlOpY+BbyuV+BXY8a/+KYPu9erHA0jpB7ph3G8Rjf4am6R8jn/h9LFyS9+k1KWVdue5z7SOI6kSvhg/5eJpuNMa72Uss420sd8eERzF1MHL2NhpZjaGz+gRp/SQs1/2nWlH2+bJZuGw8zoac8vthvzOVLJuNcmmb9YWDU30JHkJS5IltHZ+6ruPg24NjQcVKv6XOP8nzm7eC+EzoKjp2AL1IVPUy+vZNlC/YKHUmKYIApwKiEVdYS91zvI84IuRq8nLB0GMty+3moI8OzEscSovhIGpp3o6n5AqbP/UvoUCK+pWeWUjbO7C6c2y10jC1yjOWpujvpyBVzjH/Q2PKBotROywn/LzD3T2bNejZ0DEmRZbn96OVbI3gQnQDMmbMWOJV828/BLQa2DZxoFNg0oujT5HM34OKLaJj3+8CZxBfnZfb6+sHJizLR1Ho/+dzvgaMS13JuKnBB4jqyNR7A+A2R+zWR/Yb6lkde/JVp8wLGEimu9DQrsgnRHWDvD51iK2yHY7uijuBYW5S66dvrD5HdETqCpEg+9z6gG2N06CgVq7H1Mjrbfo65PPBfoeMwuPLwQ1j0IfK5X2HuyzQ1/yp0KEkg3/5msCMT13Elfsr/xpi7EmfJm3/sdLq6Wqmv709eSzZYC9wN3IHZ33DcSXV8J+fNfyJ0MJEQ1PynnUNLloqtt28eafu35CJ93Igfne2nYXYFUB06SsVraH0IOIlluQ8ScTGwR+BELzgOZ8eRz/2YOJ7N9Hn3hg4kw2CW/KA/eJxxk3/uIc3IKvRcR1XdUkj4gNOxE/3PnAT80EuudFsD9gy4Z4BncKwGHiO2h4l4BKJHiQYepX7+46GDipSSdDUs8lqZzB8o9BuBLstOvcFZ/0+GjuFdXPhD6AiSAoON/9XofJnSMr3lh3R13Ujh6akQfQ7sDaEjbfA+ougEOtraqNrxQs1+lpHu7gyrVnq4757RrFr5J/JF3AJYPH4OWM4wlVQ1/zYFWDnsd4+sh9j1ApCJeyhEvYzfYw1TphQ8BRSpKGr+067+glV05B7AofuWiyGNs/5YgYz7c+gUUuY6ckdhtgI1/qVpsLH+Ol1dVxA/82GMBkrjEMYanPsCA8+8j3z76TQ2/yN0INkKTz1wAs7t6qHS9sDbPNQpX8ZJXHrhTqlZlh67u5neogOERUqEXpRVAodmcYuha+EeQPpm/Z27g/qW/4SOIWVs2UWTcFwP1IaOIltQX99PQ0s3jS3HEcX7YbYMWBM6Fo5DwP5EPlcK5xPIlrjo7NARUqSagej00CFEJJ3U/FcCs5tDR0ilQtxK6mb9gdjp40WGz8wRDVwGjB+hAR8G91Oc5YEvYHwaF51MFB8JdgiZeB+wPcD2II7fDHYIcXwE2AkYH8C584HFwPeA24DyOWXct2nz7qapdQbWuyuOaRD84M/tgR+Rb5sWOIdsTr5tLNgHQ8dIFdPDFBEpjvQ1LvJatbU3s76vAC4TOkpqpHWvP4DZTaEjSBnrzJ0D7t1FHGEN2A8xfkxU9Ssa5jzptbqZozO3O7E7gIjDgFOAN3kdo9QNXrPWBXTRueAdWNQIfJQwKzky4PJ0tI2iqXVJgPFlS5w7FaMudIx0sf3pbD+MhuZbQycRkXRR818Jzp39NPnc/wKHh46SGqnc6w/Ac1SP/WPoEFKmlizZAfouKk5xdxcWX0xf7XeYPbunOGMAzhmDh1OtZPDQrfl0tJ2Nc1cUbcxS1jDv98Dv6Vw0CyucC25agAMCHc4tJt/+NI3NV43w2LIlxtmhI6SS2dmAmn8R8UrL/iuG3RA6QWqkda//oJ/qhG0Ztrq+aQwu1fbpAcxOpWHugTS1XlnUxn9THP8c8TFLTcOcJ2lsWcCTPZNx9jHg1yMfwrrItx8x8uPKJi1fsC9wWOgYKfUJFi8eFTqEiKSLmv9K4equA/NzDU2lS+tefwDcd0InkDK1dGktxkyvNY0uMr0H0tT6nQ0z8hJaNjtAQ+v3aGw5Dlc4ANxlwPoRGr0W7Jt0ZZPdpS7+xJmzQ0dIsR2o7ftQ6BAiki5q/itFw6yHcNFtoWOUvcuXTCa9s/7P0Vutw/5keKrXfRB4nadqBbAGmlqmUZ9d56mm+NYw/y4am8/DDUxm8NDEkTgscTKFui+OwDiyJdlsFZhOpS8qNzV0AhFJFzX/lSQ2zeomld69/gA/DLKkWtLBONlbJbNzaWxd7qmeFFvD5x6jseWz1NRMwuyLwHNFHvF8Ott2K/IYsiUT696Lvwd+sjGO4+nKvTF0DBFJDzX/lcTia8D6QscoW+me9YeBuDIPNJPkurszgK/72Ntoar3SUy0ZSefOfpqm1iwusyfQARTr/JBqLGotUm28bJFbl9qHxC/jzgqdoAJEDLgzQocQkfRQ819Jps9bDU4H/w1Xumf972NG6+9Ch5Ay9eT9hwDjPFS6jSd7v+ChjoQ0eDjgdKJoP7D/Ls4gdjZdF40vTm03kLhENCbd5xLk28aC+VrtI5vj7MzQEUQkPdT8VxorXBY6QllK9wn/4OxyHagmwxa5A7zUMWaSzSZvvKQ0TJt7H42tJ+Pc6cBqz9VrKAx83HPNFyRfsTDAGA85StnHgbrQISrEXixf8PbQIUQkHdT8V5qm+b/CcXvoGGUn1Sf8s5aCXRk6hJQx5/b1UOV2mlr+4KGOlJqG5m9SXdgPuMlz5WI9kE3e/FetT3fzb5Fmo0dSnNGft4h4kdZmRjbLLQVbETpF2bh8yWR6+9I7629uxeCWEJFhMvZLXMO56z0kkVJ13vwn6O4+iVUru4BzPFU9jI7sNjRlfd8y4OGsgqr0LvtftmAvnB3hodI/wN3hoU4Js0OB3TzU+ThLl36GmTN1bpOIJKLmvxKN6/kOq+q+gk7p3Trp3us/QG3mktAhpNzZzuCSlYjjP/nJIiVrypQC2eynmVi3A/BRDxWrcLVHAD/3UOslZmtxST+eU7zsP4rOIPE/eAA3l8bmdJ9DlG/7NLguD5XGkuk5Gfiuh1oiUsG07L8STcmuBy4KHaMspP2Ef+ybnHvBw6FTSLlz2yYuEXGPhyBS6rLZmIHeT4H5+bzj3CFe6ryy5rPJi9g2yWuUoGw2AvNx+vxqxvf81EOd0lZT+11gvZdaOvhPRDxQ81+pRvVeCjwWOkbJS/Wsv/VTXbUgdApJheSNTuSe8ZBDysHM7BqMZi+1zO3upc7LOUve/Dvb1UOS0jNh1DHgJiUv5K7bMBGRbufOfhrM11kXJ9K5aKKnWiJSodT8V6qp2V4cudAxSlraZ/2NKzlvzoOhY0gqJG/+x072vW9bStmEPb4LPJS4jpn/5h98PIh6o4capSfyNfvsrvVTpxy4b3kqVI3F6X1NIiIjQs1/JYvGXg7cGzpGyUr1rD/PU1X3ldAhJDWSz+A9c3ethxxSLqZMKeBj/7Jz/s+usWhV8iLR5OQ1SsyiRWMwH2c12MM0zPld8jplwnpvANZ5Kqal/yKSiJr/SlZf3w+FOaFjlKS0z/rj2qmf9XjoFJIaaxNXiMekc4+0bM6vk5cw/wfrxfwzeRF7S/IaJWZM4cNA8vM94FqcMw91ykNT9nlwP/JU7a1ckjvAUy0RqUBq/itd4/yfAOk/dGeo0j3r/xCjer4WOoSkSvLm38XpXCYtm5aJkh/yaBThSr3Cox6KvImObLoeaBl+Zp1j900vdcpJbL6W/kPG09+DiFQkNf8CNTWzgd7QMUpG6mf9mcXUrP6+xR/Hc4lrmO3pIYmUk3XVqxPXcPjfLlK93sPMPxGu7mgPdUrD0vbX4zjeQ6Xbmd7yNw91yks8+qf4OUsC4DS6uzOeaolIhVHzL3Du7Ptx6NT3F6R71v86Glt+HDqEpIx5OLgttrcnDyJlpeY/Ax6qeNpL/TL12XUYTySuY3aihzSlodpOx8trRqu8WX+AmTP7gO97qvY6Vq18j6daIlJh1PzLoCd6LwL+GjpGcOme9f8PmdoLQoeQNHIPJC/hfMwqSlmpGuuhSPJVJxvjSD477aIPp2aG1s+S/5iByN/y97Jj3/ZYTEv/RWRY1PzLoGx2gJipVPry/zTP+jtm6JA/KY74fg9F9iPf9jYPdaRcZKr39lDlPx5qvJbZXR6KvCEVM7QdbYcC+3iodAszm31sqShP4/f4FfBvT9U+SFdue0+1RKSCqPmXl0xv+RvOvhA6RjDpnvW/hoYWn7MOIi8T3eGnjvuMnzpSFuL4uMQ1nIdVJxsv7KH5ByANN+p4mmWu0CX/L5gypYBZt6dqoyjYKZ5qiUgFUfMvr/RE39fA/SJ0jCB6e1tJ46y/8SADvWqqpHgyO9yGn+XXn9Tsf4Xo6qoGd5qHSv/wUOO1jD94qnQcHW3lO/vfna3BuU94qNRHX913PdQpb87rtgct/ReRIVPzL6+Uzca46CzgsdBRRtTlSyZ7eiFaanqxwieYmV0TOoikWH19P/A7D5UicNeyot3HXeJSygaeaQSSX+8Ye9ibvzHTW/6Gw88Sdee6WJrdzkutkba69n3AOA+VfsysWc96qFPeGub+CXjQTzF3FPm2yX5qiUilUPMvr9Uw50kGBj4O1hc6yohJ66y/s5lMn/+X0DGkApjd7KnSXvTZDam7I72YOhe+n3zuMjrajyObLf2v653th+Fo81Appirzaw91Ns74madKu5EZ9S26szWe6g1Nvv3NmLlhva85P7PL5ip7yf8LnDOPB/85TwcxikgFKf0XCRLGzM/dCswKHWNEpHXW36yLhtYrQ8eQClETXwv0e6p2LFHdb1i+8E2e6qWbxccB5+Dsl0yse4R87mKWLTw4dKyNyi88BrMbgVGJaxl/of6CVclDbULMj7zVcnYSq+pu4LLFO3qruTld2dHk288in/st2D10tO879BoXjQdO8pDmWUb33OihTjoUnL+l/86dMewHOyJSkdT8y6Y1tl6GRUtCxyi6dM7638RTfZXx8EZKw3nznwCPzZJxMHH8f3S0falsl0yPGHf4y36wKzCbKL6Njtzf6Wz/PF0L9wiV7EUr2rcl356D+Gb8LCMHxw+91NmU6rE34u90doD3sr7vL+TbP+Sx5it1tB1KR245hbrHwa4EjgIgs+H7oYgLpwI+Vit8j6nZyr5J6OVmtNwJ3O6p2mQ6Fw3971ZEKlbaGh7x7al1rUyo2w3Hh0NHKYrLl0ymty9ds/6Ou4k4jWx2IHQUqTCRW05sH/FYcQzOfZ6quvPpaLuajF3LjnveypQpBY9jlLdstgrsrRv9NcfemH2Jgn2JfO5POH5AIbqJVev+SjYbj0i+ZQv2wrkm+uxswOdDnH4yhRUe671WfX0/HbkrcbT4K+omgV1PPvdnnC2nYD9k+rzVwy7Xna1h1ejDofBfEJ0Mtv9G387sHUDXkGrHdhY+5pS15P+1jGtwHOSp2JnAb/3UEpG0U/Mvm5fNxixefDaj1o/HODp0HO96e1vBpenfwUPUuJM4p7k4d1+LbM605pvpzN2C8U7PlbfDuenEbjqrVq6io+1nRNFPcHYXtb3/8D6r2NVVDf95IwN2EBEHYHas1/o+7VR7AMborXjLwzEOJ4rbmFj3JPn232DcThTfTcydPNW3MvEDge7uDE8+8npc/xFEvBNzxwD7gpcW8lXc96mf/7j/uq8exi4FdwH+Xy8dirlDidyldOb+CtyGcQ9mT+Oip8E9A4V1AFi0HS7O4NyO4HbGbCec2x1sf1axN8TVg3/EtrnfyDuGlG75gn2JOWTYv7sXh+WfPNnzm8R10iZ215KxHJBJXsxOYfHimcye3ZO8loikXZqaHimW2bN7WLToA4yJfwx2ZOg43qRt1t/cE1RXvZ9zPvuv0FGkgplrBvsDRWn4ABiPc6dhdhoG9NTF5HMPA/cCq8E9D/wHrAds3UvvFo19WY0I2P6lzFaFs/HgdgV2pfDMToDbYj9VEtxhw3iniWCn4DgFc4N/UxPr+snnnsLxb2L3byJ7EnO9wOCDROM5XDyAcw5zO4BlwG0HcS24NwK7sWrl64kYbESL++fWT6aQLeoIL2hsXUm+/Uqwc4s0QoRxMDB4RoN74YPOePGfkNvw/wYv/sHakP+AJ3NJ+y7MaN66rw9x5kwvf4nGt0dslUk5mdH8L/K5XwA+roHcntq+DwE+rxEUkZRS8y9bZ86ctVy2+COsX38TcGDoOF6katbfPUUN7+G8z94bOolUuMbm/yHfdg24M0ZoxAjYfcM3XtmwvPz5w2YaGffqty0jMYd5il4N7IKxC85e2WjCS39Gr/j5lzWoI8mxjPp594zYeNb/JVzV6UDdiI1ZDFV2FNC9xbfr7s6wauXpXsa0SEv+N8W5azDz0fyDi85Ezb+IbAUd+Cdb79zZT9NX+27gT6GjJJaqE/7dv+mP3st5zX8PnUQEgIybATwUOkZFcBy+5TdKlfvp782O6IhNn3sUWDyiYxZDbFu39P/pB9/F4MGRSf2Nprl/9VAnnZ6Pvg+s9VPMTqDrwtf5qSUiaabmX4Zm1qxnWZs5EfhV6CiJpOeE/0fIuOM4f85doYOIvKi+5T8YZwA6dLKYVrRvC+wTOsYI6iHiY8zMrhnxkQdGfwnsjhEf16fIbd2p8IX4LE8jXuupTjrNmbMW7PueqmUYyKRkQkNEiknNvwzdnDlryfR+GOyG0FGGJS2z/o7bydQeTf3cB0JHEXmNppbfYZxDGeyaL1u9HELlfB0vYDaVaS2+rkgbmpkz+4jcmcD6IOP7YBy04YHRpq1o3xbnfNzuYzhT878lxjXeakWc6a2WiKRWpbxoEN/qs+toaDkF574cOsqQpWHW37mb6e89nvpZxT/tWmS4mlquxrmZoWOkVmSVsuS/gHNTaWr9TtAU01pux3EWUK4H2GXo54jNvsX6+BTYqtsjtuT3NLQ+5KFOuj3V93PgMS+1jAPobNv4tZ8iIhuo+Zfhc85oaP4yjvPB+kPH2SrpmPXv4ImeDwZZ+ioyVA3Ny3A0oi0A/hmHho4wAp7H3BQamr8ROggADS3fBmsJHWPYCvHm9/2br4M6TQf9bY3BmxA8HtTnfG3ZEJGUUvMvyTW0dGKFE8CV/ix0ec/694I7j8aWWWSzaqSkfDS0dGL2PuDZ0FFSxTGca/7Kh3EP5g6jqdnXvmg/GlsXgZtHOW5p2dy+/8623YBjPIyyntiu81CnQmT8PdgyPkFXV7W3eiKSOmr+xY+mz/2BzMAROG4JHWWTjJ3LeNb/Pgo176Cx+arQQUSGpan1JmzgQBw/DB0lFS5p3wXj9aFjFMkAjiXQeyhNJXqLSWNzG45Tgd7QUYbEOIJsdhMPwKMz8HN348+YPm+1hzqVoXHOHR4Pk5zIwDMneqolIimk5l/8qZ//ONOaTwA+i5XkoUjjKcdZf7NvYr2HM2P2naGjiCTS9LlHaWj5EM4+AtwbOk55s3HAg6FTFMHvsOhQGlpm05R9PnSYzWpo6cbZkUA5XWf3OONGTXzNz5o5zPws+Tct+R8yc/5m/3Xwn4hshpp/8cs5o7HlEuKBY8H9I3Sc8uaewtnHaWqdWvIvgkWGoqH1esZP3hc4A+Oe0HHK0oyWO2lo3gMXHwV0AqtCR0rGfoOz42lsObqs7oZvaP0/MmMPA+YDPaHjbEI/uOvATqCheS9mNP/rNW+Rb3878CYPYz1HVd+PPNSpLLG7Fih4qWWcTL5trJdaIpI6av6lOGZ87n/J7HAw2PwSXQVQ6r7HQOEtNLReHzqISFFMmVKg8f+3d3chcl5lHMD/590km1TbarOlMUTMhxXqhdTa3igVqRQtBQsisQqCUmHJxgYaiUkqyFxIyUdN0Fg1QqlIvakVQfCrNOZGEWIJRVpRatpVaNlkk1Rr06TZnfd4sVup2NqkO7s7yf5+MMzNcM4zwzAzz5n3/M+2BzOy9b2p5aYkD6Z/m6fz0U3yl6T8OKV8LaV+MgPNu3N04k89n6mUmg13/y4j20YytHZFam5Mys6kPNHzuWbHiST70jYfyMj2j2TD9t/Md0FvyvDwREa23ZParE1yb5J+WKx9MSUPJ/lcUq/KyNb1Gdn+aEp5vZyCXv1b/NMMd17q0VgLx51bn0tNr97/g0k+3aOxgIvMhXcJNBeO4eGJJLvzzd2/zJLuvtT8/5RhkuSp1HpXNm5/ZL4LWTAGByeT070Ip+rPvcn9bqoZOZjkYL7V2ZjFgzenlluS3JJk5fwW97rGU/O3NBlNW6buU0bTbZ/J2SVPZ/PmuV/EWL++m+S307dt2bd7TRa1t6bWjye5Mcllc17Ta3s6pf4qtfwik5c8mk2bXp7vgnpm41fGkmzJt+/Zkab5bJJPZCpAb64C2EaT8khSf5ZlZw7kC51zzyNo0qSWmX8ONt3vzXiMBavuSZpehaJeMeMRav6e0oP3RJlwMtFcappDqVkyozFKO96jauhDvQh2gXPznR23JtmbZPU8V9KPXkwpezOxbNdF9WMYZmL/rnVp2xumj7S7NilXJ3VVZue7659JxpJg7mTkAAAEdUlEQVRyPKnjSTmW2h5N0xxP244nzVhqPZbTA6PZsuXULMw/ex56aCDHj1ybmg+naW5Ire/J1CXes70g8HxSn0gpj6XmsdR6KBu3/3WW5+wv+3dcnsny0ZT2+qR5f1KvS/K/e+7P3+nUPJnkj2lyKG09sOBeWwDOm+afubVnz7IMnt2YUr48HVi10J1JLd9Pt7szm+620gpv5IHO0pxaui4DWZWUobR1KCVDSVmcWt+WUv77e63mXymZTK01yfMp9WRqczKlnEi3PZlFkyezfHI86zsLb3vSfbtWpOTqpLsitbkyTZanbYeSLE9pliT1lX3DA3n1QkEtZ1PqKwsgL6RmPE09ntocT6ljaeuRDA4eyRc3n5zjZ3Rh2H/vULp1ZdJ9Z2pWpuTKpFyWqa2Yl//ncbXWlPKPpG2T5lhKHUttns1AnsvbV49OX+0BAOdM88/8uH/npTmbTanZ9KofmAtIfTmpD2RwYEfueI3wJQAAgB7S/DO/7uu8NWXw9qTcld4kDfe7F1LrD9MMfiMbNj8738UAAAALg+af/tDpLMpVg7elljuS3JSL7ySKx1Nyf9ozP3JsHwAAMNc0//Sf7+5dnfbs55P6mZSsme9y3rwynnR/krb+IF/66uH5rgYAAFi4NP/0t31fvz4Diz+VWm9Lybr5LucN1XI0qT9PqQ9naN1BgUwAAEA/0Pxz4di/a11q/VjaenNSPtgnQYEvJflDSg5kov46d257fPrccgAAgL6h+efC1Ok0GVp6TZr6odRyXZryvtR6TZK3zN6kdSKl/Dm1Ppk0h9N2f5/Fyw9neHhi9uYEAACYOc0/F49Op8k7LlmTiYm1GRhYnba8K6VdlZQrUspQah1KyvQZynVZkqVJnUiaqQC+mlNp6onUjCc5kTRjSTuaZDTNomdSLn1Kow8AAAAAAAAAAAAAAAAAAAAAAAAAAAAAAAAAAAAAAAAAAAAAAAAAAAAAAAAAAAAAAAAAAAAAAAAAAAAAAAAAAAAAAAAAAAAAAAAAAAAAAAAAAAAAAAAAAAAAAAAAAAAAAAAAAAAAAAAAAAAAAAAAAAAAAAAAAAAAAAAAAAAAAAAAAAAAAAAAAAAAAAAAAAAAAAAAAAAAAAAAAAAAAAAAAAAAAAAAAAAAAAAAAAAAAAAAAAAAAAAAAAAAAAAAAAAAAAAAAAAAAAAAAAAAAAAAAAAAAAAAAAAAAAAAAAAAAAAAAAAAAAAAAAAAAAAAAAAAAAAAAAAAAAAAAAAAAAAAAAAAAAAAAAAAAAAAAAAAAAAAAAAAAAAAAAAAAAAAAAAAAAAAAAAAAAAAAAAAAAAAAAAAAAAAAAAAAAAAAAAAAAAAAAAAAAAAAAAAAAAAAAAAAAAAAAAAAAAAAAAAAAAAAAAAAAAAAAAAAAAAAAAAAAAAAAAAAAAAAAAAAAAAAAAAAAAAAAAAAAAAAAAAAAAAAAAAAAAAAAAAAAAAAAAAAAAAAAAAAAAAAAAAAAAAAAAAAAAAAAAAAAAAAAAAAAAAADD//g1NiK5dl7SgcAAAAABJRU5ErkJggg==;" parent="EXpLw-7ZhNTg4ZC5dxBc-30" vertex="1">
          <mxGeometry x="400" y="180.00000000000003" width="163" height="58.8" as="geometry" />
        </mxCell>
        <mxCell id="9nxXd0zsK4Rgzzkij1yP-2" value="" style="shape=image;verticalLabelPosition=bottom;labelBackgroundColor=default;verticalAlign=top;aspect=fixed;imageAspect=0;image=data:image/png,iVBORw0KGgoAAAANSUhEUgAAAKAAAACgCAYAAACLz2ctAAAABGdBTUEAALGPC/xhBQAAACBjSFJNAAB6JgAAgIQAAPoAAACA6AAAdTAAAOpgAAA6mAAAF3CculE8AAAABmJLR0QA/wD/AP+gvaeTAAASNUlEQVR42u2deXwcxZXHf6+6dVm2BcZmDThgQLZsBsuaqRk5sgOMYTkWQliITYDlCscmBhISwk2AhDhc+4GFhGOxuUwCyweHKyyY7IbYHLaRNN1jwyrIwhIGY1jA+EBClubot39Myx6LuUeHMe/7+fjz8XR3VVdX/eq9V9VVLUAQBEEQBEEQBEEQBEEQBEEQBEEQBEEQBEEQBEEQBEEQBEEQBEEQBEEQBEEQBEEQBEEQBEEQBEEQBEEQBEEQBEEQBEEQBEEQBEEQBEEQBEEQBEEQBEEQBEEQBEEQBEEQBEEQBKFYfD7ffK31xmAwWC61MXSEtB7x5qGH/sNQ3pMGK+Pa2tpK0zSPBTADwMEAqpRSnwNoZ+YVpaWlf1u5cuW2/um01iUANjDza7Ztz/m6NF51dXXZmDFj9o3FYmOUUgYRjQYAx3EUEZlEFAGAWCwWIaIvmXnbiBEj1i9fvrxzmEVX4nR1/QHAsQD2ALAtGotNnNXe/ulQ3N8c6Ay11tMAXAbgBwAqks8x8/b/RyKRLp/P97hhGL9vbm5u2d4jiH7EzOMALBrIjubz+WYopY4CMIOZJwHYB0BV0jW9AN5n5rcBPEVEz1qWFc3heX0AFgM4KB6Pg4jAzDs9a/JvpVTfc6Knpwda663MfJ5t288MhwC5q+t4t636qCgxzUsA3PC1soBer/cAwzDmM/MZAFQ+dcDMLxiGcVssFtuglFoNoGfUqFETli1bFiumTLNmzRrV09NzMYALXCucD2uY+XLbtv8r24UNDQ0Vvb29RxDRaQBOB1CaQ/4vEdGT8Xj85XA4/NlwWcCmyZNfANF3+x3eVGmaB3haWrq+DgJUWuvLAPwGQLEx2xbXDdxhWdblhWYyd+5co6Ojo68XjymyTPdt3br1srVr1/bm2BGnK6VWABiRocfdbtv2VcMe83k8+zuxWAcA4yvCIPpJoLX1nsEugyom8fTp0/fTWi8D8G8DID644oNS6pFCM6ivr5/c3t6+EsBdAyA+ALioqqrqtRkzZozO5eJwOLwawIuZLH5JScmdu0Lc6sTj81KJz+0kly0NBs1dVoB+v7/eNM0mAIe5h2xm/ldmnmRZlmFZFgEYx8zTmfksAA8B6MjBH7+aHBPmWabT4vF4iIgCfdkRUQjA/UT0SwBXA5hPRM8AaM9H19Fo9Gl3gJTdrSTumY4NjY2Nnwy3+FZMmFAB5vMzXHJg5ccfn7JLDkL8fv/RzPy8O8hwmPkXtm3fDYCTr7MsayOAjQDeAvDHPuECONuNFfdM0Xj3FhJK+P3+G5n5Bjes6AZwn+M494TD4fczTPdMJaLzAZwDYGwWUf0jgJsBXJFDeT7IcG7drmD9zMrKcwGMy3LZ5QCe2qViQK31bNfFVLgW6+e2bd9VyACht7f3p8x8WZKr/AjAxFxGn8nxXnt7+wIiOq9P98x8mm3ba/N4pipXXD/O4hUizOzJlrfX6z1KKfXXNKdftCzru8MpvqcA44DJk1uJqNo99CWAypQCUeqYwDvv/M8u4YLr6uomAXgmaXol7Fq+vFm+fHlnKBT6LYCDAMwH0EVEC/MV33vvvfdokvgae3p6gvmIz7XUWy3LuthxnNkANme4tJSIrs9aqUp9miHE6Bxu63dATc0pSeJbQszz0geKzjW7RAwYDAbLDcN4tm+g4Lqlh/u73XxxG/96ABMMw8grOO/o6HiYmc90f3aapjmnpYipg3A4/BoRHeWGDek4yePxlGYRYKZplehwC5ASrhUAeuNEF/nb2v4I5jdTdhhgdtOUKTOHXYCdnZ1XAPD0i4saB6oglmVtbWxs/CKPOPRKAGcnWZbfNTY2flj01EQoFCaiEwBE0lxSVVZWNjtTHt3d3ZsyxJI8nOJrnjIlCKDeLcyDDa2t6whgAm7KINhrh1WADQ0NY9wR5M5dORrdMhyVqLX+DjPf3O/w4wM2PxYKNQG4PYOIPJnSt7S0ZLJyznAKkJmv7LN+Tix26/YO3db2MgA7TZrjmyZNqhs2AUYikTORYmLVNM09C7lpQ0NDhdfrPdzr9U7PN+3cuXMNAPf0m7/qtG27dSArpry8/HYAnWkaZEK2dgYQT5N22ATYXF3tBXCcW46F31679sMkK8cE3JLWCCp1zbAJEDvm+vpXpi+fmwWDwXK/3/+rSCTyqVLqVaXUKq11i9/v/16uebS3t88B0F+4m4qNRVMNkgA8m8YC5tLx4rucCzaMvmmqSBy49SthzZo1zwBI15HnNNfU1AyXAMekEWDOwvH5fNWdnZ0rmPlGACOTTh3CzM9rrZ+qr6/fK4eszkhxrGJQgnWi19Kc2ppD8tiu5IKbDjnEw0Bfez02s61tQ4pYzwHwu3RaYeCq4RJgc5oGOtadmskmvlPctwPeTN41Ho83+ny+qVlEcUSKw+NyfVWWZ7y0Ps2pTYVawOFywRSP3+i2txN3nLSzDWrkyEUAPk9z+syVU6ZMHHIBMnO6d5vKMIzbMrhcU2t9BxH9CTsvfUrHwUT0el1dXcqHnDZt2p5p8qFYLHbkILTbxjSd4N0c0jq7igteOWnSVAa+7/58tuHdd99JO7tgWd0EPJjmdIlynF8MuQBt234dwNtpTp+stT4j1cj5iy++WILE2kBypzWWE9HKLG5oL6XUU6nKZhgGZ+gkZw6CC+Y0x9/IIXlZmuPmUAvQUOravvok4N+zGpxY7N4MMez5TR7P+KF2wdne0T7g9/sP3d6L/P5DI5FIs/v+lJn5AcdxJliW9Z1QKDRTKaUBvJvhXgG/339c/+OrVq3aAmBbmjQnaK3HDmTDxePxVCt83m9ubl6frboyCLBkKMUXqq4+GMBp7s82/5o1K7KlqW9vX09Auvi3gmKxnw1U+XLujVu2bHm0qqrqagCp3ONIZv6z1rqemQ9n5kXuQGMLM59t2/YLOwWUzc2rvF7vLPd9aW0ai3YqgJdS1WmaUXk5EmsS5w2gBdwnxeHFOUwzlUciEdoVBBg3jGtpRzu/3VRTo5uZNwFAT1nZTq8dK7dtM+NKjXKIxnCGRRMMXPT6tGm3Hfb225uHzAKuXbu2l4huzHDJgQCa3HhvJIDVzBzoL74+wuHwZ6ZpHgMg3duLmjTCfDlDGS70+/3eARTgQSnu/3AOSSsGotMXbf08nv0JSA5Nvk9AMxO1M1F7WSSyKflfzDA+ZaJ2Sgw6f5gh61Flvb0/GVIXDAAHHnjg4wCsLCIkAE8AmJltUUBjY+MnjuOcm5fJNs3/TBefADCYeWFDQ8OATMsws+536A3btt/Jlq67uzvT/YfMAnIsdg12bA/4goDN+f5DuvlVop+2eDwjh8wFA8DixYvjgUDgHMdxrDQxDhPRTaFQ6NfIcWI4HA6/4q6qDvazPinX8TU1Nb2ntf4zgJPTZKl7e3sfRmK+kIu0gP1dfU4bdQzDGHYBvlldPYF3WLENlaZ5kKelJZL3/GHqPSMAsFd3LDYPidXwQ2MB3fitBcB1KU71EtE5oVDoV/k2PBE9/ZU5DMf5S9pCK3VLppE0EZ2mtb6umIrxer0NAPZLOvScZVlLc3yeQROgz+c7MRAI1OUw8r2yz0gQcHch4gMAVuqeDLHglW/U1IwaUgECgGVZd2LnlbK9juOcEAqF/lBIfo7j9B8Rd0ej0ecydIJmZl6YJdub/H7/zwuuGKXOS/oZYeYr8kheNRgC9Hg8I4lokeM4/oxWy+MZz0QXuD87zd7ehYXes7619b8BtKU5PbakyEFfoXtCGIk9Hn09/o5wOPxKEeXo32B3vp1lhFVWVnYtgEzr7oiZ79Ra973/zL3S6+sPRNJSLwDX5LnIdVAEWFFRcTIS2xgy72eJxa7CjhXri7zr1m0pOAxJtPW9Gc5fXkwsqAov1471Y47jBLXW+xcRax2f9HN9T0/PbdnSrFy5cpM7UotnufTXWuunZs2alZOrmDt3rhGLxRb0Be/M/KRr8fMZvOyR4XRlEYOiHwJAaWnp6rTeYfLkgwBc1JfEYb6v6JFqNLoIiWX7qRj3ZTR6yZAKUGs9B4lPbvQJaCaANq31c36//3RPHj0iEAgcgR1TBRFmPjXXVc2WZb3IzJfmcOmcnp6eFp/Pd0oma1hbW1vZ0dHxmDuBDgCrY7HYBQV0qEwWsKCtom5MOhvAZ27nSy1SopuTRr5/y/TaLVf8HR1bCXgywwNfHp44cY9BHwW74isB8NtUXhHAScx8Unl5ebfW+iUAfzEM45Wmpqb3+l8cDAbNrq6usx3HuQs71vZdatv2m/mUx7bte/1+/wE5xGjfIqKntdbvAHjYcZzlpml+opSKRKNRDxEdA+As7Ngp1gTghLfeeuvLAQgpksl7DWV1dXWZUureTLMDrvWrZ+DUpEOPYKBgXoDEDsJU7BUrK7saKRYt5+JK8x2FXUxE+e6YX0dErcz8CRFtBrAPMx8BYHyS1bgqFArdXmj9aK0vBXAH0my0ztOCvRyJROYUKD5orW/J1BiGYYxtamr6PMeBR2lFRcVjzPwD1w0/ne6jTU1TprwK5sO3uzfmcf62to0DpcGmmpq3AExLc7pHmWaNv6Xlg0FzwbNmzRpFRIV8tGYiMx8H4Bxm/plbmX3iizLzJcWIz3XHdxPRici8qy0bPQBuYObvFSq+HCwg4vF4Ltsyldb6mPLy8hV94nP5II34zk0WH4CIbmv7HAMIMT+d4XS5E40+yHlqKi8XHI1GxxLRYldMBw/AM7Urpc5vbm5+dSAqKBQKLfF6vTXuR5IuyLODLSWieaFQaE3x3or3JMroXBZorY8lolWO42xJmvqpdBxnvPsK8HAAe6ewzh/1P9Y4Zcrp+Opgo7SppuY8rFnz0IDUbeIzbmOyuI6jm2tqHgiNHHmp37K6B8UFJ7niagCzlVKHc6Ln5TMKXsfM940ePfr3y5Yt68Eg4H427XIk3pik+27NVgDPE9GCUCi0vNB7BYPB8q6urmMBHO+GFjUYPP7FsqwntouvpuYxSsSu6UTxdzDfU79mzf2F3rBxypTTifk3uRodZl6rHOfUwNq14UETYH/q6uomKqVmEdFk1+Xuq5SqZOZSt6E/QWKBwgrbtpdjiJamNzQ0VESj0RmO40wmoj3dNX7/5zhOy+jRo1cX+wm4QCDwLcdxHnUbZ3Qhg4w849PZoVBoGQC0eDylX8bjYWLeBwA4MRAcASBKQJd7bDOIVte3thb0nZelwaA54uOPlxIwlVyPwokO3f9tTye52xCYOQKiBfVr1twwZAIUvmKBR0Qike3vy03TrDBNs+gviG3evHlDrp+K+zrwjRBgdXV12ejRo08nojoA3czcEo/Hl61evXrDUJbD5/NdqJT6ezHufnfD3N0fMBAIeBzHeRbApCQ3BtM0WWvdBOBPjuM8EQ6HPxqC4tS6g6MZIr1vgAX0er0NSqmX3dgsEzEiWgLgoZEjR75YbFyYDr/ffxYzPxKPx8e62wu+8ajd9cECgUBAKbUkB/EBgMnMJzLzc52dneu11rfW19dPHoQBRCsAo6SkZJJIbzd2wVrrsa7brQKwlJn/wzCMD+Px+F4AphHRPwFoQOq3JuMBXBWPx6/UWi8lovuZ+fl8PhuXDsdx+jr8CJHe7h0DPghgP2a+zrbtW7DzAtkXANxcW1u7t2ma5xDRj5B6fosAHMnMRwL4yO/3L4xGowuLHLh8GwBisZgp0ttNY8BAIDDTcZzlAOa73x3MGob4fL6jiejHAE5E5nfJMVfAj23dunVJPtMhtbW1lSUlJf+LxK7CqZZltYr8dkMB+ny+OwF027b9y3zTzpgxY0IsFrsQwIVI/CGbTGwmosVE9ITjOCsyuWiv17uvUupxJPa9fG5Z1t4Y5s+0iQAHiblz5xqLFy+OF5OHu+Tsn5FYbh7MoZ66ATQy8wql1HoAG5m5h4jGM/NhAE4B0Lcg9nrLsuaL9L4B0zADZFGnEtE8JJboVxWZ3UfRaHRykSttRIDfRNw/vngGEV0EoK6ALHqY+Rj3OzuCCLBwvF5vAxHNc78lncsS+8+UUmc0Nzf/VWpPBDiQKK/XO00pFSSiQ5h5XwD7IvGXBHoAbADwmuM4DwznHyQUBEEQBEEQBEEQBEEQBEEQBEEQBEEQBEEQBEEQBEEQBEEQBEEQBEEQBEEQBEEQBEEQBEEQBEEQBEEQBEEQBEEQBEEQBEEQBEEQBEEQBEEQBEEQBEEQBEEQBEEQBEEQBEEQBEEQBEEQBEEQBEH4evL//i3txZut9EgAAAAldEVYdGRhdGU6Y3JlYXRlADIwMjMtMDYtMjVUMDM6NDA6MjcrMDA6MDCMzKvPAAAAJXRFWHRkYXRlOm1vZGlmeQAyMDIzLTA2LTI1VDAzOjQwOjI3KzAwOjAw/ZETcwAAAABJRU5ErkJggg==;" parent="EXpLw-7ZhNTg4ZC5dxBc-30" vertex="1">
          <mxGeometry x="330" y="390" width="100" height="100" as="geometry" />
        </mxCell>
        <mxCell id="9nxXd0zsK4Rgzzkij1yP-4" value="" style="shape=image;verticalLabelPosition=bottom;labelBackgroundColor=default;verticalAlign=top;aspect=fixed;imageAspect=0;image=data:image/png,iVBORw0KGgoAAAANSUhEUgAAAMgAAADICAYAAACtWK6eAAAABGdBTUEAALGPC/xhBQAAACBjSFJNAAB6JgAAgIQAAPoAAACA6AAAdTAAAOpgAAA6mAAAF3CculE8AAAABmJLR0QA/wD/AP+gvaeTAAAAB3RJTUUH5AgKEzEOIUlvDQAAgABJREFUeNrs/Xe0ZslZ34t/Kuz4xpP7dO7JWRrlgAAJjCQkAUIkmyDAYDDGPxuwCdfGBt/ftTE2F4MTxmBMRkIEgUBCCQmQNIojTdDknp4O5/SJb96p0v3jbUbTM7I9AqQeSf1Z66xeq88+u2o/Vd8KTz1VBZe5zGUuc5nLXOYyl7nMZS7zmUNc6gx8rnLLLd8D+2+Btb+/4kmmUsryjg9+76XO1mU+ReSlzsDnKll+hPiq/xud9w/HWfqDccSVHP85vusbf/NSZ+0ynwKXBfJp4v23/QhZ5uktrdyhNFES+9/+ooP26zp3DJJvuPU/XersXeZJclkgn0b+/M3fzOD0/c6Xs59tHJtlXfzSDbfon/m5F3WvCuEX+MWv/INLncXL/B9QlzoDn+vU7os5dM3KrA7xbYuuWb+lcV/xOw8OX/T9/7XauQP30MG1Lwwb5952qbN5mf8FlyfpnyFedfxf8fSrj+X3nz1768N5/Kpap1u4+q04dz6Jw0DK2N/2vu+/1Nm8zOO43IN8hrh/+KcUiy8ww1h7L8NrUOoZUvLlwYcbahf+zFjbbJ9/x6XO5mUex+Ue5DPEa74tcPKunyaK27IqtnOls75Os+86fOPh68PU3/2MW9fP33/HuTdWjd14w29+3aXO7mUuoC91Bj5f+J1ferQt8i9+0U9MP3ymNX32jenvDTanK2ZY3XpKit1R4W87G6/sHYN6eemn+fDe913qbH/ec7kHuYR84Qt/geA52tjqh6M4vtkstFr6QPecKOr/cvo3Tr7l0KuOh/f94eXe5FJy2c17yfh+plXFYDo+L6PknT4RAx9cGbK0UsfXr7jmJ192MP/hr9Uvf3dzqTP6ec3lHuQSk6Y/zNNfeCXj7f317PjhH0ivWX8BhxYWqoW2L44s/WG23P5JPPsfeUZ8qbP6ecnlHuQSU1U/wXhvzKvf/oObqnY/5/fL3x9ujP6icPYDh1bkoQNJ9SXX9ZvOu7YDL7x781Jn9/OOyz3IU4ilr/o1vuD3vpG7f/RDXz47JL+7e2V0zc2LWbcfp/dkcfKjOsTvLXXDz129eqmz+nnDZS/WU4hetsAH3jyhtdK5w/f0+52sGhdslSu1tZKogy9eTBeu6/ZGP+K8P6Yud/6fCS73IE9Bll3g5/78Dn7/+KH1pXLyHc/LwrMOiujwCRmHXpS8ac/Ln40l+5GoWFu73Jt8OrncDD0F2VWCPziwzH0TsbeW+FNf1C5ax3xJ8GL/YeuP7BGuP7TWkateMQjhUmf3c5rLPchTmBA2gBUY39H6aHXoS/54Ip/7gUF55LWr3aUV9F5Vhd+7AvdmL3R11dVthPg/F2cIAR66C5TI8f4GiuJ2hHTipudc6s99SnJ5DvIURoiDfGSwyx3718xu6tjBpClfuCDD07FNmBiKthEnmjSZtfd23vqx0+2L/jacP0+YLYPw0psGoSKvrkrgP4J/ESDUC4N1/0aG1rdDuCNwubX8ZFy2yWcBbxpWvKKX8P2PjBduFOLWW5T6wu29qn08iOVBINy8ID7grP7dxbVs69THDSeemxHubAizbRDiJt+Yp1OL35Rp5IT0oOLUNoNf8rb+BhnkL2iTfG/A1uKLTiDS9FJ/7lOKyz3IZwGv7M8r7ccfng58kB/o6ubL1nTzraoyC2UZrEvjL1chvva295Q/mmZiAoAtcdMZQutnu8b8hNLaiGuPvs597CQiVC9w1rw0NBZv+ToRhT/0iD+Qb77vUn/qU47LPchnGWE0Ae3zYsfdKmz9/IDvpllibIiFb8Rples7N6r4Y3ld2pVrWth3P/QfbVV9r/Sc1ir6dhl1/txM93+paeq/E4xDCtDd1rvj5d63T52Pm9JdoRq/PhmMs6mTthZ6JyymDx88snpydbk9oiaIY58/1ebz50s/hwiTBgb7kMSvaIazfz8cmeOVE8p5IU/JZOOU7vz4t1/f+h/hI2fapir+yDrzouADOPGxSOn/6YT756ZullztUFqiuqkhS+5rIr0w2CuW7KSO8U6Oax9Gtbf6YG/UX+/dlxX+zfmo/J1Dve793hivvvTwpTbFp53LAvksJISAu3cbFYloNHJftNvwGlvbJW/s7v1On13t56eeKe1DcjS4whr7H6xkNQDUNkghKq9l6gIiOI+UApnH1ELg4ojB7gxbNEgpmTSOKo0JK12arkZXTVjarR9e8fxCS8e/4L3bESpj4RVHLrVJPm1cFshnMeH//nXCV78KsT95mRP2R4I3fazNQKQu0PLOZT6EjBAQAoILWClwSuEFeB9QSqK1JACl8UwKS+0CjfOUUiFWu5g0oWnHOAz5TsnS7tgtSPWOhcXOj7z/jR/7yBe/9vnIm5cutTk+LVwWyGcx4c/ehJc3IwJtp/y/dmX1PaFslAOMkHgpUFKAcchYYRzUgJUSnWjiRBMpiEKgGZWUFsZCMrKBwoPOYlw7RsYRjVTMVECbhnR/wooVrCX63k6Q/zRdOfBmiqkTz1+71Cb5G+eyQD4HCO95BCK9YIeT/9dW9WtrEBMHDaBjRTAOqSSNhzqATzQi1iy0I3Lv0cbiA4wqxxTJLIBRChVJoghEJNl1kqGQKOlIG09qAkuzinzW7ESt7JerbvdX1XUH7l2LXfNHtyv+9os/N6rW58ZXfJ4T3nAnTVujjP9WK9x/M1rGW01gYEFIQaIlpnEgQScRPlE4IYkFdPFIYxFa4aRkWlqiTAMCGxydRYHVnrMTxUBovA+0gqapLH5UkQymCClDtr6wMQj6zx8u/dtsv/O+Rwrz8IGTD1RnnvsF/Jdnf/ZWs8/enF/mUZpfvA0CJ2zEG2hHzwidlEk743QZ8LEGLalqS6IkrUgQCQCBAVRjiJ2nqSyxBNc4et0EEQI6l3TXNSYOPPhIw36jCUKTIvDM5yxud0ozrWgQFFLhF9vuvA2bG2X40HkRv6lIW2+dnlg6m+278OYv/uxbdrsskM9y3P/4AFJHcVXO/t/au3+gl1uIbsYojdlOYibtmFoLlIfUC7Lg6eJIpKQC6tJixg2iMkS1oZtr2nmEUhLVUlS6ppKare0GZEIIAhUCNnimXmBNQNSGalpTSEV7tcOZYc3DE8tmHNtTXt236+SvDCS/uv7wQ5t33voCyldml9psT5rLAvksJvzx/ZRnNokWe1/fTGf/3YXQkf0cmUVMlGTUz9jraepUoRtPx0lyL2iHgPCGIBVF6bAzSx4CKYE8lighCAKsFgzrisoovIN2OyGNJU1tMRIKD5MKvAdlLLujmpkJjGYNY605pWJumxmaduKyVL7/6sXFf/naJn/ne0Xt/9nLFy61+Z4UlwXyWUo4XePPnkfE0fVmf/Q6Ny1vJgSIFMQKowJFrtlrCepOQitEdKzAlA22cQjj6GcZWoASoAUIFyB4hPD4IDFeULuAALQUJLlGJYbgJUQJTeOZjGqmFmRwFDPHxqBmMmvYrz0PNLAZadpLOWvdlONJtHkwTX7kaWvLv7o5m/lbn97+a9vh081lgXwWEj6yjYsNUqRXu7r4GVdUL6e2hNoCAZFHkEhCIhhLQ60k2kXYxjNTYKeOTulZTDRJJhGJAhEgCNAKQmC+VUiAswRvQApkrObRe0IDAXwgOEHtwThPMILtvZLxzFAUlgGCJk/ptpJpouROKv0xodR+rZPvfmG//p3XndJ88ysPXWpz/m+5LJDPMvzH9hCLi3L2yJkvRbh/rZV/JtbNxzkeCAERSUhBJHLem1SWxsKAQJ3EJGNHd1yTC4dMNSKNEZEALUFqEGL+vuABhxAWlAQdIZQgBDnvaaQlIMErcAJvAnVp8QhEgNI4pg7iKH4nUev7J9a8aiztd+zqqKra7ddouPvV17YutUn/t1wWyGcJxf2B8xsbCKVbMc132qr8IR3cgW6qiIRHyABKQQC0QMQCoeeV3lvH1DkGQhFHKfmsIZvWyLKEKEKm2fxvEgH6gkCcA2/niUuBSORccAKwnuAlIg4gNKG5ICjn5s+LCEIghIC3AeHEVGbJv5gudv7Tx0f1VdNUfzep3lXa/oSzmO5yi+c/ic1el4KnZq4ucxFbD5VkIdDAsfHe8F8Uw8nf8Y1NUxFY7sS0Ugk4kAGERGg17xGkBymwEqamYdJAaT1RZVnyCaq2aCFQkUZECpEAKhACCAQiCEIQCBUQGZ8QiAeEAikgyPnQTLr5jw3g5Fw4QUJj8ARmKhoXrda/0v3uf3koCQbjjzvvzyqoHswjXntZIJf5q/Dht28wGBi5sKhetL6e/ptYuucNz48EZj6s6rcSOi2N8PV82iDnFVdEYd6DSInFUrqauoSp1UyNRzeKuGhoG4d0ju5CG5Ur0B4vLGiF8hH4C+LTBhFJRBrPeynvL8xZJCKW87SdIxgPTgGK4AJ4i8Mx8oIyzisRZ7/d6mX//8Fgcv/BA4u04qf2sQiffSs3n0ecet8OcRzlkZi8tqqKfzbdrQ/1c0U3CYgYrBXEsUDoMK+0AoQI82ZPCogEqADOEEQg6eaIKsLUDUZ7glS40pAIhYw8CIlMNSrVgAQDwQYICqILoguWYC2Iv0xSgY8JlvlE30DwAXDgHSiPFJCJAN6mU1N/87Tkxl4n+4FWLN9VF44kf+rewnG5B3kK4seOMx8+TafdPjyp6382ravXYk3WTRRZJEhTCcKgdITSGiEchGY+dwjzXkPogEgCyEAVAmMrsDImVAHb1ERC0VUxkXHoAAiBSOL5PEQG5hN/AcLNh1GSeRrBzYdXF+Y7wQu8AxECUitAz71bHoKyCC3xXjJznmGkGUcah6Ots5Nk2Xdf0xRv+0jW5ZlPUZFcFshTjPBICUdTUd2x+/yirv+1wX6hVF4oF4gApQJRLEG7+RDqQmON9yAvuGalQSiDiDUhThk3nl3jMUjSIInxpAIyK4mdBufnrX0czcPhG0McCVQMSAPIC3MND+i5RwuJt4KqCRRViRASkcSEWM3FYh1CBSyBhpg9LRloS40nhEBAU6HvGSC/MRXy9rPlLj90zTWX2vxP4LJAnkKErRmkSWq29r6xntQ/GgTH4q5CigphJaEOgEFEF4ZVMoCH4PTc1QogDEI1c7HoGB8l7DeOPS/xKiLyoIPH1QW6rOmZCOUF0s49ToZAFCtaCzmy7UEagojxQSKFIDhJcIKyCeyXjrGHSoFNBJUQOAUZmtgbkmBplGWqEsYods2M0hqUjOYLkUgKof7Y6OxbJH4v+7fL/OAvPLWq5FMrN5+nuA8GzsvzxD45IGLzw3EcvkMY04q0RGcSKMAy9ygJf6HUwny4EwKIiGAVOI+nQWiJkBGBgNGKgQ0MmfcmITic8ZjplNwZuk7hGkk1c8hxSS9TdNoJupdQtQRT6UCkeAvCg6sNTZDsGMkukpkMmFQxiwQNASEkEZq2FPR0DbJht3Fs146haSicJ1Exuc6KQJRMnIc4/qHV9/7OT+1/yWt5y4mEO59CHq2nTk4+TykfLkiPZ2zfNXzWaDT9N3VVvYRIyTSChRS6uUZG9oILFxByPmn2gmAdBAPBzv8honaBsmnIkpgk0dTOM7kQadvoiNJDYRzeOXo2ELvA9qRid2vGioXrljNaWjCLJduZZqIk2ksyFeONpXCeHS84FySTNGUg53FZY28x3qOFQglLKgNXZBEKw7mq5O7CIERCX0fUPkCUf3w567ynqGZfFckwSmP1ChHE/cUNK/z8U0ggl71Yl5CtD+8wHlTxeGv4tTNvf9zgrxzXjunEkGWKYAN5IogTMRdHkPOJcxA4J3BWo3SEpAZpsU5SWKicwjeeOJJEeFoCpBTsW0fdwDgIZipiEjzxrGLXBjaCxVjB8l5J6MbsEDPUGhUkIlhQjtoFdhrPaSV5UHi2bE0jLbW3KBETAvhQITFUvmKnVvR1zN1lwyhoCu8RVUmuYjDN1ff72X+/KYt+1dnih7ea+qt//2nHf+Jl9z61rni4LJBLwJt/dZeVKxoeHIXlpaT8AV0W36M0XYmkMZ6mdkSRQooIpWMIjmADwYr52D0EhtOaaenIkoilbkKiFE1VUdcSESeoVCJihXIWEQyNUBgvGFjPaR/YqhriJnAkSimtwaTgowhvAsWwYlo7qAyddk6cW6xvsE6D0Cg0tfXsYqmdQWLRwqGFpvEOKQQWSREUIxPY9TFa5jTB0tiSrpa4QJRY89pHnHh9ovimMdGtz7lvN9uVSXmpy+exXBbIZ5g3/9ZZ4tY2WxvJjUq5fx3lvGJRBbWUxZSlYaqgjiTSB0LjME1AKk1oKuoqMLSCIghGJcxmHj2rqWzg8FJCrDUaR2MDWmiU1iA9wXimVc3IaoZCsWUNO8bTVoq2dvR1ziKCvAooZTBTg2xKEi9JWopeP6LWll0J1sQsFo6nV47VNOLDkWCKg2ApgscGSe0lTYjZdQEICKGBiERpUiGIBZTBMbbiJlurLwul+J/FFSvvVALspS6gx/HUdD5/jvJffu6DJMJTzri6aqpf1lF4iVJCLvcSOsHB3hSpFSWCIAXCe5yHVjtFKRiXDSMDlZRUQTAzIOIIoSStWJElEU4ITBAgFbUUTAjMEJQoxg52GsPEBUSIWExjlrRgWWpaKiYNjtU4sJZBa7FFk0Y03ZjlAx1Cp8Vdk4KBh5bz5NWUfFwyTVP2tEcQiITEBEmBZkaECZo6BDyAUMTC0pKWMlhqL9gqghxV3m+h31hujdz+XpfJrcmlLqaLuNyDfAbpqhTnG9pJ/C2Dyj/HxClTP994VDUW5QNxCEgfsEIwC5JqYoi7lrWFmDR3RN7TSIHuJARfs1c0oDWND0gdEZRjVDUMJ4G6kcS5IotiYhxtJVlQitIbOsCyVKxrTVpV1JlCVg25s8QYCgsizjBaszm07AnLqE5YcIolYaiEwqiavirJhaMIGhdg5ANV8DQWjPXUxhAraCWS9USRCphYz9h4isIhI/fMXsKREHgwPfgA40tdSI/jskA+g1x5qE36SCRGS8WhJoLBtEFYjyhriliQCY2ONKkITA2MhZiv/+3XLPYTkiQiKyu8ipghmAIF0HKBwgSmjWPYeLZM4FyQzIyiWwSO5hrdeJxwaClZzDvMnMXXBVq25ouMTY1W82GdJ0ImmiwThNSzq0pOlZaWarEOxLMaN2vIOprVzHND1OGOwrNtDU0wzBpPUwucKamNA6XwlcPnMb08pQkxxkkSaVhsRQdErG+IsujBvfs2LnURPYHLAvkMkvX67BzeDt289QEb19+yszNTjQ/sVoGxEfRzzVElWW9rZmPLvorZbQLKBma1p5/FaN2gnEMiqIJg5D2LOmFUWGYzw67zbAvFKE0ZGk9jLYtJwIqATSNmQjKa1BQEIuVp4kAmJaG2JHkMMkI2nm6kaEUCl6Ws9VqIzX2sDfSDQcURaiki6MBxIeipjIdUQ2kkUyuoKktbKZrpmLgJyFpBEFTdNvFyF2MDoTC0Ik3Hq2SvUDf2o/oPHlh56p3QeFkgn0G6qz1Ond6hKqp3DorZOePc0SAERiu8VrgkYlwZskgSxYqBEdwzM9Qi4tCgoZ1maK2JhaCLJFeCaaTJlCBxnsJ4Rk5h2ykyiUmkxdQ1M1Mhc8G+qDhTO0ZIeklCJDO2pSNOFF2f0NKeJLUIKxBe4xS4yhPXNcerQF1XKK0ock2Vx0gXiGcVYVyQpRGFkRSFQI0bbF2iG8BEhMbj6xpVRxQ7m8RZQiYknVbMaDhBtDvXrV11TD3j3K774KUupMdxWSCfQf7k9QNEr0Yi/aSuCFGgk8f0UkUlJDMvWFju8uCwwmjJA9tjPjapqUOPLoGlXsJyHDHYLwhasBBrpJC0gp2v+AqBkILaBkzTkCXQa6f0ihkHSDFoSldipKcJAYXmwbqkjiKu1jEHokCmIVhH6RT7QlEKaDeGTpzQ95ICw1DP47qUCwRi9rxipw740KBmBdHOGDuaEXfbeG+QVkAtiacFvqxpsphWEtNZaJFnMdWsesapD9y7hgwbB7/4o2y86+mXuqge5bJAPoMo3UCiiKQux2M7a2pHu5WwOzVsjSpUErExNTjr6PYycNBPEj8T0X27Mv7QjkuGa7lva8ziRGfdOKKT1pOWkiJ1WaqsCTL3Iiynkc9bURXnahb5sptKdXR5sR0XVpA1FhEEW42hCTVD01BlkgjLgoDFJMUjGAfPSEvKxtEIsBKWY00uNLkQDOtA5QU7Scp2HnF+PKK2U7ANfjLBN56gI0RQiKIh3i9ISkPQEqQkkQI7KaAxXL3Wv8Z68cWHFtPf+OXnj+Fdl7qkPsFlgXwG+dtHPsKP39/llivXzj+0MfqDVi+5blUIUVSOMkAzrigRdDKNrAzHsih0253fOKfb/+IR3X3k/WPjn30CsRJ3o1qK2BYmMqNpnKdJGvc6kTXI2IYQ6WDTlqryxaSuRqadJtk3nbbFP7uvqPIzVc3QaYbOApI6KCoPAwkDrZmIBC0cnhopNSjNxDrqpiSqPYtxRi+LGKaSvSRh08DQlqynhp3a4puSgKN1aAXf7hENZzCd4iYVxBqyGK8lJoiCmdnRW+PDzaSIbZZ/y++elm86mMjxT4bAVz9Fwk0uC+QzSOfvvAKAb/pH73CVFf++l2RR4cQ3lUGsxEqKVhRYiAVpJMmcox0nb17S6oeuMNON135xF5HG/MN5gHtz4ef/yLu3h/tR0v0P20X5tM2q+LqZV+y6mDpAW1haUpEojQ+OEsFecChnEAqEDMwiy7j2ZD6woiQ6UfNod6UYBce+qQgURGJGisGKCL1ykNbqMuW4hFmDnVTE3QybRJBEyOCJvNeJV6/XlZ/OHt771v5RvvBVNxx7ma/N63/uDecudVE9ylN7v+PnKL/2M1/Cjc+4Yre/uvIjIslf4bz6v2QT3ngoi+4+EXNmTcu7IqKfzoL6nvZotnH81AcR6V+tRb1ipceDU1MElf4GMi2VzJkFSAgXNkDVJFLSz2Oc9gx9xb62FJEgqIARlok0VFqgOi0KKdmoGs5by7lqTOlGxFKyaRK6yTKq1UMoyWR3hJxW2MZi85i6nUIrJdaKpUhzvJvGPW9enQn1B3bqv7yTpT8/3pu9/AN3bfdGt5/hxS+++1IXE3A5mveS8wuvs/zd3X/Pr3e/MTkQlQstX+Qybc1Ub3EPZ+yzvuzAX+v9P7vxUdz0ALEUBx+ZzN76YMmNmy4gQk1LONaiiJvaHVbjQBoqFmJBTwlaLqCiwKbxPFDUdHzKMdmi8o4NZxmqlEeKMduVZRQWON2ADDOWg6PcLxlOQYuEelJiixrhA5H3tL2nZSwdJZnsTakn5nWtrPUd5yah7BxsXye13BSR33/g55/Fzs6lv1D0skA+D3jd6RnHu7m+c2Pv1+4tZl9/ZzFDCM+RJOZQErMYadraoUPDghKseceyCES+YSDhbuc4W0lmTiFUzI6J0HWEcQ27ZWCn1shEcqxreOnBPmd3St559z5nB4aZsSjrCMaSO0+rapC1xRqLndXkQlQLnfY/+pPb7//5l910BR9nlXt/7lkXcn7pq+flOcjnAU/TKR++9xF7fX/xgYW24HCucAF6UYTzJUpYMinRQdNCEbmCfiJoiUAnVExdw7mgOWcEpcmpvWJBw3LWYm86ZsFUpDJh1abM9gLFZgWP7LMqFWeNxyYRB9Z6jLbH7AOpkngD7TTC1yadTGY/8IVHD7+3Kuxd9/3KvwXecKlN9iiXBfJ5QLEpON5OSFy9uZCCFAm2gUgrgrBoAmmIiAkkODKtiP2MKIzRUcNVWvOg9dxDwtDFICT7zrBnBK2R5UhlURnsnp9wbneMHRb4UUEcafp5wk6k0JEmyROKxpLnimPrffYf3sZIiYdrZqPpD01O7X7XDc9/SXH3+546Arkczft5gA8Djn3pl1BE4vrzzfQri8aIdoCOlLR8oOU93SDo6QjlahJmdJgSyRKWUlQroUJy30yw6TI2XcIjJdiJ4VgTyPfGhKJmsjthen4ItUEIiRWQKEk3jRgMZkSNxU5KOlLArKKpDVGe7Io4kuPd8fUihFOuGn907dpvZOeRN15qswGXvVifF/zh7JnoVEGiQqYlq1pyUEPfFCwHxzqCZWdJyxmpd0gVUUctbNaHpE+S9lnIWuQSMgwZNZky6E7CbKHFrgMzLGgbS6YkUkmiVkzczVAC4uGU7mhGNC5IakM+3zCFy1NCt/WI9eqnEHIUtdMfah04dF3ejlm/4qcutdmAywL5vODUr34LJ0Yl1xR1coOR8gofOBoLDseCI1qwiielQsmGIAWFzzjvW4xci2IWsVvFDOuEVMb0deCAajgelwQ9497QsNvJGFlPYyztVoKTgqH1jJTC5glNgGJSUYwKgnVYrVCLbWw7YdaYm1wkHwoh+gYRRUOZ6B88cfOR/OmvvImf/7FwqU13eQ7y+UAiYL2akCz3+0ZDUBEJGuE9WEetoNYRs0gw9THGgwmWLRMoB45haBgazcQrQqjpqphUBIyt2M0y9lfbZLOa1niGlZLppKImIPKECTBrHE1qiXxA+MDGsODw8RUyKanGg6TeLb4jqPCVEH/90vrC17T7/X660C2WnwKbby8L5PMA5xxSg1roLvuixM1qnPPUkaJIJcZp9qxlGgIlFisE+yYwNoqt2mDRDKxlbB2CCACBZVU51mPBySri7EqXtG6IgmCSxpjGEjWWIokpey0Wj65QXpirSK3YqQy5cVT7M8pzg+cEy1dXSv38q171NT8dpWVY67X46mdddvNe5jPAB08brLtatM4N1p20dOKYSDimGMa2IRhwQVMTaGRg4iS7jWfPBLaNQwkY2RqFQIiIIkhEaLg+lxzJck7NxgxXF2m5Lq3p/AqE2ahENhbVznB5glpfIEjJdHvIodUeRW2YjUY0RU2wTgvkd7Qj9Ye//x9+bfPut772qbAEAlz2Yn3uEwJftmWZxrS2Z9V37pvmChMpGi2YhIZp8FiZ0MiUSYCB9YwtjKxnrykBMz9REYFHo0VAEFAiMDUF91WGUy5ha2wIk4AtDI11mEhTtDLKVkp0oEthPZUPyABZY2glEUXZ0AbqYYHU6oDK4tPlpP7AVe/8Jjbu/O1LbTngcg/yOc8PAa4FXvplL+XxxnqGocaHmECMIaJGUbiGQVOw25RUXqCEwPqaSGoCEbFUWG+xwVC7iipA6TP2vaRwmiAllZZUTYGKIzrdDKcUDoinDcWkJPhAqiVMKvZ3xpjakFQGHWukEiqO5bdFS93fc5Nwjl84Dd9x9FKb77JAPtc58sgHSZKbCbibSmkOlb5Emhgh5suCtfeU1jCxNcZbKu8onaOrE1o6JxAz8w4bDIkQ1EEy8ZbT1jPzKc5KysGMqI4wcUK21uX4gT6bZ/ZwwxmiNoxHBXFjoJXiujnl/pSwN2FhqYOOFSZSZJGk3B89PUF93cJa+tM3/Pc/5OOX2nhcdvN+zpOlNzFdTNWomr5KhpBlKmffCu6ZlNwzmfBIUfBgMWWnsUy9RogEh6YKmkgmKCFQBKw3gEMAZdBokeIwVPWUuJggixFOeqo4YnN7gp81mP0Jan/CQlGRjgrE/pRYCbzzuL0ps4d3GJ3eoZwWDEYTUtnIdiK+9eS9g6MSwTd94x9davNdnoN8rvP07/pH7A2LZw3L4l8O6qYzsoL7ipJ9awjAqWrGwDTUROzbgAkCFyTzqhGYesPMGUpvccHP7wlFERAEIRBCk4oIMysQWZvIKuzOiKSoiCYlqmhIQqBqLDMhWL52HXxgfGoHXVr8ZEZ7vce1X3Qtj9z9ANPtrVWt2Cwnp9+7N7a8+iu+lw9/+Dcvmf0uD7E+h3nNnfvc2ehep5n8U9f4gz54mlAythWLOmLqFBMX0EJRWmiIyL0nFZbCO7SQREKiZUQUBLmSFB5iCXiLDQLjPbPhBF0b3JlHkKGLnlrcuMDuT8ljjY80g8YSn1jCdmK27i3Is5i0LLFKoK20q3n2Fi3ynqe8JbjmW/PW8u/iZw996EPvv6Q2/IwJ5Nu6H+T+X38Wvb+oxWSW0Iph2BBu+09PEX/e5xg/ctLSj1X29u3RD52a2q8iSA7FmtIVmCDYsYYzxtKVip5S7Nr6wunxXOgtoA6GltREUhOJiMI5HIFYQCY8uYSxbTCxRmU9tHPYiSWaVUSVIdYSGgvWc+hAn7UbD9FdbjG+sEYy2TiNcA5TO/H2/zn6ncRlb0DnNwEvFCo+LKx9qGrOX1I7ftoE8s0/f4ZbX32Yd//nD7cHu6Mryhcu35Bu3nPldnF2TRR1MtuY1bFx51/5t3//47YKH93YrM+keeQ+8M7XXFKDfC7wFXfs88Filq5N7I8kpvm+cdNETYBMJSRoEglT31CHQBJg6Cw2WGIhCGEesRsJyGWgCYHGhQvLEpJIOBTzCOCOVMh2xkAJqp2aMFb4okZISeM8wgeE89SjkjUlGNy5QVgYkW6NMOMS4QN4g6/GSqnspV6K30LK2+LsittsMKrwZ2lmZy6pLf/Gm+8XvPZtCKelj8urVCK+Im1FL4u1vKloJUuFQOv9KWJUECYldlzjy6Z2jTmtYvXH19xwxS/t7dk74pjwh7/2iktqmM9WvunOEUv9rji5ff4f9rz7CR1cdqYxTJwkURqCmV9PEDx18LSloi0ViQgMnEeKjAqFCJZlJRj6QBUkIji0EKQi0BINHkEsJBJDRzmKScN7P7zHdF+gpw1qOEUFSKRATmvkuCTEmiiNYFpDUZGngnKwh45yfJCTIJK/v/LA63793M1/jwf+7JsutSmBv8FJ+he89oMsXv+lINW69dN/7H3z75yzX+tFuHLhQK8dhyAZTBGNQTtPJuYXwEzHU22bYqnbaz8vT/TLuyq4ZSfvuuXmrze33/Vbl9o+n1Xc8OGSA5ScrexLQlP+9JoMC5lStKQiEvM7PlMpKUNACEUu5k7MMkjGXjDygTIoEAk7xjIKil2jGFqwwpFIyTSAFppYxpgg6Wi4qd2mFiknJ4F6UtOqHdW0pLvcJUkTEutQ1oPx5FJiiwqqCcE0BA9R2iYEkXghbp0t3XKXHQ8fPnL9N7D1FAh5/xsRyPP+/rt576/czw0vO/rCKOa/Wme+JUiW0FKESJMtd3DOcyDVTPZnCB8IPmBcoGkszhiSNCfRop8E9+Jch35Zufc986avq2//+OsvtY0+OwgB7jzP3RO7bLz7mZ6Ut8D8MLrSBwKOynuqoGgQRMgL93gIph6CECRCMfSK7cJRjxtwMdXEYgKgHfiKqfM4kZLplIkHg+NjE8PHxgplYsKwJB4VxNah04j+apckBCLnSaRAO480htAMcdYjZIptKgKerJUuCMVznvXcaz6yuT86+8ov/z5u/+AvX1Kz/rUF8sLv/VPe+5+/iLef33mVC+bnRSafjpJCZjEyT7BKMq0MzbRisjuhbixxrGm3E4SE4X5BsAbrBRqB9l6bqnnWeFwnGPHnN135anvXQ797SY302cDi6Fmkz1xD3n7m24vgv0vluYyVYuQVsyAovKOvJA2SkQcpAiaAEBopYmYhZuoF09rPdwPuTgjnx8hJiXDzxkyoBFPDpJJYnWJRpEFxptKERpEqRS6YXy2tJDJP6F17kAAo62iMpZw1dNoZpqrwQc2FHTxSxURphhIs17P65nJn/O7Nje39tcMvZuvc2y+ZXf9aAnnBd7wZpwy/+AcPvURi/5sQ4bgXAhmp+V3dSYS8sHusPDtg7+yAUDco5ymnNWVhqGqHMA25FDRFyaioaBovF5S4dVWKrV9829s+9G++8p/yjnuPwI9fWpffU5ne2t/Cv/Peo9Tm32Wt7OBIQdpuoaUmiIhUKroXhlcDJ0HMe5KxDxRWMasFxbSC3RHq/B6yDJjdCW57m6QyhFFFToZqJLLy2JnBVZ5zuzOayhMJSURgOcx3KKZZTNpJ0UIQNRYaS5ASIyWND9jGI4IG2yCCQwhJqx0TpGK0OzjknekH/Fu98+Ybbn0bH3jwxy+JXf9aXizpLbIQV1nh/q1X4ZgUEl96ZBJRjAp0rEnzmGpa0YxmRJM9zN6UfRGBSlDtHu12xrTQSKHIEs1gss9eIVhuL2RJpH7wJ7/+lbd5+Gho/wCCn31S+QohAAhq8unt51f3Pr55yMLB/fF0rbGy56MobXUTqZXwk1ldbu9PR70DSzt5N9s5dKR7fjp2+7PKjm54+pF6tFn59edmiKfISX+fjKte/otIo3Mn7A+U54e3FOUUUZ5gp9Pnqr6mDpIyxJz3nrGvqQkYr2msmx/utjcgtp5uIik39mkGBa4EakvuLa1mwP5oxvT0gM7hVVSWzO9MjzVZFJEstOhGkjAq0LMKZR02BJokwkUaoxReQJRG8/O3KkOjJNPT20jvwDf4pmK0bxFxi4Ajb2WvMSa8KeBe/77hz18y2/4VBfI13PDKr2Hz9CTu9dU/0Yl4lkg0AUBLXGMJjaUaldRphCaQdzOKIkOYCuEMOEOYGkyjUSR0+j0WEo2OJDu7QwZVQ1erE+XO9HsbmXzPdz3vnc0XviPwZ/8Lx9urnvk/eWCzEK95zsHV//qdb3rmofX8RQcP5s8y0/qKKJLLLoS8cl5XztK4hmmoOXRsgcoJhgTK6cz2lK17TTw5Py52TeM2PvaR+09lafzQmT8KD77zDQ89smfZPDdi8AVffawqz9XhRU9vXbKCA0i+4g+o61dhDr35sN3a/CdZlPw9UUyEqzzh7A7VygJl+yhOKXpKMrSSmQ9UxuCKGjmu0BsDmpOb1MHSv2YdEcU45UmlQdYVfn8fFSu6lcXtz/B7BXK1S7LQYoRAtVJk8LhJgR4VeOegarBJRHLNGsPaU+2OybRGlAYtBbFWiHaCWehihx4/qwne+xtuuhIjlDz58ZMsL7Xy8+fH3+Lkwh8ZGWaXysZ/pWZx7eafYHn9ENa6l+ko/GbajvpJJyVEmqAkAbCzmnpaESURhIAxDlMY/GiKLicIbwi+xJkSqRPS9hqL3S5SSHYHUzqxZjmJKcfNrk6TV0vBX5w8t8BdJy9eJ7n2qn9IQEVC+Jul0K9ZzZe+fD3Prz3a62SLmabbjlle64CSECsMgijV6FjTXW5xemvK1qCks5ATxRoVSQjQSTWL3YQ00ZSVM6Xx441Rs316vzo9KN0DpXH3I9SDsVSPBCG3ddYbH1q8sSntmH/9fb1PT2mdDiz+3d/DLfd1YkdLwZtrdCy+KFvrvmaytX2LqxrphaVzzUGECpQ+kD3zaaRLPQ57z6p3nEfwYNFQnx/AxgD38AZiMMSkEfGBHJGlQE60NUHtDAgE+qsLmP0JdjiEAE0SYZeXECs9QidjuZMhG4PfGZM4T9JKcAttOleuYl2gAFarmpNvv5s0BBY7Kd57TG0xk4rB6TOIptxcPXLijT6IL9nf3rw6BIGK21sqar8U+Jgd7XHXXf/0M6kN4K/Qg1z9M4GXbL+LVq+TvetPP/6dxjT9WMSoELDOoyKF9wFXGWRlsdMS60FGGukCQkkCluBmQEBKhWtmlONNzs8G6KRHSFoUkWLLB2auXhal+Sbjwvt0d+L+Mh83Xv9P0DqWVTl7mnfF3wu4r5IqXjs/2xKTps2hQ8skizmz2lJsz0haMcZ6ghCkrRgdK/amDZNpDQE2tqfUWmOBPJKsLuSULtBJNcGHaFqapbK0S94219ez8qU+EJSStVJq4KQ8PxsVpx5o9h8qAye/9sfff+qGq1bOFaXf+/ip/fHa4dXy6191zD28FcJ3P+NJxIfeEeBm6PzoOZnc/7E4U6GTx35l/L2/ddxl/gbq+ulocZO35fFGqG4wiVCH16jPbSG15NDxderdPR648yFUdwWDZE8I1r3hWKQZFJbtcYUdTgnjMYKAbqcsriyT5m3O3HMOUdS4JIFYszMsiI1DJAnKlGhXEwYjoiQiiTVuXJD6wHR3QlM02G6GHpUMNwa0V7t01noMzu0TSRClY+/0PiqSJO2EKItoLy5T7O0u727sfETI9D9Jmf+Ux73UOb/gQ3lcCvGx8+cvTVTUp9yDfP3Xvo5ZJ8fU9gsn09nvg19I8hgjBS6JQMn5+sbuDFHU2OEOSgaWDx9hbzDFjvYI9Qi8I+AJgfk1xwREEAidIvNVRNKai6kxhMB5dPzV3tj3HbxqgfMfuZ3gXSak/J48b/3jSIbDpqkoypJWvEA76/Dsm48Ru4CwnlgKrHF4KRCRAgEeyPsZURoxLhp2a89O43BKkmjF+lLOajchixRponHOM6kdk8oyKRqsceSpRoTAuHaUQBASK0VokNXacntae7G3XzU7SwudzRtOLG5Fgh0po8FsXE+qxhR+MmsM3j4cpNgy6N0mJGknb0eR7D6ytbfsR9VaZ1YcnO1N14UWayqEBbxPVRZTqsBkMiPOE0Q7I8QRfncIxYQoT1BFibEOefQoneuOI7Xi+nbMsW7Cx2eG09sTRg9vEYaj+XlViUbmMWrS4CYlSip0AGkc2jmqnX3iNMGFuWdHliXICN3KkEriG4eZ1uimQQpB1EpoL3dIVrqYVkIMxEXN/qldZtsTtFJoLen3UvJEMxsWhIZ3LPV6X3Xq3GDNmMlvevyzUdE3CWF//e4PfClwy2dcIJ+iLGvO2z/iXb/4Sp75Zb/ylXVdLawuZPRSzaC2NMbiqgC1xZYNFDNEELimYXdzh6AStE6RIWCaGoHA+5qAwblqPrl2AcwYj4e0g25lWOcPCBX/SJR3v2PnzHA70mluXf2DwYcfPHjgUNbJNI+ceoSe7rCYL2GUojAeKwSdVoyWgmpY0lhPY/x8uCWgmRmUDZSVwWlF5QO1sxgf2BtXBCBNNAwrvPcIJfFCUNUW6zxBClppRK+t6Ccx02lFQIhGy6yYlpmP1MrB5fZ1WSwxVYWKFEkmwkoXv7tTBZuEEMc6LHrFYFgJbWpRjRs5DkG6siSyDRIPOIwTJL2M0DicFIRWQnqgw9qxdQrjmW4PccYgfUAZhwoZshljzpzDRTEcXWN3ocWi0mhhSVoJ0VIHkUiOrvW4fzAmWmxTJw0yz4gqM7/Dwwdm4wK/2CdLY0JRE0k5b9hGUyhrIgVeRmihEKYmmIJI9pEThW3FpIttpsMZ7TTGCIHOE2IRaKYNg7KmihW9bsq0rJ+5tbV7q6b5cxv8f5SI/yKDmhIU11//Du655zOuj0/NzXv9P/lhloqH+M3ff3CtMc2P4t0BHQJYjxQCKQXVrKYZlPjKIJxDBkcUxziV4qwHZ4hlwlKrTzdtEUcxCIXH40Mgijt4VyGFJOgULzVKK5QIV/mmuTGNk5Yz9rsinX7XYnsp85VgsD9hVIxY6i2Rt3IqF0hbMQhwxuOMw7qAkIKidtgAXknSTkJdW2oXKIFBaVCxJtKKLFbziwaUpDQOEwTWeWxjqRpL46EyHms93XZCJ4tIlSSSgvWDPYxUGCHptBNyJZBKILVkZSUXsTBSFEauLWRqZSFRQgolpFRKSWm9F2keE0LAeY+wDuUDrVZCk0QUxmKEwK11aR9fpVnIkYttTF2DczjjyDptqrJCF/M1pokSdI8dpGxnZL0cJQVjF6gjRVOWBDxNGrF27Tq99YTZsCQMSgKQL7WpA0T9Fl4IlHUoIYjj+dVqVNXches8Bw4tUk3HhLokWMFsf5deBv1Wi7MPbWOtR0tBFisiIQjO44qaUNQ0laEu69Qa/9CoGP15qvN9RXiu8Pa3hXfn09SxsfG2p7ZAbv3m7yDd3CLK9PNN3fwDpYiX+xnagyka/KymHlbEQoBzBFMTbEF3oYf3Am880nsW0oxDC23aaUyv08KEFCcirDcIKYnSDipuEYTCIUEIgjEyBHeN8faVQUW3Zp1u1E0TimmBV5Ks0yduZUwbT2chm7d2xiHtfA+D82CtJ+/EoBUGGM8MjQ80QlALwbQwJElEO5J0EzUXh5DMXCBKNO0sBiUoXWBcGpwPKAFSSiozF3jRuPniaICZVlQOkhCQcYRMIgQO7UqWQ+BYEjjUsvQjRyQ0kY5ohEB3MkxtGVpLJUC6gHcBr8C6gIw0iwcXOXLlKufqijJYdBITrMXVFU7MbV1bj+30iLstZJYhOzkyi3FFTT2raUWKVpAcuvIAe3bG8TXNq4912DU15zdmxNMGVxlCCHQ7GYt5TDMqCcaSaAkm4CsDUYwQgtm0wtY1wnnwHiXAWcH2qR1SHbOw3GZhuYOzDlsZTOMQ1rPSSlnpZhSVRSNnB7sHfveGaxfLpW43SqPkL7I0rf7sPf/gMy6OT1kgV3OcsxMwJnxDWVQva2URS90UO62pRyUtLTFlQ1kWeFOBv3AEZVHS1hHWOJTUxFqzNykwXhjvxH3Dwr69kcn7wG4j45aXcVvqSGgtsf7CuoZ3BOfwSSKSXkZ3rUO/lxIKw6gcUTsDMmFlqU2vlxG8RwuBkoKgFLX3KCXJ84jGerySOMAH8FpxflzjjOdwLyEPgZWlNrVS7JaWxjiUkrS6CcvHljg7LClsIAgBPtBJNMF5GhfwQO0DRWPpr3YRrRQfaXSq8UqgrGeVhpvanqPtioXOmKXE4QqD1AmNEuyair3asXSiy9ETK2xuz2jGJcsH+kQLLaySKKkYBSjzGCskWbsFAdq9Np12Tj0qydKMSEUoHRH3WiyudKknFcXGPqvOsVTWhO0h42FBSkSUt+inKRtbBdtnRyT7JW53TBoplPNMBzOa4QxZGSIlcI2F2RSJJ84ytHEkeUpNhJcRgkCed/CNozZzWw9nNeNJhTAOnCfynm4sGQ9mREqQRpFvSvvbb3jLNw8/dtv2yeXl9ujgWi/8+W2/ckkE8inNQWzvShZMGjm/f2uSzm8K2tkYUI4KprMaR0qeC0aTAQF3wQWgyLI+y502pZnRWuoQZRH1pNoYzcJPZVH2+oOHVjd/9/df5Z723J9PPeYap6NvNq56LVW9QtSar68QkN4Qy5RYS0yAPR9o9XJaxZhxOWX98DorizlSS5oKFAFnPSqNMGIe1bCYx6x2Us6cnyB9IE00RgkyJWkCHF3MmM4Mu0XDvglUQKIVo1nDxv6M+uF9Jj5w5MgSUWOp9ib0+xnVzoQoVoxrTzGuOLjcYgnHg0Zg+zlVFOgnEavOcDjxrB+CrC2h1SEzghso0SPDOMkIMmGmKs5NaxqdsnBwke1pxcasJlvoEHUyjHOUOxO0kCgZEEYipCK0Wlg3w/U7RAHs/hTrPN5aXN0Qu0A3kvSqhmpcImvDWiuhaads3b/HW+48T3N+QLo7IVSWuDSwP6WVx+SJpk4jcJ4s1qgcmqEk95a2hFprbn72Cd5z31muvvYgZ+46iagEWbtFUxpUCBy5Ypk4jbj3PQ/OQ1J8wBtPN0+YVhblWI6lWnvVs39p0y4O99/y1u+/JML4lAXyBf/8TSxtKTy+X5bR1dV4ysYDDyJJECIhAPuTBqkgzrtIKSnLMVIoKhuYWUvciom6CSqJB4lO/vHH3+HfoF+hw3vf+BVcWKiubv6y19+RJPmP1IPzf+KT/F85EZ7vBSgHCospK3QU0cocTkpEJ2G5XKStMrrJ3N1MAC1BeOZ3f8cKV1uEhIkNHF7NyacNe8OSWEAkYKkVUwG1VJDC9qhiGMBlMQ5Y7KaMh57CBZySlM5hlKTUiu1xzZE8Ik80eVvw8E6BaRzD/QK92KWuGkSsSXEcTD3HFhzJQoRYWALVBl+wGJ3nxMaEwazH2V1HagJy37JvCoRz9I8ss1/UOAQdrbDO0JQN2azG5jFmXODxBBWBVMTdnOnumLSfk8YRk/MDzLjk5itWef6xBZrzQ+7dHjExjlUJy8pzz6xk4/QemZJopZEdjSlrwqxAz1o0xiG0RPdzVBYR+YDM2zAaoHC0Flrcd2qfqNfj+HOvomgsp999D0pGEBqKfc/gdII1DlEZzKRESgVa0Uoj6sphrc9lJBe8kEwf2rik4oBPYYi1WB6krvtMRrOrp3v73zPa2m411T5BePJWD6TAeIcLEVLnrB9corOwiEdjbU1RFxReQJJigvwfJsj/sHwD/n1v/LqL0tl+6LdZOPH3fNzbORnni39qvHtOnKgjaRaz1M8pRmOiKKGfRURS0u6mxMazrBUL3QStBM46vAsID3GiSRJNHCmC9UxLw2DSMJ3UyEhz6FCPQ0f6jGYGL0BlMV4pqMz8rvLGU3pP1TiaAFVt8Y1lqR3z3BtXObTa5prDXa471ieONQ/vFOwJic9iQhIzVIqi8QgvyIJlxU840a5I0xrR7oNaBCEJFBTjEecHlg2rmJVgJiVZS2OMIwsCg0AEULWhVTdcvdblyitWOL87xQTwWQRKILzFjAr8pCKONH5a0TGOeFKSOEc7ePJpxWx7jFaStUSRnNxmMTiG04axdTgtSaVENoZQezIlmYxK2gf6HHvaUcazBlEZinGJqxx1bUg6OSMbEEdXuFtotnamxHtjMAZsha9LJoOGctygrEE6x0K/RaebkuURXsKwNJTB/V4jzP3vubMP/PElFciT7kGUfxrTrTNIER+rm52+dyXeNwTrqZsxi8sHqWpLWdbgK17yRc/goVMD3rOxDb5GZjlHrjzE5m45Kmf166WQ9v53fPMnTesZYZOzx69BCFwy0J1if4wqDXXZEKoR+UKXLFKUpYFWzCxSLLZa9FJFp5syqh2bwwpjPUnqaecxaW2IjKPdipkaR/uC//3wsUX6Kx02ZpbR9pSR9ahYc9P1ayyttXnd+84wcp4ojWhqiwdA8LzrVvjnX3M9gXmPJYTgLe88yejkiNBKUO2ExcWMWemYBXDWMygFs6xF4zTMJlAMCG2JcBYx8SD7+PYiUrcwrmAljphaw87OCDMyEKDWitVWzJoK6FnNuYe2sSZAN8a2FboOLOqIKgiiNKYazqjGJSqS9LOEYm/KhrMgBaqxLKYRzazmSCdGOc+kEyNN4HxpKGcVtnKE2rB3dpu8lRCNSwYPnEeVDaa2LPYyytrha0M5rmg9/RgnXnotBxYDt1/ZY5SnFLfdSxgWyADS1iRxirCKfjehlWqWD7R5xguu4M8+dAZTbAgza5QUFvg+4Hs/OwSSN44dt0uiFq72ro49DhWlRFFGlrQZ7G1x4WpUrLG89733sbNfouIMJ0H3FrjqxoPU9+w8vHWuuCdJFCvP/3V23veNFycUAqt/vMuvf91P8sJ/+MqvifvpjaGZOwGmswnBNSggk4JYS+pZzVQrhpFiLQTKzTHTau6KlARymdJOFNZ7Ftc7zBqHGNeISBErwXhYYiNN4QK1kkwKQzmqmBQNna0pRklqKbGVJYSATiJcAK0EQoBAPLrcut94hgFUohGJhkgTzwzaBfI4QSnJ0Ag2x4GOSIiTIdJPCOPAbE/wwDTnIwZuG5ecsg6hIRSBvN2hmo3IyoZOGqGkJI4jquGM2jiOHVpiCzA+wo2m8ysGpCCNFQMBWZ7gZhXTYkqnnRAKya51SBew05q1q1aYzirWZeDGLCZMDMI6mlgx0JL8YI/9nQkSDXtTVNXQiRTD4YxYSqQSjJ2jFILDNx3mmYcTnt3THMoNvzc+iDl1Hj/dx1UlQihcXdJr5VgPUxu44pZDfOXX3Uyz2OLMI8PQTiKrI43S/xRnL6k+nvwQ65anvZJv+5ofEvc++N5vnZWDZyIUyweOYZqGpjEYU2KbAm9KQrDs7lc4ndPut8l6XWalY29S4YR6bxKt/XqUSXf/m5+4//wH0u9FX53yyu95+fLUNv/P9mB6OHKeLATqokHEKagUHQIrvfTRNY161tDWku0z+zx8bpOj631uvfEAzbQmSRTBeaQUOOtpCoOxnryd0FtsMZ417E1rxo1DJBGjomFzVFLVlv5Kh6idMp7VGBeIsojucpcrFhO+8Oa1i/L+gYcGfPzclCTR2CyhsQFhHN1IkipBwvx2WVc4hNN441BeMR5Z7p7kvK/ocVcVcWraMNEa2QRi61loKbwN2Fk997xFmtZKBwm0paAsauxgRnNmD+UD15xYgdpS7ozJtSRtJzjnSYClLEJ7j5ISrSXTccXW7ozBbB4doAQ8vDHC145qVhO1Uo5fucp0d0aw8xCi1URzpJ/x5X/rGsa7M4pZgw8C105YedZxnnGszQ29jMo5Hh5UqEGD3d6mmo6QUiGEIs5j+ksdauPYGtXsNoGTJ/dZS3X5d1556y8/45bDp777Fdfzy2/8uUsqkCc/xEpz/vTDb8iuvf7YFZMP7zArK/Z3NvF+fiG9EPMfhETKGJnkpHlK0oopakucR7RaCUFFZ174t1Tzljd98iiXUyfOs/N+R6x4/qSsbjl6dImR98jaIAc5Rggm1tAnptVOiIwjM546UTyyO2N3NMGaGRuntzi62kNbT9pYWstthqOSVqxIV1q4SKHzmG4vpRo3mNKQCcFe2SBiRT+NkCGweXYfpy6sxViPCJ4qjZk0jp1hBVLMwy+UYB/JNNJ0tMIJwb51pM6TO4+vDDKPGYYIoRV2Bl3XZy3OOTXb5y/2LHfVlq2yJM4zrl1tUQ1qkqLmxGLK3ZMZppPhYo2LNWet5/hyxrVJxMcf3EEiKI0lixXOGHY39mkbS7uTMQQOrHTwe1NiJZlNKuJexsHDfc6ZXbZ3Z0ydJ2jJlpZ4JWknmp09Cy7wyB2nMXu7JHEL7SA3joOp4r4Pn8EZR6sVI4DYB6p7N3nPcsrpcUMxCfh7B+zdeQo7rcnzBZrG4F1NMRO0oph6ULG3PeLh+zZJ45iVRJdv26sHxlnW+1ddUnF8SgJ5eHdE2NfKF2dT28yHV95bvLcXxBGBkAgZk7aW6C0vUFmHBNIs5qoTy2zsF0xLv/nGd57kwOSmT5rO+LTj5c9+mvj9d7/3pWXTZOeLimpSUQ5LIjn31aYrXa666RC94JieH0EIBC0ZNI44aXFiuc9artg6uc/ySs7BXsL5MwPGo4qVK5eY+fmcgQDnzo4ohcD7gPSB5W5GMSzR8XxSn2vJ1DgWDi6Ckgw3Bkw3B7x5MOH2B3ZJtEInGpHGnGkClfPELhBqR6IFaRIx2p+SAb3FFrN4HvEsFex6yVYRcfdQ87HCMVAwahoSYVADMJVgNdUcUo79HCaLLUQ3Jy8bFo3heL9NbgyrPrB0bIE/f3CHanfCxu6EVtWQ5gkHT6wQ70wQexM8gXJWUxmHTDRpK2F5tUNkPapokMOShaWcJo9ZPNDBbk/Z2ZrQWEMCHFxIqAvLdG+KPtbn5D0b2Dzj2IEuPot4cGvC/gdOMj434L7FFnZ/Rnl2F7MzRFoQWqEjiGNFHKWMt4fkOgEhaWoLjafdX9w/cnRht64tvePDS62PJy+QK245TqvX5dTdgsE5yUJ/mfHwPFUxAOZRGfLCYLwxjnChwh1YapH2MnanFV6ATNjp0OGhhd0npPGC378LHvC84yN3Lwcpnp8nisRYBAGnQAtLJ4648VnHufKGdXY+fIogBPWkZG9SowQcv2qFaw60uelIl9G5EedPj5CNJReBxV6K0pJISiyCJJI0wKRyJFlENakxRcNiK8YA3TwmETAuG1rtmL3ScPTwAg+c36Vyno29klgJ1tOIvOXw05pOHCHyhFYkOb6QMRpMEHmCKWomRUMIjtWVDou5JmolGCFIZxFp6hkZR9mOsKFBDwu6JNhYsnxoheOtLg/ev4mcTDg6Myx7R1cHurHghdct0l7IOdRdZ1AYtranbAuPSxJ8ZViPJCbVTCtFYxxpK8ZdiLheThWtVLHUayPaGqzn3PkxmYRnr3cIVywyqQwnT+4RPKhI0coUWxtj1nttFg926fUz7rh7izzRPPemNSAQtQQP7VUMW5KtSDApLN7VoCCOctKmpLAWr2K6acKkrCic5eFzu2fHhR2GIHnrT37rpdbHkxfI8oEurXaLkzJCpz08CqlaCDGe7y4LjiAUSsV4ZxgNx2ipeOSBDbrrS+wUhqid2CxJJkrHPPRH/Sek4d4QGFxT4Gy48uhycuJ7X3IVa3mE8J7gHHfdcYZff93dDDeG/OnujCuWctJ+i7N3b/GSl13DK77qRmIlSbUgBv7wZ9/D9rkhcdnw8h9+MenBHkFK5rHD8PDHd7jv1Ig9W1JcWCfJtUABz3nWYV7+vENEWhJCQAjBez66yQdOTzlpGl581Qrf+YVHEWKelhTwa3/6MPfsNMRK0CcQK0GjFI2CKIt45pV9nn3dIoeXcrJYIqUgBChNj3OF5V27Fa/fHGO8pFsI9s6POVs73r9TM9yeskhE5CyHUsGrX3CCa04ssNBLiCL16Lus84xnDQ+cGfOee3Y5fXaC9Z64l5PECrM1RpaGhcZw6xU9XviCozSzBilgdG7M2/7b+7npxlWe9pKrOPG0dTpLLU7dt8PP/vM/oSgMN73oOK/8ulvmC39SkmeaN73uDlQe8c1f+wy+4EUn6PZSokjRGMt43PDR2x/mN3793XzwQyfxFlrdnBsOr/Khu89grUMFQS4kTjikjO/5k3d8++yWW/79pdbGpyaQ97/rIVwEYTJBOYsxDUIIlG4RQoN38zBnISTellSzhizPGexb9ipP3MmxtQtGWYvQMH7eE9KQh9qs6QlG6utXROjdcqjDaj999PexVtx214gP3X4W30nItETPGkQWcfVVy9xw4ycmzcY4ztRDtnYHnGgnRMDKsYWL0ptNDY/sVYjp/Aj+bjejrAzWeW463uXGKz7xfAiBP37Paf7s5B67SrHYjnnGlYsXve/YPXucmYzoZBH9TsKssigdcfBAxtc9Y4Vnn+ih5BPnXpGK6KYR1y9mvPJwm984PeN37t+l6EiyJGGzMDSDgsx7XnjlAt/+/HUOrzxxN6MQEGnJUi9lqZfyjGuXef8dW7zuzQ8wGFf4ScVaJMnGFv3wmIPJNawf/sTmrlhKDh7q8qJvexYHr/+ELdNUs9KOGTSWa65Y5KobPvG7clKz0k/5/h/8Im5+1uGL8pPpmCyLeenLbuZZzz7Ov/v3b+L3fvc2xsWM0zv7VMGSBE8MZJFCSeGNjD7yJc/+zzTkn/7a/yR40qe7i7pAjKYI63CmoinHOA9SpSjdQkiNdwZnZojgwFUUkz2sANc01JOKelqpuizTcjKC63/6CWmoxRlfnOyjZbgmM0bi/EW/997z8NldBntDwqRiuD3m7M4U3U7I8+hxbwvESnPi0BLLSxl7d2zgjbvoiYWlnFgKljsxvU5K4zyV83Q7Cdce7V/07M5+yfZuyZWLbY5aR9480f/YySL6Eo72EpYzTSqgkyr+7hcc4nlX9j+pOB7PkTziO0+0efZiykq3Texh/8wecWV4/oGM73nx0U8qjk9GHEm+4BnrvPKLjzHZnzI6P8LuF1y/nPGyZ6/Tjy8ufq0lN3zp1axft3rx/1+wUb+TzLcjPLYCKcnzXnYtNz3z0P82L0tLHf7h976Um28+QWXh/nPnkVqSJIqV9TZZKyaLor2ldvbR5X6X9enek62an1aedA8izATh3HyhTEiaZoIQEUJogrfzQCcEAUmatYi0YlqVqPbCPCDQekxtpDVuMTQ1R25a4czj4vtNVfMv3ZXq+WJwpNNSROriClUXDZsPbqKMRQ1LKhswkeTc/pjz+4PH55jrrjhMb7kg9x6qBjMsSVbajz7R7SVkqUJPBGknxcca3Uq46miP9dWLK+FH79vl3vu3cZFGGo+drw9etONspZtwsB2zlCrODkv268BXPG+dG9cvbg2dD2yOGjZmhjyRXLWQzi+WucBiovnWq5f4iQ/tYoJgEuCqXPItzz/Icie+6F1VZTm/MWawM0VJweErllhYzP8ydAch4Euee4R7797i9377DkohUN2U9ZvX6D3uG/uHuvQOdp9wQIXWEl8YrPH4x2k8ySMOX7tC8IHdjTF7m2OM86wd7bN8oMtjX3Xo0CLf+q1fxm/9ykcodyYI5ifFP/1p69xz5xbTaXmv8vIk3nF28Zq/0Yr+V+VJC0RGGXVoWFttMR3PmI2nCBUhkBD+snADBEtjanzICEKTZhE60jSVmYdqJ9nBTqtDs93w+FNXD3QkS7GP8iErxazCPa61irViOe9QRY5yMqOcDKHTo65qantxiy6EwMSK9911nkUhucF6Vk/usvIYgcSJZnW9w8NbBcuLOTulZVYYjp1YJI0/sURkrOf99+8z9CBcwAowSjxhO6YOkCiYVZZJ41noxDz/iov3pzcu8KaPbvPmewecrD3tPOLFx7p8261L9NJPFMeNiynXtTT3TxvWl1u84qouJw62L3rX9vkJb3/TPWyfHeNG87iy1tFFbnjeUZ7znMPzI5eAKJK8/CVX8MH3PsL+5ph3f+gc9921xWv+wfN5bLuvovk3O+OoxhXNqGJvY0woGygMUeM4dmKRx+N94LY/vpf3vukets9PKGxg9WCXV3/Hs7n5OUcuenZtpY0rGvzMzBdzVeDBO8/jbKC/kP3FuWxzdMXoMO95z1f8zdf2vwJPvgcRCSCIowTBFKEyCHPjt3oL7G4VzDeyerw1NM6CgGJvSNrrIaSg1YowiKse2suifsuZx6cx3StBNsl4OOoI7TH2cUMsFzA2MJxOqCeb830HwYJKQT7uUwJ88MEN3nffOZ57cA1z1w4TdxcvvfEgcfsTrfCBg11a9+8ThGTlQI/JsOKqYxdX6tPbMz52aohMIrSATuPofBIblY1jZ9JQTw2V0rzoWJel9sVDv9seGvKr791g6gJJL2Nae9545y4H4sA3PPPAo8/lkeAK5dnaHbOu4RmH1y9q2a3xvOMPPs69t2+w1ktZa0dccbTP3Sf3+e1f/jDLyzlXXbX06PNXnljk6quWeMu920xswxaK5+0XT/gG21j+7Fc+wuY923Ramv1Hhhw82MGNKlYXMlaWsif8zbn7dviTX/ggO/slPlHU1nPmvh3e+ro7uPZp68TJJ8qm24ppC4mKNJ0koi4NojSs9PNZHCd/elQep1ss8VThSc9BnC3QwXD29CbFrEbKBAE01YTRYI+AIwQ/f6WKQUgIAt9UmKqh04oZDWZUZX3tFatioZcLXvnK112UxmrwrHmtchf0vPu9uAfxgAsB6UD4QKITRDNFWTPvyR5DIDDxARb7zPo5D+wVfPAvHmHzvp2LnltYSFlZyFjOFEsJXL2ScexxleC+sxMKIdGx4kA/pxtJup9sPiGhkRIrBJEWXPu4Ft/5wIceHqEAXzckxtIlIMuat37gLG/70Abv+sgmf/7hDd53+yZ2Y4ja3GclCix2Lx5abZ8bsXVyn9gH6lFFrxXRakXkIWC3J3zkfY9c9LzWkuuuXgQREFqQdxO0emLxn/noBne++V5OfugcW/ft0ooktjLkecTaasbo7OgJf3P27vNkkWChnxBqR+Q87VRT7hUUk+bicnGBalSTRhpnPEuppq8lbcQ9R5a7t6/3Mg60r/ubqd1/Azz5HgQB+CCECADeVYjg5q5Fay7MQQLgETImCPlobFaSJ9TGo5Wg24qOH1zKrvHebm/sHLsojdh6fGhIqoaVVkwkH1eAIdBONbLJGdd9Ihlo6inYErz5JLn2DIsR95xryKYlt3Y77D+wzbHHTChbrYgrD7XZObuHTiAkOb30E8OrunGc3i5ZyWO8lhzoZTRFRTuLnpDafXfcx3BLYFo5UR5YyC8277R2nJkarFZkrZR2EiFqA5OSSWP4rT95iNg6OkrQ0pLhsMTXllYekSQXv+vsA7vMdqZIKamN49S5Cbujmp2dAlkaTt15nqo0pI/J5xXHF1nuZUxnJUuHuiytXCzg4APnPnqOfq6JWpoD3ZgTTztAU1kSMXeB9x73TSEEqv2C7kKGH9XU+xVprnHWoRqLtxc7RpJEsbaUYytDogRr3QRnHNNJ8461+0/uvicofvItBz8ddf2vxJMWSCBCxZ0mNLv73k7nE6zgQCgE8/3WIRiQ81NDEh1I0oiJERw+ukAxqUmkQGnZc8Z8IdXoL/rrjxvPzhoUjU2dM60w3876WLy3VFWJUhpUzKjYARzON/NFqMfRbrVItWB3cJ5V1SZrpWx/bJP65deR9Oa9hBCCtoJzD+1xzdPXiQ7kj47dAXb3SyY7U9rWobOIrJdxbffg/OCHx83S22lGljpEKyHJNPpxH1BZR9aJaRuBNI6VSDLaH5NVNb6x2IkjcRYZa9J+SkIgRJJeO74oTwB1ZWh3U5rSICJNzXw5yrUT2l1DKBqa2l4kkIWFjJZWLBzok6fJE+zljKMa1Sws5ay2Iw6td1jqxESHu1xx3QqMS9LHuN0vVAwWlnIOX7FId1hxoJdQF4aN02O0DcjHn0gpJZ12RBQLwoUdmIVlZIV+y/tlh6U7H/701fa/Ak96iKUTwcfe/22NwD4cfD0Xw19aSMi5uzfqIVWGLfe4+oolXvNVzyJJU5QQFEVDXTTkkWSxG7+st3Kov6YLvvZfvPPRNI5EnqM6NCda0aQPT3Apem+ZjHeZVgVSJ0RxHyHnC5MhPN7tGgjWIJwlkTFL2QKzoWHj7i2GD+9f/KQIfOSP7uadb/jIPAr3MWycm5D5wGIrZqGTcOj4IiGLcVI+bgAIB685hl7ukbUTFhdy4vjiWFAhJAt5yvFeQtdZ2rOSflGxUNW0i5q2s6SCebxXYeanojeWKDw+JVhoJxxda7PYn++lcEKgYkVRGIx19NvJEyqnVgLlPKPzUzZP7lGMqye898CRLtc+fZ3F1RZBCYwQ8yNGjy+SHVlAP77nvJC3/nKL5RNLjH1gd3uGLQyicY/+/lGsIxOQMJ/coyXrxxdvJ0tvl+2Ew9mJv36t/hvkSfcgibTc8PR/i1DJXSoy3ttS8peVUkYgFDrS2HqGEIJTp7bY26+oC8u5cwOK0QzpHMlKm/Xl/BkySp7fGPvmf/f3ns9v/6v5a77shkO86AU3mN94w7t3t3eGhMetg0SRRtAw2D9DFHVQMkbpFtLVpMkThzzFbESsUrTWHFtt0xWBvUnBw+8+yeotBxEXWuWVowvc8gVXkh7q0XnMsKMoLQ+endDqJKylETqSTHenmMrQXu3w+MZxHAR7lcVUhmRJIfXFDygB1aik3CuR04okVUSxIpKCmbU4IZELGf2FnFA27G9NcNZTTZ5YkQ+up4jDEWdTwX4Ng0HBbFRRzxqs9eA8Wl/c/pnK0tVyPmSLFXl0sYCVlnSXWmx97ByhsigBvnGExmL2ZkSZQvYeb2eBlNBazFm5eomzwxmzrSkL/YS89cTqJXzADCu8FCR5RNpJw9LBhT/I+/VIm5K//bqv+XTV9b8ST1og9ewAnYUJUog70rQ73Nk8uxjC/FI7b2ukFBw+dohzp8/iC8dkWjGZFiACo82K4ObhDFW9hDW21W9lX1ueV2/7T//5ffbHfizwYz8mCKVl4aa/7X7y+775XCAgH1fA7Tyn0+oxmwSEkBgzJQSDlJ7l5f4TCi5RHWbjk9y8sMiBXBPnmmZScfJdJ7n5659O68DcF5X1Mp72susIiSZ6TA+ysTPjzKghjiRaSRKgGs5ITSD+JK269x4nBHo5o3ewRXicgLJIoowlGMuxw336mWJfWfJewtEQ6Hdjotb86mVpHWfbEbtbM/a2pjSNu6hH6h3vkIsl1O0z9u7dp5k1TMY1prLEkWLlSO+ibwEYnZ9i92ccPNxDa4nyFzdAznqGewU6Vqg8Ik0VmQQ5rvCzGr/aIpjuRX8TCJhJQ9CSo2sd9ta77Fs/P4AhVqjHj5PD/CgmEUtEgM2t4tRDG6f/WEjFiXOX7jbb/xVPWiDT6V3k8UGklCfLonjYh2hRCIiiiMY7nK05ffIU3lqETOYTdV8SvMFX+zhXoeM2ZWPZHRQMRvWXaBFfXYy5px1/EIA/ft1tfP2XvpSP37d/0iYm1LW9yLo6FvTzDgtHeug85vzmNsPRgMXllOuuu3hiJ4SgIxVH2x1uuXKd2HiKSU2soJlVTB7Zf1QgAPmhHuKxXp0AD2/OmDrQkUQjCGLeyiZ1g2ye6BTItKS7kBOvttmaVjwyLFk58IkWN4sU692Ic4OSJtZUueTgLeuc3624+WifL7hu6TGeO8Gf/MkDnDv/IFtbE6ajisXHrKCrtIU8tMLyWVgbNIwrhxjVJFrSShXXP+cI6nENzHhjRD9RhMqSLc7d9I8lhMBsd4YflERaIdopOtXossHvlpj9GXKpi3rs4kkAP6nYemTAzsP77D8yIDaeamYQB//SufPYcpmHw3jrcdbjnfyjM7v6gcN9y9tOPw34vc9Q1X9yPGmB3Hffj3HLs/8rUdTdr2x1Oyp5ZvA11vn5EMs5XFPNLaATkAlCSRQNphwgpESgmE1rzp4b0W6nR1qt8KVFVd9TyfmEeVItcm52luB5oNX2s/F+0T5wpP9oHtbWenzZl93II3ds0sljrmzHPHgvvPqbnsuJKy7evEQILCnFs46sc2i9QzOpOdbpUmxHhKZhtjcj+PDoMKv9uFXfSWG4b2NKISWNCQQBUxPoB0E9rTHVEwXSSzSZCIz3xpjGcTIteeZa96JV7S++eYXNpmbiHOMyEC+3aXLLsfU2iE9UqGltub32TFf7TDaHPPDQHs+9KMRE4V3KdHdGsV/gQwAhSCPJjc85yhU3r1+Ut8nejIc/dJZESILxjLZnRNETp6CzaY0b1/QXMyo7P50yTjSsdWke3kNNax4/vXfTBrM5ZuOubUzjUcajfaDdjv7yKopHkWK+E1QpRdBqL1Lqt154RHgGr+dnNp9a4oBP8dif3XiFxWbTCxl9UEr5d731wtmG+URdIaJ47koBgm+IM801V13NPR/7GNZa0tYis6Kh2ZmyFBAI9dJ20vuFyg3Lf/JP/gcffeP9TFPPeFKdfMHxo1sqcJEfMo4VX/+tz+TM3VvsPTJgd3fCV7726dzyoquQj3MJC+D6Qz1MqlhaaxNWW6SpZtyJ2NgbMzOeetaQdubF/fjW9vx+yaTyTKsaJyRplmB9YHcwI57V4PwTQk0mxtPYQEdprJDs1I5J4+aH0F3g+HLOt7/oBLedGnD3uQl22vAlx/oc6l28znHveMbumifpr1Cf7XHPTs3Ta0fymHepboveM4/T92cYnxvTWcq56sY1nvaiEySti99331+cYufUgCiLmIxr6toxHV+8RkGAKFbz6yuKhhBLJqf28bVFLuY0HpR74tCy3Y3JU00KhNLiA4Q8wsAToiFEmF8jLYDgxdsXl7ofMnXFb3zg7/NU6z3gUxRIf/BBRP9qCOEub5uR96KP0IhgQUUIlRKcAW8hNJhiyv33TGiacn7ggJmRLqyTdzPiVszMuadV1ewYgnu3b1e8/YH/i5tu/FEmSm7dtTm475d/6y+u/JFrv4os+0Rhd7opNzz/GOF5Rz+xHzxAM62J8vjRHkFKwbHFhLIsWV5MMR5ErFg82CEeLDA1gd2tKYc7T3R3+hB45HwBztOWAhkLymZKlufkvYwsVURZ9IRQE6kEsRIkSiJSWGhLgriweHrhaSHgQCviK25Y5cuvXUZJ8YQgxpHxPDwzvPBATjfu8N7WjLsenPL+O7d50TMOPPqNCMHCVcu88MQSz7uwpfjxQgfYPrnPbW+4k+m0wQlB8IE4llxY0nqUAITGkSaarJcSd1LsqGRiPGJjjPeBtLl4XUPMDUZTW3Q078EGE0OtBONR84QeREiBUoIkT6Y6Tn5FeVNPw4A/fejVn7la/ynwpN28AOeGf0QUxURJfEZKsd3v57Q6bd9aWGJlfQ2dJKASkBGd7gLtdp9yOkYKjVQRqIi0n7F0bJED1x4gX2qtxr3shqSr0c/6EkBglo6Tuc1yWNcf+IM/+QhvecvHPmlehPjEYQlbD+3y8bfeT/CPKYwwdyV2lKCbavr9FBECpnZk+fx4nP3dAvc4TxnAuLCcGTbErZhrji1yzaEuh1czltcylg71Ue0U9Um8ZktacCyCFenpN5769IRzD2wy3Rt+kqEG86HG48Qxbjxv2dhH0/C8lUWu67VoJx4r4O3vPsUHPrIxd48+9l1KEMXqk4pj7+yIt/3n9zLbK+j0EqQSOBtoZZosvfgbBFC7wNZ+yf7OjKZoQIAJgVlpcdH8ONbHEoDRXslkqyDNI/LVfL53PwQS+UmuDxCCqBWzuN798+ufcfTPjly9wiu6L/4bqMqfHj6lHqRJb8KbBu/tAKm24jg52uunb93e2n/p1IckSmKsC4RgqIoCgkVKPd+Kq3LSTp80iYgihQdaeRS7JlyzsJzz8L3nABif3WOxuw7426qG4j/8x3fmRWl5+cufxkL/4qvQTOM4eccmf/arH+bqmw4QQsA7Dz7gjaO1kCGtwZYGpyTGQ0UgxPNrC1xpaEpLkkcXgpEFiMAjeyWTC6eQZ4mkKmvW+h3GtSFb6NBUFhFpjJ232vPJbmC1F3Pr8Q61hXPnxtSDhgfub9g6M2HhuOHE0UW6mX6CexjmZ+4+NK15x+YULQzXdy2DuuB8VVE72BuXeC9483vPUXh4/jPWL4oAfkJZFYaTHznL+19/B9v376CVxFlPJAR5O7oQATE/7Nq7MJ//SMHiFYucv2+HetYwOzNEaomrHVEkcVrNT2k07kLgRMBbT1M7ajc/md94aB9uYQpLIgXeOGxtCWHeqwfvUb2sGtf+l/c+fm76b37xNk6W/8+l1sH/kk/5fpBbbv0ptFRJ7c1vhxCuUFr/I4/4JRXHR6QUNGUFtiS4AiGjC+N0TxAK3VmhtdSms9wOIeCojbZl+I/v+p1v+P+95Kt+l3e+8atpt1/GsWPPBiEOBdxbna1uiCLFDTdcxTd/wws4tPb/tfffUZ5ndZ0//rjhHT+pclXn7umenIcZ0gxRkiyogCK4knRRd0Ux57iCsrqiID8MuIrKghIUJQdBcWCcyDB5eqanY3Xlqk98xxu+f3xGXX9rYLp76MHlcU6d09WnTt3XvZ/7qpter+drLF0KcPLBdQ7dcBSdlVxy9U6mFpoE1pCWlnpQEuOIpaA/LKnSiJFU2FBTRwG1kiTtmKmdHXKpGXlPjqcSkuXNin6/IgoUUnhsPX6trgUEcchoIyMxlm2tgIlGiFaeUT5C6hDpJdmoJMschfVY67GhZl1IWnHAOXMJ09MpofJUdU0tNavDkqOrJXdXJVPTkufMN9iZBtyxNeD6TcPJ5ZqlW4+x0wdMSpicbfDcZ5yD7OfIvGSiGY5XIuuo8prNxR6rB9dZfXCdvFfgSoupHWErZFQYrPM4D7sumiNthFCPHWBy1wTCe7buPEnHe6YmIsrSjiWPnKcxlRDNNCj9uCxCXVrKwrB2eIvNlSFhqgnSAOs8Wa8ijBTT+6cJYk1pPTLSOO/p9cpjYaP5bVc+7uIbVlbX3LP+26Vn2w/+VR5x2R7hSoQMvbC5BfdZQet2rFk2WbVrvGOz48BBqUGpsay6aiCVJE4DhJIMR/Wmr/h0YKqXxjpsvPglS3LInQ5g27bfBvnHBGp6uawXbxZSXFTXli996RC7t81x/u4ZZCOiM5Gw8sA6K4s99s6kY5X1rCId5bDURZSGKo0QrQipJDhPkEp8rGk1IlygIdYMRgWlCtiqDV2bQ9TA5Z6wMsRaUAlBXlu01uR1RVTXtEJNlVdsbRrssCIMJUZYPBmBlAjnaaUBDano5TVbTqCUIi8Mdy8P8L2MtUHJsa0RstOib0a4mnGt+ImA+wcZxre5cyg4tuqxSyUzKiKsDTOdFDMs+cyH76VpLKOjG+iiwleO0FoiJalqiwaSSNFsR5jCYGtL7TyhHqf6xmmALGrWlvqkjYA40iwNS2RlaHlHYzolmIgpuwVSCkw1lnrN+wVbKyPQkqAR4j04Y+lMJeMHytKiU00ynVBWlo2lPtXDSvNRGtCZSZloRTvTufhdh08c/uhwvfyzt77oL2+uY5/vUG1e9q5nnm2f+Gc8wjLQL2JmZpqqLiMwLxG49yGaD3iXfZvH7cabh6tFWfCORjNFpm18lNCZ6ZAbP75r75ddjPhLkxdPLbLqdr+ZfbhfrfrFY3/B5uZbiM7fTjAMPJIJ7+wLvTdSSMHqak0tNAs7Jmk2QkarQ2RWsnfPBAvbWkzPpLSbIcPj65z80kNjndpWQtiO0e0YPZHi0xgZCIJIgvoHuVRAa4yvaSUR0gjq0hBHGucclYXSO3A1SW3peIG2jsBDuxWiFXSaIZHypIGinaYIBGEcYJXEhhKUZaIRkiQCody4TpCQrA96dCZiqgi6w4q1UcFDtmSxKHmgD2uHt6gfXCIeluisxowKqq0RDAqmmwELEzG2mxMJTyvRNEJF2S8Jw/HtndCKMqsJo3FFpygeXy60OxE4j9aShZ0dGp0YZx22MESRpjGdIqOxmmSQBIhQYwNF5cEoCYHCC7CVoRpWNCZifKgYDCoqLZm/cI6wM87S7NWeKglxaUgUKhqJFnltJ/pZec36Su+bltf7V29V1gezyeovXfsD2eMOvIQP3/mus+0bwCNcQeL4PvAXIWAKTx8hbxKUTbxvR1GEdQ5Tl4x3bhIZN5FxA4ylN6xQHrzxBFKUaSiOV4ayqsr+33avd9ft/CcNpHnzDLxcRAh1IzJYyv1op8PT769z+CHFOTs6FCfWOH7vCUy/x6WXTTG1rUU6ESC7Qzo7J6m2Fsgqi5WKnhcoN05oknIcAIhyKCVQ1hLGKd5BI4hpxDGuyKligcIx0QipTUmoBHGQ0rKGTqQZ4CnykrIsCLAonSDsOOMuMwaUQnpQSuKURYca76GyFqMUPvKM1ro0VQCVp92JiIRjc22ISROGSmJP9pnvVoROUPQypBTUQ0eoBI1OzMx8i4v3TnBPVjFaG5KGkrxbjDMlWyFRGpBOJrSmxvVGsl5BEGvSRoQpDcWwpLJQ5zWEis5ETCGh0YyohMAMK3SkkZFGS0FeWIQS7LxkOzoJOHn/GsNjm7hQ0e0VVONMIbwT9Ec1MpCUgaJuRQydJ9GSi86dZc/uDocPrrP00Ca2rCZF5L+pEYuvXzmx8qU/XD7ygUYSffinnvfBB0JR1b9wwwR0n/PV4SC7dj0fITUCLgB/v7Nu1frsWvC7tFbgBLZ2eOeQjQl6lSCOPFGkybOSJNDEkcbr4IQz8qEqK/vesXRhZ55qNPjHdm694WW89Il/RidsHDk2XPrSSml3omKUsExFEQ/ecIhEFLQ6bfpS4EKFnm4SziSY7hY6kXTOncOujyiwjMqaRhzis4pGK0amAUZ4oiRAY+kVGTpqkPqQYb9AokhCSbc/IqgsvrJEYUDiPa6qKLTHiIcP99aMlSVlgNaSyjlEPH5XsZVFC0HkFcYaBqKmEI4gjsnKApUGhKWmLB1KSI6WXSYn2+yanGFzY4NmVTIVSDY2R3QExErQacdMJAGhdVSrA05YS9KKcHlFoseH4roeX1TUeY1Skqn5FoNhhdCKOFQ0OzHdtSHlao2tLRvHe3RmG3SmUxpJgJQC50FKi44UTohxTRUBC3sn2f3E3cSzTWwSsrTYI0OAVmSjChVIjLEsLw2IZxtUWuFrj5IwPdPgwiftYee+SdZWR0gpGFYWF0h8UUVlVj0+CO3VwhavK9byv+4J/Vev3Lt160r5lo1uEJuk01Bbm/20GatQ+dIpU4/qIMlUf9mac67l85947tl1kL17X87R4+8ijhYazpvP3HPXz/D4a37jRaO8O5GPBggBs9MTbAwrrvj6qzi5mdM/voHLa4Rx5FVBVSlak+EXRptrx6wxWxKOCiCv/8+HrRYb9nf5u4fely+0LvhcYfr/KRABFy3s5AVPOsBgKyNox2w/bw4fKGYXmgyyCnlkRLnWI6wMQ1fDdIyebCK9InOgHIi8xomKaDKGRICTNGREHTiqymIRlNm4oE3qBa4wTIQaX9f4ypJX5cP14BXWOayVeKMoHKRCogKB1w4fOnQC0kDoodCAVAQyYOQqcgETM1PIQtEfFPSGDlMH9OqaVq+PHBVsb7cI8pwtKeg0A6YmGzSbIYOlHpOBJC5r+sc28ZVlelsLV1q21kZUWQ2Roj2ZMDXfQkWKLK8JmxFhpOj1CwajGqclSRKQd3OqrKK/NqI9mYxXDAUSidKSaljhKkOoFUGkGQ4rRFiQb2VUlcMFijjRkIYMRxV1ZSlqC9YzKMZq+FESoIXg0L1rLB/vcXxpQCYEmR7LqpZZibaeWCDjut4VJurVx7PiZcFEdLwp4uMLcxPDY4u9xvZpNW0GWeRNaQOhur4eHtwI5WfdiVs/feDAK5bj6CruuvsHz46D9Hp3sbQBuxfCj7zgkqeYZvTbTwLzcq1TgjCgqAuqWjI7PcnxpT7JdJNzz1/g4M1HwDlMNaKuWCtr90FGmwOh9DEHR8BTxv9cMmbj5oeYODBFXq7f0PC+d3G70Xn2/gXmG4rGxBSz580xt2uCsnb4smZ4cguX54QE6DhGK4ePI0wrxo8qpBNEjQidRsjJkGgqZG6qw9bmgG6W0YhjfDrWGfbe4wuDqA2I8XlqVDucdeMJb8e5HbnzVPW4fFqoArQUhJHAxwIbWmQzoIGizC3GBzhg4C39uqTUgrYOyYucMFFIK0hoEgImN0zJCD8yrPcyXKCIYsUTr9lJ0gx58IuCZlGhy5qsXzLsF+OJnNU4D2GsCQJJmdXjAqXrQ7orQzZLO76SNhZvPYGWBLGmijVeCJyxZFvZOKT94eJC3jiKrYx6VGE8bK2NmN/IqYqae288QVGOU6tNZamAwnq8VgRKopxn364JlpYHJO0YAsX9hzYIpCAUgt6oZnNUY4ualpZQO6Qfl60oSkuOi4fGnNut63Pz5S2C2rB/e4vNqgQZEoQBW8ZcNyz1K5xWtyl92RvrcvDRiy95g737rp85Iw7yiA7pi4sfZGb2FZw3k7rNfjcZlcWvOO+eNNlq4KzHGE8zTdk+02JlqU/gPb40rC71kN7hnUXp6A+cK/8wRCoh43OFjP5ainB4MhqQH//EP7Z14Lpncn6RMqmT4irVecHzLjl34ZLH7UJqycyeKdL5FiJUuLKCXk736BpJHBHHMUEaU0jNpvP0TI1WAXEcgPBMzDYJ2ylOQauR4r1gdb1PUVqEEBSDDFl64tqR4nCVJc9rPBDFmrwabyGFUogopBIS3UpwoUaGEhcKrALnHVGSEKcJeV6hUNRSUwtJz1hGzjEbxaSBoJ/3KFAUWU3ialrCMKNCZqKAUArSuuCa86a48vLteO/YWBngK4u2jv5yn3yrIIo1ycNh7K62NNsR/c2crUE1FuqONasnB4iHHSNuhDQa4xx7qSWNqZSphTa19VjnqfoFpjI455CBpsprvHFkWzmbD6yTrY9YWxwwKi0b3ZIsrykrS1U7ZKCwtSVtBGysZ9QCGrNNVnpjoexevyTPapaWB9TOE8QBO7e3cc7Rzw292tPTgpXa0CtrxvcjlshYppKA2hpqM74Zy73HKKksfqe15lnTkzMnb77lh+649dbzOXjwA19ZBwHQO17DNnoYUz9De/PTESJSDipjKU2BRJIPaxqRprsxZGWpixACgUB4dVMUNX5EEWzaqhICF3j8vUhljtz0z5fFY8c+xw8tfAfzYm+xS9gnNIy/Iu0EzE8nBMLjooDBw8lEqizorq3TmeoQtRNqrSikpNIKpxTtNEbWFmsMvSzDI3EKwiRilJUUmaUuQXqJMBB6iawMdVaNwyiqcTXbMNJYoKg97akU4x1WQjSZQCLp1zl5VaKkGgvoSUFhaqpy/FpfK1gsRqxWNbUfC2FrLKkKkISYLKclK+Ziw/bY0RQ5E024YGeL+Y6krD3DrqHfLQikJNvMqLMK5TzKOvqrQwYbGXVusM5R15a8tFTGkQ9KTGFozaTM7hgXPCqGJVmvHIeVhIpWJ0EmIaPuuEpxGAeE7ZjWXHN8VVwakkhTLI8ougVZ6egVltI6dKSpaktR2nHSlh3XcPSBYmgcuRgnX/X6JWmoKDYyTGlImxEWGIxqBoUl15JN69isajJXEEcRufOEWqEElIUlnExYznP6VYXRisoL8ipHKNWQUXrV295x8/X93CxNt1LW1u/+yjnIZRf+Ble4NeISpWTxow14cjsK6dcVhTdYLN57GnHMYFSQ5fm47ICQgHhIeP+9TtRfovJ4rxxCrdS1zU6eOEmR3/B/tXf19NXMCuuHwu3ztX1uiqfT1AyXBhgB0WSDOA5Q2jO3Z5r23AQu0AydpfKewhp0Go9ffMsKJcEKT/WwTJHyUGc1Ra8mVYpQaSIdUIxKlAdrHXEjpK4trrbESUBlLbWQODztZkizEVN5sBpGpsR5TxjFRFEMCmo3vtESkcYrz9DU9I2jdOPSb1OBZi5tsbzVx1YlF+zczrbQcmmj4rwZ2Lkz4Zz5aawNOLpasLGZEWoN1mGGJZQGHUhGw4oqq/Ge8SFdiLHMqhCkM02M9WAdYSti54Xz1NYx3MioC0PSHtd9lN7hjMOMSnw9zm2J0hBbWupRRdEfR28P+yXDzFIIQWHHcV1aCYSUlMaztlUQNwKcEMhI0y0tuhnRmWrS6+VUvQLlPSoNGeSGUWnZymo2BwW93FABWkqcdURBQO0stYMwjiiFZCMv2Sj6DL2h9hKhNNY7nPBU1k44a0Sk9Me83u6y/hOpqr85ZQd5RGeQn3ixIFs9n0AH226589BT1/slpXEU3tOaauIGAxDeOiU286qa8VIJHYZ45BHv5fe7zTs/x8I13PnFV8F4N9z/t9q7/76HSC6+gsrYpXYaOlsYuXK4S60E3kEnDujGmqntHWZ2TOKFoKgco02LGxiEgzhR2LJCJ4JIB3hj8V7AoGZrsIE3Hm9BNiKqosJLiRaCuBkhtaIYVUx2IjIpcGVNJ1QIB6OsJFOOoJ3gBFijkWGIUJLCe1Klxu+mEpJIUzqIkSA8UigmAoWiIg4EK0WPQhTUquKhtWV2qpLrdrQ4bxL0bIeqL1nNK2rrGYwKWjIgUYKF3RNsGcNgdYjxYLVialsTZxxlv8RkNT4NcMYRRgqRaASweGQTl9fjMtlakrZjlBLjOitZjant+BEwDdkalNheQYinMuNKvpkQlFoiI43PC6raAAKRaAZZTYGjO6qxg4qWcbR2TVB6OHh4g3pYkdaWIlD4ULM5rHBCMKgMw1FBEmpqazHOM9lImJ1qsLqVsZobNo2lrOtxVQGZgLBY71FSMjk7xeZGl0BJRKCfkxXFOVKJg7OzuxgOT30FeUQOYm++kMPJGoFUF4yQu1a9Z2BKcswdw83RLuvqyanZ7XfFrc6f2F72SziThEG6rMLo+2/81Is/cslTQu6+/lVfdnsVT8f6TbyQaphb1tcK1oYVcTNkJtSc+Nwhbj26RnzODC/+jmvZuW+SINBMxNNUJ9YJKYmUJGhGdOI2mxsjAqkAjy0NcRhgrSVtRWSlwRYGJyTWw6h2WOuQciwWp+VYKAFrabZCAqmYnk7YKPt4qXC2QdJskFcZRAm9oiTQlkZLUdgCj8SgEB4SCUpKyhI28pIsHzDdkEyEMVsVPFjDTQMgCJgXFdVAspkZamuYbKaorEIYR9AIkKGmNh4VSArjWFsdEQYKM6oR3hOnIaZf0OpE7Dhvhtx6NrsFsrbUxiMDSW0sOo6wUlBXlrq0RO0E2Ywp+gXlwyqSLlD0+zmFB1JNUVhUKMkGFd3aENUhznucc6z1hohA4IsQbcfi3/mgwA1LQiUpnEEFiiANscbRCRvj8tCBRAvPKC/wmWdtlGGFohaC2oxXCaEU0ntwNToKCJOQbncTZ2vSRoqKw+014nJvi4P793c4fBo6EI/IQd5w5/VsW5jCIs7NTd6oBCDUQe/NzztbvVl4Mdnf2vzgYMjH8PZHlJTJRLvxW09/zX/+8JOf9x7uvv41j8i4p164BzuxhariHWFTyGFhKNczpkaWPNL4mYRRabnt5mNs5PC0p+/gCc+5mGFlyGtDO0noJBHeWYz1aK0I5cMhploSSEHtHDhLosQ46UiBAXSsyHOH8eMyDu1GyMBZZKKplEN6hzYZ7VhinEIHMb1hidGKHAk4UiB2Ai+hdhaDRCKIMaRKoyKNkppOWROWGzSiiH6rxcEi4AsDy/rIcWDDIusaUxa4vMAVCmkktRcMS0Mvqymdx3uIkoDRqMJbj44USgiUhKnphIm55vgQXRjyUUUSa4JGgA41rdkmo2FNaRx17TC1HQs6OI8IFDoJxnXRrUcEEpNBbTxZYcd1UDz0XcWwX1EjcDicMxzYOU9zusPqoETUjgMLLZKFFsdPdMlyQ93NKa1jUFoK6zDKszXqEooQJzxhJ2FU1GR5hkchNARhhKlqcBbhDMLHZNmAMArpdBoMuwV7ZjpBVZfntyfaHD++fOre8UgdZPqciKOrXZqN9jaLQTiDlO7dOG5RIvRSR7Wz7mavqkWBOIlXo363fM9f/M93+Ntu+K5HZNiLo/eypW+hXrbhxERwNUFIXgmSMMLWnrWVjMJ5qiDERoJu4bn9i6uce/lukrkGQSBJovEHK6WkyCq0Hb9CB4nCeY/3Cu881ahECmjHevzgVTmCcLy9SpQgDBRFZYnagrntbbq9PkIn1ApyoShqGJUVGTB+JalR2h+vcF1T2wOgEpRmNBzREJJm3GAyjcEXLGcFrSRifyNme0dyb2/AQ5llS7dYCWLiQBGMcpq5oeNChsMSGY5fyfNhidAKFQfYwhCnGvdw0GIcKJI0oD0R055KINJsbuSoZoRMQ1QgqUY1aMnaZk42qscH89rQiMePhVmvIGxF7L1wjo3DGwyKmiTW9AYVw5EhLyzSeZJGwJ5myuLmiI2qxGKRviKwjm3tEDWqiWcbbG5mnFjss7GVUSIgUhQecuso8gxvyrF7KU0YKrqjYnxl7xPqqkI4j8t7eGNJGwnWhRR1hsOTNjo0Ox26vVWWVns4r+Y/lc1yZXP0lXOQRmMG0+ohdNQSVYW3duB9/Vkrp/vt2G+mSTTTH7Fx69Hb+pfvu/RBiWTYL4+HoQR+DvjvX3ZbzylXuN2VkHDJUjW6rlzN8HXGglfs9AFJHpN3K2Zmmui58a1VnsHmSsGBuRYT7QjhJEoJYqUQJdQSJBZvSoJYo3WANpLEB+A9YRpSVI5SQJ5VqEAhvUAKT6I9aRQwMRNirSAvSlyUUnlF7jybpcWGYF1JVeZux/T0m2eS9D1tx9VVaZ9alOaJsuK8iHq6qeOgGmVsuQGFH08ylUi2TTToW8u2vCLRCbIUDEYZOjekKsVpR0XNsFeQDkuqUUUcSOpAMuwZstLgrUNVFhEo0lRTZbXvemFGPtcrvUK0tBof6CXgPWVhUP2S4WZG5P04JyQev57Xw5Iiq1kPFaYYXwbkWYU142hgI8aiDXlW4+qabl0wPo1ImmFK0a9ZvH+d1rYWRa/gyMk+1kMymVL2CjxifN6oDcKPt7O2thhrvHPWWJOXwrqhDoJRKOUwqGvhvN5eCTE9M9URtXesbmTUdUV/cxNngPFBHanC5AnWSCcj92VPutN1EOcqyv4WTKbOC4FQyboQ+ngw94Rhtf75g5T1uV5Ie9nOi7y33O28a3g5MM3oXOB7HpFhN1xeMqvn5dHi+CsGvtrWcx7tLV1XEuhJdknJcCMjKw1zeyYwMfhAcejQBlPzKbM7WvQGBaVzhMoTRI5QhyA8TjhUFOJt7aQrhFaBkGGACCSxFAwLgykfDoEIBdJCS4WEkRure9QeSYTQIdYIellJt6yIQkkrBRmJ+wYu+2BvOFz5jj17P9KUfPTzh0ct02jsjtPoIqX0ZYurixfOTSR7g1DNZ3Xd3qJM7uqWumsVE+2UcmgIrEZXkrIw6LkWRw+dZNgrSCrFxuoQ6TyBkkjvrEeUdWnzOA36U1Pt9UaqlrUXR4Xmodwouzkc/Zwt7fTyg+t466ljPVapBFxRo50nVYJQPqzE7w3Bw9/b0hBEmiCNNmTOsaw7OMdJ3zbWCS0FmTUMS8PQG5TQpDKicpatkaF0FXlaMKw9thERRZpEAoGi1y9ZmGnVUTPcPHRodTEIWkeG3c3DeI56708i1CpCbjnjBrNJOpoIAtbr6pyeHb3+2LET36qiUHkkmBKBIBv0EUFKVRuEyUyz2fO93iN+yTh1BxkMujSjEGvynrcFONP3ujlMR7c5HyefaHeS5/T6dWy9xTtzN8hLhbcY88iXuRjNoOw+fkK2XhbjaCpJZgtKm3HUDhmWHmREmeX4JcX87g4z8w163ZyTx3ps39Gi1YoRmcEUGWE8zuLz1qFVACreEKF4m7LqKS6zz/yHLCYpLHEsKdy4om0hoDI1xlj8oCJQGlkKskFNRUglQbqx3pM2ll3NjgsT/uh58wtH/vTYcX5dwi+Mc1v7wF1D7+9qwHs/qSeD3ZPtjnf19JYt55d73flKRfNOqSmZ+UkduGYkmlE17AedZlvOzM2xtT60ahBVvaNbhcnMQKmw12k0upEyG74S67GXm42JaGPHwmz/8uu2D9Pt7frj777FR0JcOSFqhuLhwEQpaHcipifHEqD5qKLZiQisI9KSrDCE7Xhcom0yoa4tVWbQXr1/amLqZ0+Iwfla84S8qq6pjb3QC7G9nTZbo2IQjkwpACo8AwNNqxmVjjIR0E58lptcSrmB1IeikFu0Dm/qTHTuM3brZJzM9Z/+/O+qjx89zl/9793/96QIXsFlF+xfd44fdEJta7cmnpGNCjwl8LBInR1HPngYjpaUz8PTqyP9iBzk6JER09s6eGdPKinxMs6ljsq8LLBOfSQrqheBaEghEHCDEHJxdmqB40ceWTGU97/gT2jGQeuBrcEPr66PFiyCZHuLja2cXt9zpFplpRmxe36erfU+3nniXoE/vEk41cB1C+xmMY5i1RaTeIgVeIF0EnSwJGT042Km/S5xYuMyXP4+X9tzERJChahzOlMpmVOM8oow1lhT4o2jLg268thhwdA4htogbYSyhsjCtAr/fu/c1J88WNRM79vLq/7/0geb//R9Daw//HX/P/znnWXNN55c5y/2TImjq0bGUShnAs2JpRFD5vzEvhn/dS9O3TaJf85uuFv86zlvJ3/VMLOjgyboJFkQVkfWmZxKaE7EKARhpKAypFqMq3VpMQ45AYJ2ND6HjMaiHNmwHtW5+Et8uTYsJtd+7aaXXP/6S98ZGFlNJkG4I2mnu3vO7Rw5FgbeThjvE0OpijIwaSaydDbeCILwpK/sUR3qI1ulXz7yUDZsTUj/5+/9p2jdL3z635gY9Z/gwt/A1d1VIeM/ddY9zZtCelchZAAywNtiHCsn1UYRGvKVL6/Y0BlxkCc9aR+GFs65w0K64uRStyxLbBRpnK82cO7nPc546bnjtu0n4dtPPlKD/uj8N/DNH34FH7zuHa/qhLww3tHGRYq8qFEGJuIJNqiYuGQvr/7er+Njf3Qzm3cvI52n7ubkWc0R4ZnWgvmL5pAzIelEAxXHUFaAOSLD6AcI2n9FP/P9Wz71pdblz3ivi/xPiyQB54gYIrRhtFUiK0/SDggTSZJMs7GyQVXkxIHAasfQW0pqCCRJGm0OhuWv3H7f+lIsc15w8SOX0bz0n3LdPWAf/jolPlR9jP12OxV1uyhNFDUiVFkjPbQm43ENxW5OrCXKWpQU1NaTtCK0VhglcMjxi7oI7nDO3aSUZ+8158Ed8JY7X10Dqw9/fRHg197h+dHXCrYd+GaWHvqMQDzeYw8CD51qN/4ZE3FE10QIuKvf7Q2UlB0pA4SM8XhUmOJt6cMw3UQ6tu9MOL546u09Igd59Wuexd987jBCqMO3fvH+taosCqVbtjY1gTAg/R0OLxYmH+BOfhT49kdkzHvOfwOulrz7wBuenq32fnyUiqiYDNCyQSwEZeBY7Q8pnCXb6LF0cB1b1axvLLO9mGRizzTrxrK0OuJLBzfYqyTtcpLt6SyRTkAEB5HudWjxKcjhrttpP+Up4O0RpaR3Ugi7MiImwIcabTOazjEVRIhEcWJ9naCZkCTFf7i/AAAs2klEQVQp/bUhWkDbmLE2bhybTMnfOjbIPj6tNC9+wv4zMiFOh+c/8RJuuu0ozVY8UVR1YAGEwJUGihonBXGsiQJJ3iuoajuO+AUCCdXDefyTs00m5sOPTl0YbCz9fc7LfvJfL0/wo68dr2hLD74fwMPHz2ifijJBij7O+l6SpDlUneGgRIXReHucRHgj7cL2HT2toeieXnuPyEFe+RMfZ0GVGGvX2xPRok6aA1MqqwP44o2v/4cf82Mdkt9/RIb46w5x06H3oaW+IJf+12ykdrabis8vL1HFk3RaLY4NVjlRDYjDNu7YFu/9zY/gZIxDoFRArAQtLyljzdA41paHiCjgWO4YTDfvnF5ov+49r/+7z7323c9BSIFdewg5HQm3XF3sDcJXBWLksM4jhKcdBNjIExqLKSSD9T7xZE0oAgpXo5OEVAqm59o+nZz802hh4jd97cxM8/QOhmeKj90/gVq+hSqbmSxqK9JWRNW1NEKFz2sKIVCBpJaSPAqwYcDmZoYqDFNA1I4pS0s2MqvTE8nHtu4z7Nozd9p2nQ633LLMJZdnlLUpktZknbZmmN02w8bqJsNhzqi/hVARi0v92tqa+T2nV4znEcn+9O99Hc2JaayYzyamp44labR+163fVVfVI/o1/xfee/7m5EdovuzKc5Jm8pbdQ3H1vkqwJ5NcFEziyhH3rR4hrwsWghYHZMpV6QTtbAijLqUZsliP6GeGOqvZWh1x9HiPL96xzL23LZKf6P/9kZuWvuODb/3I567+xosQUoxLO8dNKKOrkf7FfmhxmyWmdNhKYLYqYidIoxCcxxQOpyNGziJ1gBaKOqtoqAZTk+2PbJtp/cRUZbp7HiPOAWDkeJdmLJPGOOq8RlhPkdfUQiDSkJFUrNaelcJShRrSiFIrRtYTNMaBhCuLw8+vnsjvXj4x4AUffcFZ7tWf49AorcvRaFgOBn2COMUBHoN3NUIonC0CZyrscPW0WnvEog02r2jHPbNxMjgKonvZ436LVJSP9Nf8I/ed98d8K/fzQ/umLnGmerOW/tmpltRCMJ0qrk4nUX3N5zcGOCnZKZrEVtMb5tRSESHwQrKSDzFHQ9JQM3fOFEYJBqOaYw/2P3nu7NTrb7t58b7Xfs+TaF23g7u+9c+objtJdqS7t/X03W8SUbgbRuPqS4EAr5DWgalxVDgrqUqHqxVJc4Y4DOn3eriqAMNHV05sfP9D955YPO+SvZzes9SZJd44QoAD6SapLbW1aClQjZhaSUwUsLYxIs9rhIfAOqyWBBMJhfVs9QomZpq1rfK/UJO+OPIg3Peu+85yr24mar6WLDP19l1JMTWTsrmZkRUeIcZ/nFw9VMK5jjU1dhSfVmuP2EGm2i26/QwhgoeEsBtCwHDwyI248cAf8Phikg+IpelvO/Dxb6gsP1IfW7lormcRUYieC5BaML1WctlAklYzdGNPZQRLvscRUbEmFd4b5qMOadimX3vKQDHTCLnw/FlTZe59hw8Nf+Luw+vH7j4Gret24L90mOU/uIvu++/cqTr6N83e5jODAxOIsEIwDp2gYvwKJjQ4h/Tg8oq2C+jfs8R7PvY3XPDkx7kDl+//gPb1D/vMHldXTNBemPiKTJEvl9AZJg48Qx47dNtkVdRIIVCxRnqBE5Kym5P1CrAe4z3pRIJshRT9HI+gGQVEk437rr1y32fKuubCte287mx3CjAEEEQV+OGJwycQIqDdbtHfqsHXeG+FsfWcDuDI0dOIVOQUHOSBBwr270upand3HCY9h6cxFPxbf1d+75J3EFofVrE8fyCq87Mqi25nkDwge+cFxjx1VQwur72MZ0eQhSE2TVC1J9+oqXoVQek514YEnZhFW9MtC4wYUUiNlhHGS5bzNXKVElQN3ENb2ezMxP/vWc+84FcuurTYuuqbzwXA+y8w/N994qt37MLbt6qy+AaGBZQepEIGHlkb6rxAy3FNcKUUzhq8t3TCADEsiJc2ipN33vO/nvGfnv6L3ZXuWqkPc+XCRWd10vxLBM0QTxnIVqPdnkzIs4qVzQwhFZ1Qj7WuQkUUjUNUWu2YrcIiJ1IazZCgGXH4xOiDT3v5wuI7f/HzvOZXdp++UWeCokeodH7ioaUuQtBodoiTJlJpXF0hpKLR7Oz47Xf8sPj5n363P3rk1Jt6xA5y4sRdLMztxjl/e5lVBmUR9137r/783Y97J2miZu5Z7f/kVmZfLn09gyyllEJmvhBSVKyJIb0AQt8gMI7loqTlQ/IAloRjGBqmjWfXSNE2JVeKDp2gyXGlyGVA5WHZS5bNEOfFohuFv3TicPFHb/6tzxdv/8jLAPj0i/+ST77yKDZj/8L5nbdOzyfPb2gQwxJdlPjKgHcoL0CpcXptqPHWYp0hSCWNiZTpenrtBY+75k0f+dKNv/PJn3xz9tI//YmzPV3+FWZYzjLcoAiiZtjpe0M/rzBJwOxUigZcPJb1abVipBpXARNKIZOQgfF0V0Yn0jB+/zt+/SZuW+me7Q79I74eEkUXlVZuHJM6ROmIdqdBv9dDqxYeQVnZnd/96l8OHZz6/p9TcBD4dW65DYDBv/VTnvu597xPEnfzYGjkT7WMef2E9jITjnvMiDXRxwOhEEQohICNwCFETW4la14xmErYCGvWspx563B1jbI1Ham4Mp1gqrKsOkmlNSmBM6K+fkXqn73FrP7d8oND/8Uv/ggAH/9vH2Hx9pMks61LcMXbVhe7T6vLkgDP/FybVLmx6LbxkFUoL7HC4eoKGQYEKkKeLJFLa1+MdPwzB5pzn3j9f3qxFT9w3VmaIv8+3/3db2ekhlTWhLOtqbZ3GknMzEybwHvKYpxcVTqoENS1o9/N8aEmtH4csCjkX3zow3fffdFF2/jtt1t+57fPdq/GjEYzqPBWr3TjfmsKvEs4eeIkpuyjdTTWLhZ6u/e0gbXTaev0rp/+DbrczqCEzcpdtLmZv1zXVs4UnmZpiF1F5UcMqKikZFq0mHYBTSsJvEFjqDVse95+5q5eILI1hootMaLWFaUakC6EBKlGa4nQajXx+k0LMnrZE63/3HdEe//ROT71c9czv8uw93nnPsFNqT/IA55Wec/ikR6LqwXR9gkINAhwWYEbVHgUSmtwNR4DuSnlSvauwV/e/q23LG9+1H3s049p5wB46UuvZveuOfbsnk8uvHBb45JLdxAlIVEaErdj4lZMISVDoBJQGE83q1nvFmxujnjogY2HVk6Ofv+Si7fb//H2r0eIbzzbXfpHFuYupDO7l4m57Ws6im1V5pgqQwiBsw5nC5zJ5x1MeQzJgb875bZOYQX58hiywYa0NB3XjJrMtwLFaHFIKAx70zZhmLBERsMLZn1Eo1KkxhIwInUKSsfwc0fpjAyXmhZhUDM/06LZCFhZ2uTYoQ02wjTbUvITee1+cxTEX2g5Y371zn98j+G7rn0nz/7vd/CDz0ifc86u8i2+qi7wtSOtHIFxGOeQSTAO+vACKo8dGJSyiFghAFGzEujkl2WQ/kH08uuGs9/83xG89ys5H06JJ165l3vkOlKJNDd5stobkA9zJmdjcuM4vjxgVNQ0k5DV9RGUhkAKGu0YoXS1ttJ962+845vueM23vJcvfMHz5Cc/YhnnR42pc7aQdYAX0Ww+EGrULxBCoZM2thjBOHOzjWA7Xt2/e/KWf4rleYQ8ag5S7lB8/egycXNw19XDqhabtqSOHbEVJFayUEtSAhpJTEso2kITaUdVZ7Q9yMoQPdQFJGE7IT0wj+5EYB1zPijdprkh9/z2CVF/dHceDL/z1e+Hn/4nVZSXPP5/cV/PiZc/IXrRel78Rnms3N1ynjkJgRbs2dZAzkQEzuHNWGiNf1g5akvRzfBb+Vqz03qdfPZ5H4DAy+t2nOpwfMX5lf/yDl70nc8FT2rKLBltjKhKOHx8i83cIIE8q9GAHlXovKLVjskqSyXVB0oZ/eFrXvMh/vAPX8gfvu9s9+afc/TQEsNevu2JTznnRRfPn8tNn/0izhhcIREyfLhEuUm9q3chPIMTx0+5rUfFQQ7xegYB3KUPTsjaX97IPLkaP1zleLyoaFcwX6VoEkaRY2hLMmkIhUDJiCBQBEJSI9CNANkIsElQ6ML//eSU+oO28x/Zufjg5oue/Bzku58MP/1P7V+287vJ7ADnu1+/kUW/FUm1PfAp2xsBuzsh550/xdxCAz3XJFQCW9bYvBrvXR0M71+lXBkQlPWfdkz55/2bP+Y7v/z8r/Q8OC2indvZfOA4AtHIvIsXuxVrhUEpSaOT4KRkNCrpjyoa1rNtvkUSa6rM39jN/M+3Etn/3d8/24+C/5zrLvodyp0dfFns9snwjYeOHntyc65N4B27yNG2Ytk1GKgQvJB4M1nVNfsPtDm5dGptPioOMnjVMzH3rmMDucssV/vCTGGdxKgKo8YyNWkd0Sw1lamQocGEhpKaRMJGXZGUCiUjSgm6EIPoRPW5qCP/OG6mn1rfu7W1k920P//tcOQX/lnbT3/6dejuHmqfdZwvfzhEbm8LhcsyEp2yY7LN3N4J0h0tgr0TuERRlRZqiXUe7T1+kBGDn9g398XCGdc+9Piv9Fw4bV71oh1ESzVBrFv3Ht0MqmGODjVzO6YJtGKU17QmG6ye7OGkJAs1U3MTD7S3qh/cPi8eWBqcVp7RGefrX/In3H33URpbw8uEin8LpZ/y+Gv2iyQOOfbQMb7v5c+gvX2Ct/72x7n+eA+pY6QH4TXqNIIbHhUHmb9ecXuUIb2+WAk/bbeFjApHpxR0MkkSR4iRQeJAjI2QUtNXI6zQSO/JENTGbUVB+IlGrv8oiYLrzYwfrn+uy97j3/mvtn3xxb9Kft/dCK1mji1V53VkRMM7EgyznUmacynRtg56dwMxKcfFYIxDSz2uO+IljYU2orTCajVZjSqic+96tD//M872yy6m646gkqglRpmci0LyytKcSpAWNrMan4QQB8TNkE2pVuXA/ujNi0dueM6FV/GLb7zkbHfh/8Czuvq/mJvb1hLavmFquvHUE0cW+fwnbqGhBRcniv1X7iOIJamv0c6O69IIjfCnHAwNPEoOcnDPkOs/83c88apnXqWt1525FL3kaQ0cTRnTVgmVKch0zSh0GAkoCPAIHEbKupT+40bJ33Qu+EK3rIqLb/xuuPHfb/uBB55EvPU3OKU3tTUPWVvujL3imvO38fjnnMfCRXNEUxqZOHxR4SsxFoyTAmEsXkO4cwqfVYjSfXtrsv1JE4q7/B/djnjVFY/GcD0qfOqTd7C2vomUsrOZFbobBey5YD/4gJXlPktZRlUJcinQiNII/6ZnXnzuh4ZhyPf+0GPJOcaU2QDvxJwO/BWuGZCEAaP+iNIrbu/nvOkX/5y2MBxezImDJsYLtG4gZYk/DSc549e8Hs8w8Tztm1+edl15WVnVcE+PucWK6S0Iq4DuVkUeSMrQE1pHq4I4L5mqA6aq1qBpG78Uq/iVO4z7zIdaunjOke/7stv/5CcFcnCYi4vO1jbZ/OUDtA9dpltcdfECex63nXRPA9H0OCy+8mgrCbVGBQpfl/jaQKQhVDhvrzTavV230wtt4vEj/2XbcbZpPuUCPn90E64475zpqy+T2y64AB03yGtH34DqNKhiSR9Ht/Z/5XXr9//slvvdm37smrNt+r+MByHlujHcf/LEJlVegncICSPd4rOLOR8/NmRTtWmJmLYMc+39iUYQMBye+jQ/4w7yVwt/xWizR39xY045d8B5iysdFjChJDM1xnuywDAMSpA1ibFMlDBVhmXHBm/cVmx707Z+0L30+A/zP+/4L4/Yhg8+8A4CWXFTK/nkLhO/dF8n/b2ZmcYxobzzxmNLB04jRIwvBT6r8VmBcDB+EPGgJF4LfCt4Si3s7/mZ9mXD6+/C33iKp72vMA8OPdd+9wsni3bzKXk7JZdQeE8/q9joZ3gpaXdSVBKtDZ17ywO97mBtbf1sm/2vIKgiR6M504sanf8h8MfrugCpxnUlsfggxIZNvMvRVARCfaipok/EMsC5I6fR8hnmz+WHsAfuQVn9TOftX0XGNSZLgVE1QnqkBemhVBUaUN7RMAFpaYmE/kCoktdYbwc7N3/yjNjj//hOyErt97bP9XPJ853wL3KuvMJJ36AGSvDWPFyM0+NrhwjGcUqunyO0whuHqMyXosnJH5e7d36KtU0nrt1+pofujHHryHJVKsV7Do2+d607/J95UUUYSyg0B+89SW9oaU202BrlDEbmz3p9/8pA2epzb3zq2Tb93+Six70Ns/ox9OTjv9O7+u1IHQqhwNZEMqAtFaou0KpxpJbhS6R3t5Xxfq6/8ZtOuc0zvoLsjo6wUGh2FOrCjpENJxx5UDLUOQ+Gfe5Lc+5vZKyFFQ6LTiOifTNEIuk1rPqdsC4HOzafdcbsEa+8FPE9Vxtxzp575SU7f12b6IVBkH6L0snvCa8e8t5aawyudmBAeMaCaUoitUY8/EbiBJfnVfHH+dKxn2E+3eG9x6+fniDAmea93nPr0KNSKW7su1ek3v8cuY/KkUFHCplITAC1cDRbMXsPLLiLrt736Sc/fVf1jT/8lLNt/r/IdU95P7CDS696W+iqMt150SvawruB95S4cQ16ITSJV8yohChomVrGb/uN23/wtkJFp+Uc8Cgc0ncFTeaOvVrcN/OWi4w2oCS59hRSMFQhh32fBDggEuYQ2LIgODFkwkd/0w7CLzhvgKvP+ECL86J/+OeWX7cfCxL5SY5v7LN59jyTVd/s8/oajE29c1A7RKoRzQCchqLGV4LaFHOK+ufKlaPfyIng3Z7oE2t/f+KIjRZGlCO/8MTOGbf7kdD7X+t8ft8WRW4evzDd/OVOksy2q5qsLGklLfp1QTwRsyNKmJuKEe145FrpA94JOmF1Vm3/1xgWQ57xrBvF2safvV4q85+qcjXqTHTOS5Kwtby0Cs4RqIhGEKKFZCpKPxumnXe++Rl/yOc/+8iUPP8lzriDDMIhduIdSSmK85woUUg8UEqPRNIUIQGeSlisBGVrkkHQC4V8R1aVGWqZxpnf+f0zxIwCsD43D9pk5m3RHWvvciJ/mh3lr3Gm/DonbFPEATKR42IzCHACJQVhM1JZnl9VFf4KFD88qPP7iqp3aEh54nO33nVvHQa3TjTCI85hrznwyEUbTodDyRrHPn0Pne3bnzdcHu14wiXb2DkhmWi0GOY1xpRctLPFXGsK5zzLhTHWy5HXMPG34ekb8CgwHByi3zsURJF+qpTyab1uTqORAjFChuAg0gFDW2JqUbZ1/I5Rb3njkvO3nZH2z6iD3IfnRPPNSGcnjXc7DY5KjLchE0YTypIpNE0bUYuSSpY0KukiX/1hUESfLrShMXwD8D+/IoMvknH3fTrTFYv3/WXQ7nza6ehZFaPvw9un4lyA8sjYITyYQlBslMhAkoRCWvw26eptvq6eYTHkWV2jGsf6Mnn/sc3Nt1+/unbsZ37o5/mbd739K9KfheltvOl3nsVP/c5nOnY0QljHRFMw20jQgaauNSKGeCJhcWg4eqyW3cwESsFG87H1MPgPPP7xlyCVaBw7ujxnPZi6RnjH0slVhFBIocmrCmcLRl4Um7a/6L3glqObZ6T9M+ogd17+67hc46WYiwo9GzqLFTktA/OygSwDTFUSGs0oFliFSR1/mMAbs2RUtvtvZCxR+pVFHBivWP5QfyQWj/xl3Or8nTP1tzrL93nKC4SSwnoHIsAbRxh7dENSOUtagyk9k1GDKE0D04j3ryyv/RjCP+nQ2ubrXvZfX3Hn69/667xoKnnU+xHtHfFffvM9+FZ9qMgH1H6KJIxJE0Ej0sTmYalQ77l3VHO8WxTDwgy18Cyl3a/4uP97tNsfYHK2iRC6bVEzB+89RFkUWFuj9FiiyXuHQJE0Uy64YFu1srSaWe8ITeuM2HBGHcQ2NVuVwEux0FGkwkPgNQtZwGRlEV5gkWRRTsOFeML3ENY/djKge+7JN56VD+H/ROxvA+DvXNmUF+3+bXHn4l+7yr/eVvW3u9q2S2MxsiaIInwswFZEQYAiJneCYljQz3NCHYndc52nHhr0f3PRqles3HPXSf+FLyCe/ORH1f6b+seJmyHr5fDze+c7y/PT6cKOuTaBFvQyx0P9glRK5Aiybo6vR3dt9OqjaSj50Dc99h4Hr7ii5G8/ezdCyBkpZCeKYnSUIGpFGEa4uqTKc4yAZtzgsiv3Ho8ff+Finhs+93enX34NzrCD3HLHIrt2LlA6N6+li0PpSWtBy2oC6ejLjCwcF0xxsrpdS/0LxutuTz+2boPEpfMA+BuWD6pg6gcp+58xsvw5FbjLjLVkoxIqg44kYXMCZR3ZYMhWPiKPYgZ5gS/69LV7Bl689uevu/YXj7zvQ8xd8n2s3vVbj5rd5+w7wJ4pTc+L+57QiG5ZMNUL3LCkkpLN3PLQ0DGRSGZEzXQk6yv2zb77OReo/sHlIe957ESz/yP39Q4ybTIQahbvG6YyKK0RePKsTxJFJK0Gw1GXrc0h7/z9T3148/y71xq3ncODh3/tjNhwRq955y+Zo1laYikXQilFoGOcEvR1xkBmjMKaUWgxSprUN34nMuFDGM21x950Vj6Afw/xpAUITTXsnvhAnEQvjULxPh0o461CixRcQFkUhEoQaYnUnn4+YGOYs9XLuHDbDrGjPfXy1/7ZJ/dNBCmNl73kUbX3Z2dneVo8wX9ulEUq5W11UTPayhluZhRbBb4yZKYELZgS4ob9YfiXHSfZ/dSdp9/4o8Ce+RSsRqlkhxBhhFAYU1OVQ7ytMNZiTIlwDmndbVjzR1P3nMsg+6YzZsMZdRCbBVyqJ7D4eaU1xsNIWtZjxyCQGGKsDxCogw2XfjT2KdOrv/AVHvZHhrh8ns7kLnxY399oN747DtK3YEVRG49REisttcnQwrFtosG2mRQZO6yMObI0YPlYd3/36OZ13RNd2qPeo27vlvWcKFOGWX1yVHlWhoYT6zm+NkwaT6uUSCvqZqDfub/T2Dj03o/xLeIxuHwAZtMhA/DO7pA6EB6HdzUKRUMl+LKmzg1aNo4r1fwpp9OH4nCKlZVrT7/xhzmjDlJ6yYebXm/4auG4zdhSNU3VJPQJmZIUSuLGVZa+MCsnFgdBxpm5jHt0EU/fi37CeRQ9u5X46OciHf0qUhfxxATBZBunQSlBqiMm0pRmLAhVk9vvXuHgvcf1vumZa//ge18s3vDSJz3qtma7BIXQFKHWop1gOw38/ARyssHm5oje2oi89ndPzLc/bn3Nq3/upWd7eP9VnDHcfeeiiGKxc+fuBZIkQjhPIFMEId4blArvVKr5XdHMJZ+Mo2lu/dKPnVEbzpiDpNzP0HbJq/U4p1roiZo1Yei7sSiZdBFZGDKKQ18qecsXkqOus3l6qndfaZKvO48qEVmz0XxTmMRvyYu6LusaNZFCEtIbVKyvZuycnmVbK6UcDUjaMbt2zV31gbuWp/o254XvfHSvfI9aaA9H5JHaUcaaAZ4HhiWfPd7jE4eWuWW5z5FMfHT79H9dyjoBj0K00RniaiyeS668ICpKt2N5aQ1rzDjvHOsrYZcbrdm3KxV+i6lu/Hi1dcx/8Zb/esatOGOH9J+66q/plw7wE6G322I0Wmi8kOSyxktLfP4CNhHZ6hePP1ArgS8e/avPM03jSftZvvH+XHv9y4PeoC1r811+IlAuiXBFDGi2BjXHFo/hegN6SvG5m2+7cHJi9mrv7Cc+9H3/7VG173wF5uJpJVerfetDw2q35Ehp2AhiVmc6tOfn+nfn4hM/9alf5l1rkl/e+1h1kG8BVWNtKYROH6itvtVXPQP2pPX2JiXCTy7sPufOk4ur9Rdvfy88SjoBZ8xBLj+8i7/dsYL0YgdCzUXExEJhA9gy9TjN9tgaCVF/1qYrvgbHYzO84d9j4Qnns/bFO/qpcT8zuWPWmTj4L4sbeVS6CqsCNnp98qxiJmiz0u8ykDSNz79jIpq6/tt/5aOjd/3ko5S+++Sb+NX33YrVqrUQ6j3nTs2wNjAMmxGZ1gyikDvL7OD5+7fd4/Oa2T1neyT/LX4Ma3+BarCRx9OX/Higg4ZDuqrYzCYbvjKu5IPve/SVVs6Yg9w7XVJ4gyK6uPa2M/QDplDUXhKHDu0NzVFOo3SDKZ/2bG1JeOypEX65zF55Gd77TeAn6qq8MxHrr40Ce8Fos98Y5TlhENCcEFxxyWXc+MBDnFgZvBAbvfbtP/uCt73i67vmuVdMnHGbZhrXc+sf1Djr5hp7F3YuX34+nT070TKgLGpcLhlW/vaNA2rz+A19rheP5RVccO/tD//zECWnKQB3qpyxM8gt0V084AO15atrS6x0AmoBRkgmGxMIndDXns246h1LBsNjyYiEU1ebeCwghODBLz04PHzTF38vDOLnN9Pmi2IdvL+tm76dzGGqkhOLx1g8cpiynye+sr/w39/yhe987uP+m3zh6878lkDdoQm2uoQbvf3ZwWMztihYXt1iY2XA5rEuS0c3WDq4dtfHXvtBF9x1ZkIx/qNzRhzkxd/wDqQI6Khwl0de1yakJWIqPCWeMjdIp6h1SD/U/WGS1oMwoslPne3+nzbnXnEu5z/lSX77zpnV2+574FNmOHhvSwgj6oqkM4lIp4miJrqqWV1a69x/5OjPf9vPvOwpFQXvfe+Z1dNpnzfCFiO8Ulc6L5MH7l3hwbsOk631KHo5Pq/KfLV3pCE0n73jgbM9dF8VnJEtVnp4kVS0Kamel4hkfxON8jUOTewB64mCBNWSbA5G2UyU2Nx8dZ4//iWc9yxt9Gilyd77jhx/7bHFzaDf76OCiM1eias85+2coyo8ZRBu27Zj/vu2z++46dNHRvnLXvWz/Okf/dKZsSNo4+YXYuqtJ0xMt3DDiq4HG2nK4Yh6c6u0y90VtICTpydm8P8KZ8RBlGxTwHZh/WsEXikELa9w3pA4i6Wi7wTlyJAIWRulXeUeW+Elp8rylkWAePDQ2hN2bJt80/Ztc08rvaOoK2Q0wQMn7mPf9h3MKg+Jo1967r/jnus2cnOu9/6OYDU/I3Zsf55nduI9CBHtHhXiispZpLMkKqCdxPhwhN9YKTq9YSYDzUr2WL29emxx2lusb7vyrVThjDS+fq3x9dXO1zhviLxiloSOCwHHJjkDX6FE4FKaXvHYzD/4cvHec8O963QLoT9+wx3fud7f/NOb77j7aYdOrnGyN6RSMWsbI2xZk8QhQRizvTNJVDimo+ZEp9ne3YlbyIvPTC3DJ77yPqbjiNmGfvJUEu0QKJLJDvt2zFL1MnbNTdJqTTsrUidlAufvOttD+FXBaa0gz7vifyCKLQZB/g2xd69rCCUTJA5BKQRNI2i4kFB42tKTkeOp9ECUsqI+230/faQgDoQsPRe4KNrV7/awSyt0rWB10yPyip0TCdpUlHnI4tYWkZc065qRqUTgFUvutMTHAdgx99Mce/ft5KWIFybrF+CtUl7ijaO/tEUNHDpY0tssVaqbYyn9W24426P3VcEpO8i3zH0vW0KyGqYXe1f/SuntjEERCUXsBbmAgRQkWiO9YYcJaZYhTZSYcp6hfdRkgb8iiIfjl/7ilgcq1eq80W0WE6FMXzPTnpLdXkbfDFhoaa67+HwevPEodz3UJQoV2+dTXOYGiQgXJZKrd1zAx07Tlq977lN5IOsRNdSly2vrTzHZAJc26JaGxmSDRj9HDHJkNop9VTeFcGCvOttD+FXBKW+xFjvzfPqLP0qog1cayQV9X9OTng3pGAhPKTxbyrMoarZcTmIq5mvFfBWrXcNQ7MqjU236McWLrj6X9YNbWz6TP3nyeP+91998r1ehptVSuKpi/XiX3mqX2oxY7w/4/Jfu5+DRlbt9Jg6Vg4q//tvi9Ax430u5y+QcS3YINC+TYTBnogZpp8HcQmdcsdda2rVFeR053Zq3qs2efY+laoqPXU7pz/jhw573vvED/Ofnfaj16ZvvfeJKPqB0lk6rhfGStVFJgKKBZHa+SbDqCQqPm4rYKiTOWXLx1SPC9u9x961rLNb3rGkf/EgZ9pu5rF+wf343sWwyzAqmz+lwvL+OqCbZ6Eduq+QDh9YWe/PpFB/48GkKC3S+k8H6MVK5eWndir/ZmRqnJEYqpPNY56msQ3uPzvNQuXqfk6CHX90r+FeKU5L1veMODVuCjY2sMRxW35k7tlc4yqrGG0/lSxwOLwS2rAgqQ4DCSEnh/T0JwfuH0tp3bn3kbPf/jHDD9X+CetobuWrbykDo6Kartp1zqTg+2OfXeuxeSLn22vNZeeg42bojonWbCBo/P9OcHLz3wz+Ac9kptzs19Sp2H4xQeV+iwx9vBvq5yjm0kgzzGh8owlCjlCSINHo0ohrmJ8P4wIeEyv3qiY+e7aF7zHNKW6zPfvZnObJZ8dB6mQ+tPtlsdUiTJoEISL3EO8uq6bNih6yWPUYYNlVFty4xzvQWal0Hj02NgFPmS79yId9wzfN5SXPPoT2u9bpL2p2/36Mk8niXrVsW6WwFjA6eKNzKxtumjn5psdWz1PXpHdBH3/5sfNzBTm7fa0z2wrLo8dynnMNUEqC1Ih+WGOsJooDp+Q6NiTbey0tEdXxSuoJrrnnn2R62xzynfAYZkHDSdYst7Ge7We6DGraphO0iYo9I2B01uXTbAhMyQSJQgSJuxiRJesdtCyOXFmdXQ+rR4NrrWjzxyj3Mra3cs7OZfO9sp3G7FCH33nISvyU5f2bho41R7wOT8ST7Pn7zabfXfPA8bBphouScfGJm25YOWMkKytqinSeQ45VjescUS1s5Xiu0dvvCJNkXNxr0e6dXQ/z/BU7ZQY4MDyJQFL78oHbcvUPEXNhp0sGz4EPOi6c5t9Ngm1N0nCINYqwMTlah+mvhI/568wtnu++PCu1rt2ESz0nFbSaJXmdDf1CGloXpxuJVF+/5tRc/++rBM598OT94BqSNtrYOYWqLKStro8DXO+e5rW9ZG41IY8m+bR0CKVjaGkGoKZzDVNlU1lu9arR1kuHw1Gv3/b/CKTvI8qFfo6Un+Xqiw1MyfivelSvdPpVzKKEI+xXlnWvMVQENp8lHFSaztzVJ73e15Iert53tvj9qXPFdT+eyy/dy8jO3fn52uvn9V1yx7/D+c+d+173tlhtnE83T3vScM9PQA39HIBSBtfc2w/CeSx+3n/OvOwezvcNmVrN2couwMvhehhnm9AYVXkXCi+CZOtkbTu68APx/nMuSR4PTekm//rbv4Q4FtXTv26D+uxXvGAiBR9CynghJLTWZ1NQCvDPO9ga4weB0mv2qIDmvyfN+6Fu45EmXfEqa8NvCTuv39v3uN/pzfvbrzlgbO9NPM7Ke+Orzlr1Vv3TwxiPHB4c3SXSKjkLSRsRwaZPR8Q1sv0BJhU8mIWg83briSlTMRVd85XXIvpo47YCcJ13yywjh8fDKwJvf3yai4Fwf0rECENR4PJZWBDurYGuXi378wmvm//TP1m4avNpfi/rEY6sO3lcje17+EczMNqGOPfgUMej/RCj8s4QSwYFz5qjLksW1EVZJLAKyimAwROT992Cy70KGw3vu/MWz3YXHLKdRvW1MJZ5Eq93ASL1hvX1+KPSsVAEDIZCzKZdct4t8s2BhKqUdiCSQ/pllWV+7Wy3IgyuDo9+z5xuLbw2/gT/u/tXZHouvWnp3vZvpC36O1qHPHg1IP6qkm47T8Or1bkbuQXVS6ukW9VSTsq5RwxHSm/OUjvpzYu/fz+16ll88+bUr33+J03aQxtyvkYb3Ebfmh6N889Lc26uNUKAkU62IHYnGnhhQrQ5xhcNKEZZ5fU63Xzz/ZJ5fdtAM7lkNRysvnHoKH934m7M9Hl+1dL/0ZlaX/pqFx7+qkEmybEP14gKfVkLARINznnaAZ1+7h2Mnh6QIysrrUOirGg19qDvduveyyafx0OLpBr38x+O0HWTU/X2k3Ms5O3f4INDtKAy+scpG8okXbWNfI2LjCyeIDDghGDhP5UCEkqy0apPy/JHgSbVMby0kJ18w81o+sf7+sz0mX7V86/feTbw3YXJuYjKvy/8sI9VSUUDdHRIHgrlmzEM3HyU/uYWsKnw5TG1VX5kMzc1SqhPt6WezsvLxs92NxxSn7SAA1+39OnQ4TYDyuqy+eU7KZjqoaI4selQQWM9IQF8JMuFpJAG2cow89JVf6Pn8gnU/+NQWq/1vWX8yn+LzZ3tcvioZ7X4Dpb2P7qC4NE7Uqyt8WOU1YrnH4NA6B7+0hD25hioNcRSidUhR5tPGVvsLU34cqtHKymfOdjceU5yRlNsH7votwq4h6LmTnUofn/IhDCwn17YwQjJSnk1VIyciXDNklEi2tGEkDXhLYYfXCYLXft/+N4jVS7+Wp3Cq7NilMKMMV5j9W8u9dLDUxaxt4Y3BO5CbPXTWR1YDXFWDUAg0ztunOerXps1QXHr5mclu/I/CGVlBtrA8dftLaKqGETZ/jrXmQidAIGiokEI4TpCz6Sy+FmwOhqz7khrLRBIxOzMpeoXc/oX+LR+thd16gr6GmwefO9tj81VHZ/6JbK3cj3bJS11RXue8Q4cCJwUYh64LpCnBW6ytsMaBt+Ct8Pj9VW0+43ErjfR/0+2++Wx35zHBGVM1yUPJ79767bUX9nhJxRDLQEpWcHSFRQKpl0gBfUp6WEogdQHKSGpX7h/Y7tONz7g//lo66KlgN1aZLaY1g3yvtI7mwgTXvfTJNHfNoLwZ11+UCcgIvAMFutXE6wCP34PntTpaUK3O/wZ+4Wx35zHBGXOQujvg2y/9FZz3iw0VoYSkEIKBEAgi5lSHndOTyJYmw1PjiQGZO+x6TeKdjFz11EKnak8SAl974X2kSDQm0g1ZlbvkKMevDVi/bxk9qpFC4XSEixK8DpFqXFJOBRGoECEDwH+LL7ce723Fs5924Gx35zHBGUsK2Lmjw+ZGAJLFRLsqlF5vZiWlkORSUErPxV+3n+devYM//9XPkJ/sc74p2EmOrFMaOpYPhO4CY+uOEnrz+/e/h7ceOtvD81XE132aMF7FIzqua6Z9ObBm3bkHvlCC9Tgv8VFAGCmmW1M0Rc3JE1vk/SHC/0OlJjErhHptpMLb1rqLZ0Wo7bHGGXOQYbIP5e9C+OBvTF2/UkuURuOFopICa2rCdsqBJ+xh5/wsxfGc80TGrm0p6ohmaIU4KUV/KHUpCdjRWTrbY/PVxb7DmCMBTqkt590PCFvFQkivVQPjHE5KfCCJJhpMzrXoHj5KVZQIHYOvxzXiEcI5M6psKR+7otZf42t8ja/xNb7G1/gaX+NrfI2v8R+X/w+fzT7eQx/VdQAAACV0RVh0ZGF0ZTpjcmVhdGUAMjAyMC0wOC0xMFQxOTo0OToxNCswMDowMOwoJ28AAAAldEVYdGRhdGU6bW9kaWZ5ADIwMjAtMDgtMTBUMTk6NDk6MTQrMDA6MDCddZ/TAAAAAElFTkSuQmCC;" parent="EXpLw-7ZhNTg4ZC5dxBc-30" vertex="1">
          <mxGeometry x="430" y="250" width="100" height="100" as="geometry" />
        </mxCell>
        <mxCell id="bgKale34DZ7Hk5qEwRtr-1" value="" style="shape=image;verticalLabelPosition=bottom;labelBackgroundColor=default;verticalAlign=top;aspect=fixed;imageAspect=0;image=data:image/png,iVBORw0KGgoAAAANSUhEUgAAAmIAAAEYCAMAAADI2WruAAAACXBIWXMAAAsTAAALEwEAmpwYAAADAFBMVEVHcEwZGRk2SlwQEBAxYZIVFRUZGRkaGhoZGRkVFRUaGhoZGRkZGRkZGRkAAAAVFRUaGhpMXmz///8YGBgZGRkaGhoUFBQZGRkwYJEQEBATExMODg4ZGRkvYJEwYJAAAAAAAAAAAAAZGRkwYZIZGRkAAAAZGRkxYJEwYJIAAAAAAAAAAAAAAAASEhIwYJEwYJEwYJIVFRUvYJEwYJAvYJEwYI4ZGRkYGBgvYJEAAAAYGBgZGRkAAAAAAAAPDw8wYJEAAAAAAAAYGBgwYJIZGRkBAQE2ZI4ZGRkxYJIAAAAAAAAvYJEaGhoAAAAYGBhPT08AAAAAAAAxYJEvYJEzYI8wYJEAAAAAAAAwYZIZGRmtra2/v78vX5LX19c4ODgXFxf///8qXI80NDT4+Pj///92dnYEBAT///+UlJT///8wX5L////u7u7////f39/////x8fGtvMzKysrs7OxnZ2f///9tbW17e3uHh4e8vLyHh4dCQkJFRUVwcHD///////////9cXFxPT0+urq61tbVaWlrz8/Ph4eH///+Pj4+VlZX7+/sxYZL///8AAAAaGhoYGBgvYZIwYJIyYpIyYpMxX5I1ZJMvX5IxYZAvX5AANnQ0YpMxX5ABPHkAOncJQn0FP3oAOHYvYZA2ZZQiVooaT4YMRX4zY5M1Y5MyYZAvYJAdUocANXMtXpARSIElWIwXTYQUS4IPR38AOHUrXI72+PkqW40gU4koWo2vwdT7/PxFcJwAMXG2x9hPeKLb5Oy9zNyLpsI7aJcWFhbz9fhgharJ1uJZgKeovNHX4OpxkrSctMp1lbZmiq6juM7v8vUbGxvD0d5UfKTS3Od8mrmXsMiGor9rjbCSq8Xk6/Hq7/NJc59AbJrg5+7O2eS2traBnrxtbW2np6cKCgosLCwQEBDl5eXe3t5aWlrNzc0GBgZGRkbt7e0+Pj5lZWU2Y5QAImd8fHyPj4+YmJguLi7IyMiCgoKJiYlycnIAElsmJiagoKAqKioxMTEkJCQiIiLwf/bMAAAAjHRSTlMAHAZQaQrstNkUSufE0t8hywP9pX9tD3avKzUmhsu49s7pvTCMo2MmqL3wg2s7VNb2GcKAlROboXar+ZPWxy6hRbTzR+NhGqo8WHtc4Ptb/XSbZOoN4ZOMh6/+/iD+/UP17/5j4v0+zf7s/SgT2tDDe/eZ4z6S7OGc18+pzJ+7soDghVSK8a6tpMhRRbDFA7oAACAASURBVHja7J1rbBNXFsdZUD90P4QSaZEKlZJ8SFch4UM/IiUIPmQl0KaQL1QCgaINLEI81QKq+th237vaMV3PTN14hnlY8Qu/xvY4sZOQQNKQpCGQbsI7LAXRLltamu5CYV9Fa8+940f8wDcYyROdnxSClLm2lfPXOeeec+7NokUAAAAAAAAAAAAAAAAAAAAAAAAAAAAAAAAAAAAAAAAAAAAAAAAAAAAAAAAAAAAAAAAAAAAAAAAAAAAAAAAAAAAAAABF8dyK5vottXXVjdV162tb65e8Ar8SoET8YMNr1VXHclLTumQx/IKAJ7L8laVrV6xcviyH52pek0dcaVRsWQG/w4UvknUN9bVNjRU1q2oqGptq6xvWLS3Gu6ze2DRHQVXVrQ0r8U/XrTlWNNUbwAgLlpUbq/O6l9aGF/PLq5CAmpqXVBwjpOnnYIwFSEMRQmisX5utr+pjz4KNYJEFpq+aom1ftWZJ2sLX5iOfltsPvvrtrV0P/7Fr19Gjv3yhoqaiqiX7qVowy4JhWSupRlZtQd5sC+nCx9/c395lqjSZ4l/av5WJr5373zjw5tt1jXO3A2vANguD2vlFsrrVm3O4uKq7/3mw495XOx5/MfdHX9z6rNeUi0r8fefB37/5Ul3mos1gHuOzMctDVe04+mjr9q+HE4LoGt6+9dGtTZ/ffnK5oeKdtw70trWli6frb/dvfa/9dNNnpqLY8177y5l7h7VgImPzXEZsqml8549vtLXFo1dl5Vzjd217eC+f0Krq3n59d1tlmkfK4M4dEwGVf/h1cyOkZAsmy093Q+vf/d3OyifYf/vDz7MrDC8d2m0y9ZpKRPwj7G8/vD7tDZaCoQxLWuJT9/Kh/UVq4Ot/Pk5X2E+P7DFVEono6kjP4Pi5qb7Ozr6BqTMTZ0+f6p0rsrb2F9PiZQOYyqCkwlHt4SNkKvny73jl7e9Ill0bnxmKyqqNEyVnOBQMBgNhpyyqqhoYmuiZzHy2/cepz7cejGVIViULqofbc2ZRXV2F5HLnm/jS+3M1NDI2ePPC+PjNwYtjI5PZi3r839ois52dFouF17AkYI/HgpIqhqbG0lxZ5c6961JZIpjLgCQT/ea9ezJkcOPi5aG4yUXVZlNVOaQMTY0P9k/mUtm2dA32nj/jkXyiTZRlSZKF+H9sgrfvQs9w5prJGVuog6FomjbHoTUoiuItbtoe5uS+nrRnjyxOpmQtYDDDobd9Vu07lC6v8RMyJzqDUSXioU+coI/7lagjIImcKkWmLo3kdWm9l/wiJ3kjH7otmE6L+4TfHpJVNTrak/HsJ1Y1ylKZmBM6Y9wuf4ALT6SJcu8Pk45sOdjMmPXWpkW7U1HuctAnO/yuWQvPpKzPaNGM7fYGRJ/svzzXKyUY6RNEh99tYTSt6JgTay2zHruTk6+fT3/+rCR55oosobP4Ct6lCOroteSj7+9LxvNlYDUj0Zxs0SRrpdN9NtnucsdNj+SRMjyKZXG5uLodEifGJm5kCGx6yBf2o3VZqkHOyR0JcdLoJ2lrBnz2HBrTVMa4IpJ6JpmSHVyUDJZgNiOh7yQX66YcHuDiOkm4ISoPWixjLW6/Q7Y5Y/1JtYyeDFj5Aut05yRxfGqRaUwO00y+FWxElgeTIku1UMFuhkvEGpfpdrxik/wFdZLmldhOiyDpoaxfkv3sExcmnJObDvlip5MaG44JnrwaY1iF81/VH923GfaVRmODvkvbiY3YpypsEQLD8AG7bv0Jn5dliloUf3GWDXJ8KlwOqDE273uyHQH1SjLp1zVWB7YzVpj8yXvYoThkmqWKhvVKegnjOhchWIiEcy6psUucl8+v67gjG0hqTG/W14PxDAG2V3073kgGAjyBTJiYqoc7q0wzFBlsRAgno2W/HCygMcYjR/Xt6z599HElmM84TqxmHy5phQN80TEykY6peiYek2iKGIb1+pL7xavOUKH3ZsPOU/hJvQhbBeYzADixWf0LZLxuJ5HCWOcQtjordVDzIe7IlOEiNRYUcLm3chE+WrAODGgUJ1aNw+SA0EGiMMYuY3lMiTQ1P5iOgKQ3Cq4V1hjvFabRg7uX4ZkjMGDZsxqZ6lXUmOzx+YnSKVq9iEw+yBHnYek7huR2cTIQ4gtsQ1mHjPeg77+KPjgcGS971mc4sYCXbEsYtOKSvhqbv8LirxNLJmSTTgdb8B0l7Db/VAXDY0aKkz9CJbFzAk8kDb+K45YjyFJPA2PlpvTWu83OFlOFO1iLu6qAEcquLb9BE2FihDGTOB8Jl6ouizz1dDAem66xMa6bKVSylfvQc+9CG8kQoN5R3UGkFNlNpIuIgBpHp2xk0sytMVHX2E3OUyjqdpxEcxoHVoHEjBMnf4WGXOUYmRNzjiJNdAZY6qlJ82OjQqHdKe+Iak+1oSPjz4MRy5rnUQHzdc1mF21kTszKod1dv6+DokqhMW4Ca8xeILUzU8dtyHn+DCpjBgAda6tAp40YB0vkxEIWXNYPslRJNBbxnUWveEpUCoRKi4gaCo/gQhUD0KRZ6QUtTl4TrWSVBg5NSJ/2lUZhiVa3+hc8TcTReSuwNB9ACf932offAlY0QCr2Fpp0EIniJGN34PmKAG8ulca8Mp4865Py7lHNTFRBJzjheLhRJFZ1QLPYUIhIKi7hEuor2vxUqSRG8WFcyzWFo/l9Y7eEnoH7esqfxWjIAtVdwzEiqVhFNCZ2jrDSUXhQscM2juRznsu/h/CokymJwbndsmYFKryiw2YcSQvIzDo+QlqQFKZkTiyR8nM4HRsKs/mzwFMpicHoa1mj1fZbNmnZ/kXRQjIr4cbbujHORZUS1hvAQxdi3ranCyRmGNDw6L9QvdNJJDGPiBLzvtIl+1hjMu6IT4h53Bg9y6HW6G1I98se7bqblq2avWaDPE0SJ3FeLndTpZVYPFTig5kBe243Rnf60HzZB1C0KHvQdU/oSjmHQqAVs1u+8EzipFbSVfTiWG43Zp7FEvsUSq8Gqbwigwp+Eh24VGTlmVLHyYQf048DBPNMr7E2lIvd1a55ATOWM9Upif1VJZop1EtThJWOIou6Tly4UHNLjMFNSu3TLwEzljMVKYlN21iikkUnaiaWPk4mvJSA++HB3NmYVehNSQwuGC5r0F9w0GoWp7lOmjwVuyK6zaWXGBOTkYYGc28qI3JadR+G98tfYnfRwRCVQGKUG/er+0K8+Vm4MfkyEpEzZ11XCaRJDKxY/hL7AF3yJZJIzCOiGxHDCvUsJBZ3Y3hiW3LniNJeOq0NDlYsf4k9QHMWcvGVVzOlhNBxIfE49UxwiTdxrufJNcyDjgx8CQcpDSKx79HAPIHEaD54Hc27cu5SCstsRi6RYSx2pGFTJHtMkrZIKIz+F/pHBpHY/4i9GG2RxzN1aUZXIjIMg48JzXOWx+2mI4pityuRk+g2lUHBnf3uAjoffAsu5zGIxB5jW5JITET3lc+EEk2nhKJ4i/t4t2KP2mNW7fbO+eT4LiUsiKrT4Ygq3uC3Cp5Gy46Ubh/aa9xLfHr4a6gGqIt9issPBF1wlw/1oZVoYsPHuFklJKhiOKh0ewOyTXZYyUXGRpxqcODsjeT1xPhWRHuUobMm1dBDH0O2bxCJ/RkdPyLZUXpsaCZQ6o77rw+jMheeGTyti2P6gtXm9LNE4ZL1OIWB6Vz3q4+G50g/udeAmoUR0HqUH6OihY1AYt1hdHpcYNwRp88xMVccV6dUB099VPQGlYlyM8O5r/DPyhHjew1039QkbCgNgHZnym1UeiWp7tu96PoJMSYIozdyKWMk5GSK1hgflHvy/ZWIC1kS0zeU22BazAC0pvUouaLzJzPrjaBJnn+H/s/euf9GcV1xfG0MBoLl0mCeMZUwtWkbP7BNsRwJq7jakDhFKTaqf7CSnyJV/C2L1ndnZndnPfvweB+2d9dvbAcwprwCNQ4hEAjPKGmbVGobaKVKlfpDO/cxj92dnXtn7ZBg7VUEZrl3Ztj55Nxzz/2ec+/mPRUwHWbdV+di4cW8B5Hcz0FsaBqvNT6Az/5W8SX+sNvbOmIPB2XbYbE/XLA6eGucsQwBF40YCTuz+PT2xacP1EO9/hjOXoaMBJ6gv3mvWG7gJWjrEGJnbOrFPN6pT82YunXj9sK1J3op/XCUyY55Bpf0M5fEsVAInckVev6RKWLANV/coXyJWolR9RplXQN6vPH72XjduftsMjCtkBGYOqeWoF6aZql1wY+p1WIvjp8/fz41GIwkvQnOG8T3WM5CzDMwiXPBz6LSe8V3+ENvCLGvcHkdZu2+xxu8m3me4NWpVCQ2zo2Ox2LJubHUY/L5bIxhqvQPkkKvy+cDwUv3Fp7e/swbF11DJBP406ygBfAGsSb2C/jo7xZf4UuB2Jf4DTNnICmIfW4A7LO5QDiaGPaOjEVmHp3zjIXigTQ50ZQuc/TwsRnidKXC59Rzbi7EOC+pmPE4m3yeZI/8tVh336T1OOtqOrvKujpr+g7ZHFnXUNbW29rSVtbZt5qn5KEdpPdO28uj9HhDS3rcKh5IJtCBXHHi/N+4GnlOJtJJutbHS8SNN1Jzo9pFlycGVJKS0QzFGNAk3X8qumKZzdnQ2tgEJEGA35ckSJLQ2NHAxllNbzWQgSAJyvcr+ERRamouO7RKj/UrfUl5m1kjrSCmnid5fWp6PMGj09lmkxohi/Hzt0honqpY5AZxkbIL8fHH2rohPsuJQXyJ+Gz2avaZ7u0XD9pSW13HCABABMDwP6Po8wEg9NJkwQ3VkiTLstFv9vtln+g7UGM+wN/U1HRKZn2y13XEroRG7e6CX7kUmNOO1ZqdMMydz2+SmZIq9kkT8WF43h9RwZ0Z41Rj9TCY+VSKK3ZPF4sVE9xwO4GgMP1+BUnsrsk/cmurS3AJZnZAhkNPmCKm4AhE1mfbgxD7GudisCpYFcSwLzaUSuhhCS6oz55LgSipT0zFdnyClIvl+PEQkghdi8VHXNwcvsKd7OJlAik2gJQ8JUW6lHaoW39vflGSJJdLBEA3aJK0N9/QDmUE+V4FQTF6MlBMn08UCAnKnGkC2QiEWbDn73+B65SwLikVdx9rUi+MGdw3bjyixcQmo0R4TXXGuKRIinkOubiZSPjSo/FQjHMBNTTxYebWKeCiE0VXLMuREkQf1nMC4GvsaGk70QAd951NguT3I4AUao6ZjewSCGDKQIGr7lBGKkuFlp2Ngl+SEaI+l9jtXCFiP9GXlLlx9PyKRDwPXs1YhHIxstO4GBsbIse7nZukYMvHnpGscogSPxObmINKII83jEWPNzP3j0BCLWFcrPukemGSD8Egyns7sxcAvYrXjyCS/A25I5tVcZScM7Snq9ElYz6B/8TKEPuZrnu9HmBGjGxEZ0HJzYUeL128/igU8wyRdeJNmpaWj10yIAaPHOcyVhQZhhKlPmGMvypm6ZImygphoij2mgPYLQhYh5ztkJW60I6h4uh3d5oObXFhS+b371wRYu8a8sFZk3U93vhVU70/NzoRDAUn07xrYPIRnv+mKXmW3Nw8KRiLESMuBBgmAdnZJJ9xi3TwtK54LfLlcOyECTqy6MvboUwgX12WhfMBH+JnRJlD88TBWhQThl5480oQO4IQO6sJDNkQG8N7lJ/niLF5r9fLG1ymhyGOzd3PFnqMhLDqNT6fqfEgWjE0T/7c/J+0+fiOqh24bUPtNaXtV9obr1VtXmux2kPQm1KWflYzKUDmKtPMOfGHfn+b1dW3nkSLTQ9oXgFi2N//Nz5RMsYzzZSegYlzeXIvPbAZawJEZigXmyGR1HA6K5ZBxqezCufhzJBvLDJDKvrd/W63ux82N274R/Tr5Yr6tYTYXuxN1VmuBwB8JeKI8TM8twDrgXDJKaI0Rv+BFSCG/P0PbPn7YIBUtLDIIE+QYx/mopQynRwJQkTnMjqSsNitUKbEKB3C5H0Ln3q7+b+ovMJt3V6pXDuIoe9MbqZwAn0xIHfonzQhJ0toot+gDcZAXH6prXDEfqpn637IeHoI4IgkcSGvUlaLztKWlFrHC1PDxo5En7+YMX9q1VpOWx3aXL7RYLnUH/FvbvLJmlkn9ECHyi/3Ubohl993SvvzAeTxgm6WW7RJItqQchaM2Fu6v39rkDG+rxa+X5jOjxhZUt6nWEZldbpMKqR4M+6AIb6dyrjDMIn5fg2f+XeWiFXVVqFmcMp+Wb5BZa52jSDWBVkRAa1bq6gw5te6HUO2jz6MDPZBxoRTBSO23qBKnGSM73PJWZoVG8i7InCZJ3vcCGTEP2J4w/JjY+QVKPPkGT20v8kSsTx/ua7djbyyNaKWbUGsnKTGzmBwFohl5I8y8j4E1ppGzSKKe/QWipgxvk8NlGpVpWcoKSWau7ZACbYB1yypVxczem1auMwo/wADE7w+T/7GUQhiDscbyPP/5Dt43+vRfy+0dcCggthM7eeHDpVIfPY27IiV2Qi9wW9fKhgxVCnxWxznYswI58mujwVi6vE1d6j6jQSpI7UcHjYixpnsHyWIBNtynqQh5tgGEXNvXvXXfQS6ei8YsWo4h4mt1H4n0T4SQREFyoRu9rvUoBcjdRSK2Nt6AahrjHoePumnJsaRVMvsJaFJNbzwVRJ8TRin4nSOt6cYPKLK+A985IOFIub4NXT6j676666E5vFFI+YzWCerfoYJ9QSKdQlOuyRLUqGI7TKUFI4wpYgoCzsvFTES2DobEWnLU/W4LmO5OjXob3T3wYAqerSIu7IgtgstMFf9dZd8J1elha0gOo10RoCsLDyxf49UP6Dazm224o32sgIRcxhSREaYgq8scTHXKJEU0qlVzwJZDidyNT5G05YgZ9cgqdjrhSPmQNGLdatvxV48Yi3Ix6KHt3rqnE5nH4qz9vmRdKfO1n2aIcrgVKGIocIW/7QRfFUQI864RZECbvAB264UGCa6jcVp0ST0Opqr4/mb9f4kHbFyCMObq46Y+8Uj1iUiz92O1r4VeWKcvfvUQI8f+LYWiNgv9ODrxRRL8NWjbnIvWcj9Eylsm8aoiHFqubq0IWFJjJzJ3oAaJkXNTlOy2+iI1ULEKtYCYk4UT3C12hiCtYYtNm+EPeqyAhEzOGNngywH63q8RLRlUfYODKfwDtLYOL2UVGABy7GnEwYjSAjVt8FFYhf/SzkRnI5YPeywYS0g5vALtkJcilslI9G03eSPA+ilNhaIGHbG/o6LBCQZTv7T9IIWoXswTDysKbp8gycHMZ+Oa+njniHid80n1fJi/CQRWfyPouOhI4a8plWnYc/3gVgH2huyMe91igBuOdq9zzHo9AG5UMSQM/Z7rGMND7MgRlJ1c2p/mTjxcQaFUDqIZ8WbwYR2i8GPSR1G9RZ8Ctu6M/Bpf7tixFY/+Pq9IOZ0IcR8p/pYmUTeW6PtGyHBhdhTIGLIGfuHKiFkmCiHiKTGajeAm37AjFiC5AKcDc5k73Fq9Qa02MaXtGopjBPlOzlTSOX7u6n7Spv21NfvMe+1yeK2B3fXV7JE/ktLKvccNNs2sI54KW/c1cE2WZ6EiMktthFD1lLsLBCxDGeM4aBvj5fMYh6LaVUklokl1MZFSSWUj8J8lrunlaBNhO4x5k8yuPuwwxbjm62twIoyaN3KzcMZ23dAIRpu7ssbyncb6dpeWorBVUgtLV1vxOn4Pje5tLtdHbR9l4ISwWd7aQnqvX4/3qTPMK/vv3oUjVXu+U6VOWk+HwlMC90tDB6WALvLx+wHedE+ZVuBiBmdsXSMYZtS1XhNWrjyJOpwJcSygEgElrSj7MmilcRFFtS4yEzkx4yifTpi++D73q/HTI0CM4RQeY5FqG0n0qB+veM2PdBmHA5/+5Fqf8rdmdd2I43HYfgj7rGhH/cuRyTBTu2a8dpHZJWaxtJMIOL0+bB0WhKUn6rbKAEvmEsiyHW2EduJbtJRKGJom/JfbPkcrBaKHCLzIMRSAIpPRkkxizivRjJIIcYUfh4+TupN/YUq2qcj9gl8bbvUP21RATAIy/rLM0dsVM2Xm/yC5WeqtrE9S/TY/yr+/E31qvpQNEFv01e0iml0H8akkXZZfS51TL/hyiZbq04gSFp6LQxINB1o6KFYMfvVBFpRxLaxUMRQTvif8TZlimGbklT4eph//xFwyVFSxoDpHC7Vl3+imjHXfFxN4cVUExXtN5Y74GyIbTZuIK0n727D/uP1lUc21x5uxyS0G0ccRaQc3a/6aiVVG/HctyvLimGY+vvxLPwK+bBi27rdlbvX7diC+h11OP7P2tU2RZFd4REW5FWg5EUQrK2BxayJIOCCgSybIFE3IqmyNCuJKaryYSuV3zLj9Mz0pHuYGcDhzQiriBhc3E00uJrdqLvGxEpcq/Ih+ZAyScVUUltlJVWbvufe7r7dfW/37R6vX5Dp6UH68dxzn/Oc57RaIdYPMQwQNRKL4Y2yHANscKiFbNNYaBlrZT1+RVHUlPG7V5DRQPcZZl9RXYrRKiKyDiWM2nkQiJVQZcoZz0HMRoS5w/fuNPRivxcTb8hXEtYwphsR3MY1TvnKnBCzLwQxgBCJM80YF0P06634aZtp9xA83BZralZNAXX3tp5tJe+ii4qKGhvLy5vL9c+RpJHJkNniMzyqXVMWaqAgpn1ZD5dWk+0f9OL74e6V9Gc2VgF6B5iFJCWdTVOOA0pEUdJqvK3PXux+A2TSef8QOw5R7EBQiIVOoAf3Q9wT7jmbLZ4hc8H5ikR0IrwlpHo1GuWnblrDmG6bggtQeTLNAZL9NwuDWC3NikF4qrVfMgEP0/grumjQcZ+jCAVUGaoO3Yp6vRLQa0+firVvNhRbICZ19mugtnatMCNWBWC/lc1enFGzqppN0b9U1A2e6LV02u4FiKX8Q+yYCm27gSH2mtkjcmvai7aI6/UjN6v+JYIJURcD+UraeqjUHXugACWvEhOyf6EftLkQiBVVSlSyj4JKjBEXGhBc9BLTOIIK4zg3aP0cm9JiAGLYNkYRQJJKTYhpgJe2O1i6LbQNTzreCx8hcWVMh7/yk3Q+rSiW/CWeTnebe2Z7lpbl+Fh7oaMyOMTeNf33f3k+4Qkxsgk+dtkE9ZZa4cHOehi7nbsO2Zd89ZFZQZKJn52HjIeCmMShR/EJT49baMOKhVkX9lO5NUrax3j02n4exOCDWL1OwyT5IxDDCZy1kN2BENbEKVK5k8btfW1ID6bFLyOgqdmsoak+C7SY/yhW164ajXKBIBaikrFlr7a0uD6sjz82yWgVejL9M9H5IaskjH2SkzHEPjYgJi9v4Nd+LGIzgCE2MLDTugbC1SN6Uj5mBgvjAGdbIyZ9gPiwIU5SJ3VwIDYAPSrMW3dIMUsU0+DU6swWK5nvHUc7uKdid++ZNiWbpYKZkk5jw4FTIKoOkO4fNnuWgkFshyngv+9VQxLZKC8QotTHYGd15X26UklDTKfNxEyqSZObfektb1RyX8GhAfQQJeG545W8BAiRH9UciKGP23I7b5hRzLGttyIccfrWtQxPGhV6pl1vnUa5mBHJMKOPH4f/adddQHacDg4xsLb4m5hboiEXcxG9ysQb/6n4YGd5mdgs3gJvDWqjTG4QtQ/Qrt8OCDEDatXD9OOSeLdBl243iLNa5m5aFa4dYkOsGf2F10rXijBGRTH7Xo0+upRfX5WkRtHnevaghrI4rjBF+gyI5Y/4hlgf6F57g0OMpi0WPdKneHIe71uPria5jZakoDi7Lj5tS54iJsULyzKl5vl5Ur6KS6LRZ0JeKTrEJNuCb5V29FgfZRPvNkMG/lBeJnmr/iwQa5Vc0Ftij2ItTog1cCkXtx+asd7oy+KmtgjslXnjK5/svmII04JBjKYtPr/kFXlIXxrfA1Gfu3xT2D+WrlQ+mFLNCsLMemaZ4PUHYt6bGGLFkxX2tb+m0X62i0lco8X9BgexO8Y5UrpArAzRqCEXmFgg5uA1Ylx4AuDDPuEBpgGpPDJXOYDS9nyXb4B0w4nyZAEQe8e0snvgqbbIn8fu5cvOWZGkpZbg46PFjI+RgfL0PeLXvyobyuqcIk9hS4KoJGb45F1AIqvJLdLgjKkiZHKo/T0+ILZlVpFY1JwrxAbc9m+cQPp8uq+kQcKDvBLbACq7fAMEbKBSxwqA2Dar2sJDaUF85O6yrfrjmbUbukewn6mUyevEjufmippZvk76MOcW5qkg9r2XCLF+ybXXTTKMCcrJLiuV9o831wlBjFfrMWgQHWIo0bOl7+hbE3z6IIgsbQ8wGPE9odAhgNgB3wBBlonkJBoQYiHKZ0x2jnxnW9h9yCloyis3yYQaH/sket8svm907tIcGbP0YHpO58RE3V3deDHrhVDMCbnk+4SbqmuhTaS2tmo7ims8ICZxKQvCe9Hpvu0sMYYKmdWV7DUG/4F8nwiJuXAotBfTsb45C6i0pwqC2Gum2sKL4E/odtLRtctJprkmeVlZ8DfAObk+/YRUP/XpEfcXiblB9PveBXCfEEO1myr+y4hFGzK5ehzJqHp3uMINYtomzCfw6s0TZZV2YZhRNeAeiOFnwBlkHRJMFAmpJnbhjL+dtIdk/SZje1DwU3sLghjYJX5J0ngvGeFF0qnx0ewS00LgN6Rr7WLE35JnSDPujTUCtvQyMSYWH9wmDLExg5bgMVB0bamxKbxlyH0I2iYCRrF+K8RsSdtnNJbZq4IoLFJoCdV/QE2ATIW7wWenzSc8wJVYPV4QxGiCf27VfaeM6K2Pn06vO0sByctrNg2r+HqPEK6PnmOuf3N2hqR1/3XxRWRBTKC1ED3dWv7LWjCR7OlU+WRrtSkAi8W2Klwgxs/FJqwQsxVJRwHb5S6LVGmhizIuVnAErh/Zbh6ntjzxfZLWAAWGGHhX/5vQ9hcETQLuzmacQYz0O17LrftFmDk5kDSgvL+Se+J3+qRwFNspOTJtMXaqvGKo+jMSZ1r4EBvg3rosRkMsO7A2VgAAE49JREFUttN53hRqJD4GoUkR+q2koXKEeC3cFnfGFzhOp8wet+AQg1K4JKjgl8mZcnN2XnYwFmSPM/uJfCx1BTtV/xpXB248/4SqTn4t9FKjWIe7QwAC0LjL2ztBDiFxeTEX+EquEJtwP4ZQux/uDBFKxlJpnazYg5h+xZfY4hS8W+kqEGL0TukpGpMXLpNRNB8kkvYiOdnaLs0nIwHC2FN60uUHxGzYzwhdDDGBM1eFq1sTUPDuuqEtBLEGHrvPh2+5O8Q6BaNwqA6GL8SPi1wL8x8uoih2BCf8fjrIu5F4Q9GPocEh9nXzTPnA0/VVPU+ohM9zsjXi6b3dD6YCBLFIJH2VGhR+6wWpf/9VqDpJ82Iix3rEfHH9q8e9XVB6LMVEa40SvdTCq01ZIWZP9xtdqVcLFZGn9i+PKIYeUh40Pd2IwcimTwkjoz2SRVNuThYMsd2maGwz5yWvlpf1wW0bixnq2riR7CurchCIGa3haE2RD/m7m31wARCTXI6U6NkDDJpa64c4mfsoTYPalBYuighaaRHWrrMnXig48rboxtiWmeW15c0ebZFcDBeOTkF7b16cfoXsLW2AKjjE8E55m5AGXpUfmczujm6urmXofZLYA/9x6mIk0Lo4pc8Wj/7hBZnp/D/0k7W8dIgddasgGWKwGF9U1k9vaQ69mCTVcIlXGmKO3H7CRXeImpdiulYELDXjaQGS67DBiyGSDPah9FuinBhO+dpfAsSgTvmF07KQQ5PqM72vrc4mZOog8DHplrsQDGLygj479dpzwpL9SUCxHwRiRdZ+Sjt1pQst+DtmBz+KhWK8Qo9V9cqCWBGiRSbZH6mdZE34HUlhib73PxVMYQ1c5PPaG9PKIaHfZx9yrFapsmYBEGtET/KZYe7rqe9a3CRYeDp1XYZRTto+uUEAsjqfjAfEWI6Uke48p3P9On8QEzL2hR5dpn1AjbmJFtNxw7rCdICzQQzVIVmHyt0S5m91iEnOjRL/XMxPbEKMnEmlwIiGlOqNFTygQfcdbieCWBFH4eOo3TxPVzULgFhon+mX+DtvxiGzmDAGhOdm3ruQjCQScd0E7OHKUiTgSq7r+ldCiX0hWP/2D7EeidlbBKmU9qfEjEdl3KTKKEGBpwUlFxpk9od0au8ZpQpIrCiGmzvLmGdRybKHYgd9VfXSf/WB6bRi7Kh9WKUoYDPWh84GcUvnZSEQA+3rd0mXhlcRKR5J5AyC4fYvrs7OL/00k9EH09z1JeOxhbGNmWsUcbHJJiya3/7qd75ZIMQgKDAwBoSFIVqt5pGwQKy1WNiucfomgLEqOiEbLgXP4WKPKKZFTonVklIE1dFmR3k77zE/5BToCVOKvWapKF5+6r0RoCuUIy8JYjQ1duOS54EwSWEs+uT+2kru0vzqqlEgjwfGWGZxiYLYf+yWdbvffucb58j6Fo8XE3TAL5MYA2saJIvauQQe7BCjmG1VA9ldiksGiQ9KuKmipadmf+d2XHwcprvBw2zlzk5oBbedcCZtVhoh3a9cw5hbyl+ErVUUuj+8DebNK+mUWwA8BmxaRDlgyWwBYpGAEHvddBr70JvWUuTk899SWLjz+Mb1aZyhPzz/zwtLyYAIi0dU/biqC/bPndi349XX33x1x75z9lUYxEK4qXvElNn31G/Bk5ywnuK0cGeVMxePwDsbLTSHhqD+8eGaehLMqmiBN6lgj4YsnhYciJEO9DKKtpscg7vZjicHwZUporiwY4ewB1nKOmRkVwq9U1HSvbzqwNlu/UFbjXwQxFJBIQZyiz8b+boXEpIziSh7/epFbnpmXg4IsuTS8ovHUTrXd1mvOiEm+YAYZi60NVhWtTNcPaqrD+udNANqLRlqahhv6NheW0mwM2zP7HCg0tm28rBp5wMynJGKkANiElN/2InteGJlR1s7x5sGyrbwfRrYlAIy5ullBqSuA3h6rmIfeXQQDwZXVbWb5QV1+LR26CQQU7ocUSzedfIVz3WI4atxwkz4H0/LHgjLLM5zEBZ9+OnmnXsL55eTQWKYPD+9ce8RudNfmLj68h8/eqZ/bdc7V5Ui0PQI/78qpgxP9C+rbS1mw4P/Z+/an5u4rjDBBeoBHBNIcENsAlOHhwmvElIeJkBgCI8MkBTagUJnMm2a/Nbpb/mlf0BHD1aPtZ6rh62HLcmWJQMCjMEG88ZQniGYQEl4BkiAUgiBptq9d3VX0kp7l3oa2ZxvGPBI1orZ+83Zc79z7ncyfFGQ5c6QrFQed5VJKuBFY/eILUArXismYVHiaSHftFZcKj3mgn6W80B+R4P3hxaLt2x52tmicR+UOxyoD8dbn/0YdHjRbsHqqKlYLhX73/pguoXxkkSnhpmRRbFk/PM25IXXKjedaRJJ+PlRC/kzpsaoNj+2NbsMRtUMMza7T5NrXF2ZTq4rKz+5hmWzH9ErVRkB6+3S2QMHH5+mIni/MZvYLPHLWSpzhvEPY/Up5ycc95ZkHS0ZMPw44kNW237xsIx9gpjMz1y4YuGcXPWWocSxLPl/2zNc3p5xssOCww3D1JjN3vqpU6aXr5mq8VqsVtHdzSs7j6YCj5jnW4Ks1po15RVl5R96GwzJVMWCV0ODYl1NeWYuRoWy/Am/gm5hivr3Yho8OX4sB8l2cKo1fntzNONqmx/c//ejP929t+7GrfQ3PhL+t9U9MSa3aMnQFclVHDx00Iic5JxWlHxC/nzg7IWLho79ZVHOs4zTXn1B6duG5++3lbJsTmkyBdujH1g6Is9Vy6R2KQzDODQGpsbKWMgrOUrl4z60mEmwSoZBhjFjUiHnRfOv16DLSOZH1FPv4yzjc9XC7+JDkPnCmCnkFOvVfI36yj15jrW5DSrzsFBss5YOLwmlS93c+f16G0r1ckrF/4D+463mnM8Fxpunq2Lc9GQyJleQrjE7HGb+g+UoaJlTe08Hb8vI6wXJDYM1+Zi1COc0zSjm1Vh5PyANvqLcHkRyEkl7yJ07GzM1iQ3PyN83ieOPLt7SZoWzumZ11fAGz04tNZBuMa8gaZR8MhbnqX/qR/bw971XofF6LQ5HMkcXNpCMxspLDlZNmZIuu3xKTY3ZkqSLVyBKkjR8GmaxVuBkfQaawesQWy2mVIgoqyiTYryId5J/eJTJlg/G8Kv2ELetbsl53Dth68LL/DAtVbqdyYJdnKreV0m/2LbuTiWKCYeSVhUkw+bkafoSlN1pPf+d/d/9XflUK2/EU5NMshivt/xX79JZbv7+Z9OnGs1WPix5GQvjmDJjssQOdrLXSifUUiYlkjB2NFcYM0ZsZ9JkKxGbxB4JziXy44RfTRgLeLBX3Vm3zc81HpZl1r5z0ihWmMPkBW//eblK7JtyWqr0ENmGPdvnfvOWbPvAOK9AMppx9dQK/30cxhLyYcwQP4oX+UH6fg+/eqm1ronDu4FdKjJ+RnQh1ra1JoJsYKvHv//AFxJy7T154FLgO7Gj7AcVvbD/d2ySyGMZ0Kv3DPipMTWZX3nX9NDFFks3lXLaGF+cPC9KCmkEe/8qevVAa4vdFHQ14GxM3pZA3iIW+0odbG0waQwao6kpxnlcdaaO8zu6O1p8fo6zfdfalZaKrS3QRRmiz9W2LbjW9e9dFOs33WGZ2mMXExbuMlrE5pAMx+yulrQKdYph69GrJz11fLN1oHU3Pm3LUlOMdZ3Cggkrfhlr3FLnizZHo9FQU8QQte1PhbTHhRzEhNZq2W6J1/TZp3N7Acabe+5aqyRhbFvYkLWhNUUb5Ys7GzDvYkJLdZIuiA3bOBUUc3alj75h+H+MJrvdzrK1AV/YsC/FMKTJVhayMiHnSzZk008xK6nAoCPdr9odLntWq43zAl7k41LVfZ249BG/HdElGkQdtHlm72YbsqDIFwnZDUkwDP938tNGe9DU5A4nJILGbV1BBzGcjen1aYY+rwzXA8PEKhIOY5szD0oaEzZxnTcSqeIyWfoTznoU+Fj/DmwyRk+xWty43xyqZVnWLgQvlg1E6mJcvPnsBUnifwV989ICvo/9xQrj4EFzRrw8cs6SFbjmuGjY804xFMZWio/KFmO6XIG9DLV30CJfv5gmKByJN6COamOkdZuSPX82xbCXelurzelvbPZFG2MuzuNx+06cPifV9S9iblcX9o2cKY6ywVOMEMVG9AMgbewBFsekLulGg0fs5Lqf/JUnP7yUIVkdjYuMtHBYGVNBMU0wjDsstu+81HliR21HW+eh9p0XMr7k05U5m8UKDSMH69NsQfUrioBfPEqkIleH25KKYwZuBxHEnmYVE895OcQwRmNyRUSVXgXFvNwxxarRp5+NERlW3Btu5qg3Zg4aMnTRitJBb7/8AnALA1Uqr+M1bXEbjEnSMBqjxd1BBLFPMtf+QqezETfvGOtdqV6ybfTpvqbFrVj7/izVVK2bByvVeyE0XOjETWKHpyVo1BiDEU+AyBWPMgJYe8DjasFbA1ODc0vqnQPUFCPifk5cHq0DhvWhjF8nPgnPhl1NDQl/q1g24p19peHr8P6Qh/NZTWJfdF24jbzb5aGmmN1nyMev9WnticWwSr0aH6fVHLW72vxxV/eXEk3qKU7Ldx0+H4t7YnWmYJJgvIRlCiScri7ts1DMII6+ycb2i3eupOm8c2GNejsWpHVO8ItMfryeGjWiPfP99+GtbEdHLWsymewsG4z4OMnxIcEfiqOmGIsNMW7c/Pqf99dfvXr12oYN6+/d2Xglq3l/EqxQX3lUfi0TUe6kBbjDHf5w3N3o84VC0ZjT5om0Z/z6aRUUc7ZLakO5MQuWp+/sKkWPiyyG6daTVw52nWr71ppIdHde2ikVMu7h3jGWmmJxVDn4MS/BqmBx+ggW4xW9kc6wTRm9YbmxB/3K507qMnggfFDp7OSsUbAyfQdrZZql75PFvpmfYA90usfI6tBNTTFReZVn1+hKUMb7GirFxX2K6pC37qav+eU8DOPnxKNd5xl6ionKq5DQF62uLhkzWqebWFK9YO0kEMH68rYyAxMnkQ6ei/L8OiZ4s+o+Ql3WtBRjNE1o8OQN/sPwQHw+UCVDsQFY+8eNFjeyCHZfj9/biDpYaSlmEJVXoY/iFbj7zwfmZxJsbjbzvvrm7rprx7ZrtZtvrHv4jeQNlVHMwDaeJ8c+4N4/pw/LVZlpWj78S10ullJerwPFni+8OEFWkSqqzkOuSiHOPVani6WU19sqLNABfeRx+dvKCbMmZY3SKFpdIkuw6lH9lgoWBOrUfUMt7tl+DDVIgJR+Va+n8atEKB+uInMi6GuUJtvJlGaxAO4sQIoBry5etmxZ1ar5YoeNIGxcQf1i1J0W4sh5qBIBlDGJ6P/0Xa9b/MIHrhX60SJAwVBMp+p4CGPc2kTmzL8J9xCQF4vVUyxlaHEPeloBylhKKEZ7VBdkMYAaSGzKdodpKcZ9Tixc4RYCFKQMQrF/eOik15TbAG93PhFuISA/3iQU2+cJ0lkcGz27UppFNdxCQH78glDsZJzSiTMi6RZbDbcQkB8vEood9FBSLIHO6W5QMQcc8PyimFDsHEc1QYQxhSKkWwxkMYASCMX2OhvoZLEYOqd7FxoSAdQUQ57VbiudZuE+ler6B80CQEcx5GDtaqHULJDlnR4oBqCmGDIYjiUoD1GSVp4xcAMBVBRDRou+Oqp83yrRLCbADQQoYTQxKGvZamToT7hdg24xABVKyLiu7qhduYLE2H21ZKjSfLiBACUIh0fuIJv0GEWR0hDwd5LZg9DKA1CEcAoOmZAdcdFQTDx+tBE2lAAqLOOZ8kTFKbegpM8CKAZQhtCT+JUKV/QGjpwNeR3uH0ARH5MK0pe2AEXjfl2IjB+shPsHUIRkyPh2p3IFiQnEThA/C3ByBVBAUkFqTGgUhbEgd5pUKMFMDEBLMaS9Gn12Rkl4jUhSMcj2ATSYyHMFjRg54lZqrWbs0VoypxcqlAAaVBNvnn1hxXw/YEPPyYeQ7QNosVpiax1TKoSb6mKSSabgGgygwVKJo/ohp0IYM8WRtL8ZUjEANYols3m3OxN5my1MvmbJ2IgSuHkA+i0lflKedQbzMSzRupv0ioEqBqAEmn2LB6O6t+Y+6WZqaW0n87vgOQmgBbJOn/tHNDEwbDDmTPVbT2mJYgEztAC0QJ4DE/+K6NPGWeQJFnE7D2DD/v/o4HwbQH0yNvPP4oRxS1ocY4TxqJFYfL846fIuBDGAOiCb4ff/jhn0rS0RMGoMCIzGaGcdIc7ZfVAcOrJOB5kYQB2QdYpuwV8wh07F3U0BlmXtdpatrW+KeWxb28ms3ovot8HMAqACyJX/ZtXfMIv2HnWFOVdjc6PLGQ83t3V9IR2PihgGp9sAzxDG/tveHbMkEMdxHEbBoeUCB4cWXVzuHQQJt4iTmEvuQvQCeh+9m5YCsaHRVXASgyDaAomgRQRTTvPk7pzkeV7Cj+9w8If7rD/Hls+VL6+D58FoPJzstgX9uY7UVtHUz9Zdch51HVJ1MlIKVxsL7pP7uxZGRqW/8bRvy3sG9r1J27gX6VU2caTf3Xk9vs0f/s3EQZaNxQu8T9NOLAddcCsyqsYKvP2P2ddPp/++1ReUPCKH7qH6bmhg5HMWJA3sxrs3+Z3vqTyH3QvH4Uiata15VeuRq3Bcxah3WQuCq0b9Oio5BwAAAAAAAAAAAAAAAAAAAAAAAAAAAACcvgXB8fE1DepJnwAAAABJRU5ErkJggg==;" vertex="1" parent="EXpLw-7ZhNTg4ZC5dxBc-30">
          <mxGeometry x="40" y="512.21" width="230" height="105.57" as="geometry" />
        </mxCell>
        <mxCell id="EXpLw-7ZhNTg4ZC5dxBc-31" value="&lt;span style=&quot;font-size: 24px;&quot;&gt;Cliente-Servidor&lt;/span&gt;" style="text;html=1;align=center;verticalAlign=middle;resizable=0;points=[];autosize=1;strokeColor=none;fillColor=none;" parent="1" vertex="1">
          <mxGeometry x="265" y="20" width="200" height="40" as="geometry" />
        </mxCell>
        <mxCell id="EXpLw-7ZhNTg4ZC5dxBc-40" style="edgeStyle=orthogonalEdgeStyle;rounded=0;orthogonalLoop=1;jettySize=auto;html=1;entryX=0.5;entryY=0;entryDx=0;entryDy=0;" parent="1" source="EXpLw-7ZhNTg4ZC5dxBc-39" target="EXpLw-7ZhNTg4ZC5dxBc-19" edge="1">
          <mxGeometry relative="1" as="geometry" />
        </mxCell>
        <mxCell id="EXpLw-7ZhNTg4ZC5dxBc-39" value="&lt;font style=&quot;font-size: 18px;&quot;&gt;Sistema&lt;/font&gt;" style="whiteSpace=wrap;html=1;aspect=fixed;" parent="1" vertex="1">
          <mxGeometry x="730" y="160" width="80" height="80" as="geometry" />
        </mxCell>
        <mxCell id="SBNdTW3bbpPaULmrXrV8-1" value="API Linkedin" style="whiteSpace=wrap;html=1;aspect=fixed;" parent="1" vertex="1">
          <mxGeometry x="-100" y="310" width="80" height="80" as="geometry" />
        </mxCell>
        <mxCell id="SBNdTW3bbpPaULmrXrV8-4" value="Steam Web API" style="whiteSpace=wrap;html=1;aspect=fixed;" parent="1" vertex="1">
          <mxGeometry x="-100" y="180" width="80" height="80" as="geometry" />
        </mxCell>
        <mxCell id="EXpLw-7ZhNTg4ZC5dxBc-23" style="edgeStyle=orthogonalEdgeStyle;rounded=0;orthogonalLoop=1;jettySize=auto;html=1;exitX=0.5;exitY=0.967;exitDx=0;exitDy=0;exitPerimeter=0;" parent="1" source="EXpLw-7ZhNTg4ZC5dxBc-21" target="EXpLw-7ZhNTg4ZC5dxBc-8" edge="1">
          <mxGeometry relative="1" as="geometry" />
        </mxCell>
      </root>
    </mxGraphModel>
  </diagram>
</mxfile>
